<svg width="45" height="17" viewBox="0 0 45 17" fill="none" xmlns="http://www.w3.org/2000/svg">
    <path
        d="M1.49945 16.5356C1.33079 16.5356 1.19279 16.482 1.08545 16.3746C0.97812 16.2673 0.924453 16.1293 0.924453 15.9606V1.01064C0.924453 0.841977 0.97812 0.703977 1.08545 0.596644C1.19279 0.48931 1.33079 0.435643 1.49945 0.435643H8.51445C9.83312 0.435643 10.9141 0.619643 11.7575 0.987643C12.6008 1.35564 13.2218 1.88464 13.6205 2.57464C14.0345 3.24931 14.2415 4.05431 14.2415 4.98964C14.2415 5.54164 14.1341 6.03231 13.9195 6.46164C13.7201 6.87564 13.4671 7.22064 13.1605 7.49664C12.8691 7.77264 12.5931 7.97198 12.3325 8.09464C12.9151 8.37064 13.4288 8.82298 13.8735 9.45164C14.3335 10.0803 14.5635 10.8163 14.5635 11.6596C14.5635 12.6716 14.3335 13.5456 13.8735 14.2816C13.4288 15.0023 12.7695 15.562 11.8955 15.9606C11.0368 16.344 9.97879 16.5356 8.72145 16.5356H1.49945ZM5.04145 13.5456H8.26145C8.92079 13.5456 9.41912 13.354 9.75645 12.9706C10.0938 12.5873 10.2625 12.1503 10.2625 11.6596C10.2625 11.123 10.0861 10.6706 9.73345 10.3026C9.39612 9.93464 8.90545 9.75064 8.26145 9.75064H5.04145V13.5456ZM5.04145 6.82964H8.05445C8.68312 6.82964 9.15079 6.66864 9.45745 6.34664C9.77945 6.02464 9.94045 5.61064 9.94045 5.10464C9.94045 4.61398 9.77945 4.21531 9.45745 3.90864C9.15079 3.58664 8.68312 3.42564 8.05445 3.42564H5.04145V6.82964ZM17.6938 16.5356C17.5251 16.5356 17.3871 16.482 17.2798 16.3746C17.1725 16.2673 17.1188 16.1293 17.1188 15.9606V1.01064C17.1188 0.841977 17.1725 0.703977 17.2798 0.596644C17.3871 0.48931 17.5251 0.435643 17.6938 0.435643H28.4348C28.6035 0.435643 28.7415 0.48931 28.8488 0.596644C28.9561 0.703977 29.0098 0.841977 29.0098 1.01064V3.17264C29.0098 3.34131 28.9561 3.47931 28.8488 3.58664C28.7415 3.69398 28.6035 3.74764 28.4348 3.74764H21.0978V6.85264H27.9288C28.0975 6.85264 28.2355 6.91398 28.3428 7.03664C28.4501 7.14398 28.5038 7.28198 28.5038 7.45064V9.45164C28.5038 9.60498 28.4501 9.74298 28.3428 9.86564C28.2355 9.97298 28.0975 10.0266 27.9288 10.0266H21.0978V13.2236H28.6188C28.7875 13.2236 28.9255 13.2773 29.0328 13.3846C29.1401 13.492 29.1938 13.63 29.1938 13.7986V15.9606C29.1938 16.1293 29.1401 16.2673 29.0328 16.3746C28.9255 16.482 28.7875 16.5356 28.6188 16.5356H17.6938ZM35.9252 16.5356C35.7566 16.5356 35.6186 16.482 35.5112 16.3746C35.4039 16.2673 35.3502 16.1293 35.3502 15.9606V4.04664H31.2562C31.0876 4.04664 30.9496 3.99298 30.8422 3.88564C30.7349 3.76298 30.6812 3.62498 30.6812 3.47164V1.01064C30.6812 0.841977 30.7349 0.703977 30.8422 0.596644C30.9496 0.48931 31.0876 0.435643 31.2562 0.435643H43.6302C43.7989 0.435643 43.9369 0.48931 44.0442 0.596644C44.1516 0.703977 44.2052 0.841977 44.2052 1.01064V3.47164C44.2052 3.62498 44.1516 3.76298 44.0442 3.88564C43.9369 3.99298 43.7989 4.04664 43.6302 4.04664H39.5362V15.9606C39.5362 16.1293 39.4826 16.2673 39.3752 16.3746C39.2679 16.482 39.1299 16.5356 38.9612 16.5356H35.9252Z"
        fill="white" />
</svg>
    