<svg width="42" height="42" viewBox="0 0 42 42" fill="none" xmlns="http://www.w3.org/2000/svg">
    <path
        d="M19.1891 0.391853C17.0963 0.409526 14.4918 0.735084 11.3199 1.47271L11.7478 2.5024C26.6212 -1.06758 28.4071 7.26765 18.4636 9.34192C13.7198 10.3279 12.8919 6.53281 18.0357 5.9003C19.9426 5.65846 21.7564 5.77938 23.2633 6.22586C23.5609 5.9096 23.8028 5.51893 23.9051 5.02315C22.1285 4.5404 20.0914 4.38878 18.1102 4.62504C9.51541 5.63985 10.6502 12.1975 19.1798 10.6349C27.0956 9.18379 30.5093 0.297906 19.1891 0.391853ZM6.83653 1.49968C5.89706 1.51456 4.65157 1.86431 3.39584 2.5238C1.16902 3.70511 -0.238319 5.41661 0.254669 6.34678C0.281644 6.40259 0.3142 6.4491 0.352337 6.49561C0.36815 6.4491 0.385823 6.40259 0.405356 6.36538C1.81735 3.96741 5.61801 1.72199 8.3341 2.10522C8.3341 2.09592 8.3248 2.08662 8.3248 2.08662C8.11086 1.68013 7.56206 1.48852 6.83653 1.49968ZM1.26297 8.05829C3.3977 10.1791 10.6223 5.8817 9.32938 3.78882C7.88762 1.44945 -0.360171 6.4398 1.26297 8.05829ZM26.7793 6.29097C26.6026 6.68164 26.37 7.08161 26.091 7.46298C26.0352 7.52809 25.9794 7.60251 25.9236 7.66762C27.7281 9.37913 27.8676 12.1789 24.8911 15.8996C30.2023 11.6208 29.6628 8.22572 26.7793 6.29097ZM28.7327 17.9553C26.0073 21.1829 30.7604 24.5036 30.7604 24.5036L30.4163 27.6197L25.505 24.8013C25.505 24.8013 27.3002 31.1822 26.8072 35.6749C26.7049 36.6051 26.1933 37.3492 25.4399 37.8143C24.6771 38.2794 23.7377 38.3724 22.8912 38.0934C21.8959 37.7213 21.003 37.4516 20.9937 37.4423L20.8448 36.5772L21.7378 36.726C22.2959 36.8097 22.8819 36.6702 23.347 36.3261C23.8214 35.9912 24.1376 35.4796 24.2307 34.9029C24.2679 34.6518 24.3051 34.3541 24.1655 34.1588C24.0632 34.0192 23.9237 33.9262 23.7563 33.9076C21.9983 33.6193 17.0405 32.8379 17.0405 32.8379L17.9613 38.0748L17.8776 38.0934L24.3516 40.4188L28.7792 39.7677L31.2627 42.0001H41.0667V36.14L37.0018 33.5356L37.3274 28.0662L35.1973 23.1456L28.7327 17.9553ZM18.7613 18.8761L16.3149 21.6759L24.1097 22.5875C24.1097 22.5875 24.1934 21.8527 24.2865 21.1085C24.333 20.69 24.212 20.2621 23.9423 19.9272C23.6726 19.5924 23.2912 19.3691 22.854 19.3226C21.1704 19.1459 18.7613 18.8761 18.7613 18.8761ZM17.2079 23.527L16.6033 26.6709L23.9981 28.1034C23.9981 28.1034 24.1469 27.3686 24.2958 26.6151C24.4632 25.7594 23.9051 24.9222 23.04 24.7362C20.8727 24.2897 17.2079 23.527 17.2079 23.527ZM16.9381 28.1406L16.287 31.1636L23.3935 32.6984C23.3935 32.6984 23.5423 31.9822 23.7005 31.238C23.8865 30.373 23.3377 29.5172 22.4726 29.3312C20.3798 28.8754 16.9381 28.1406 16.9381 28.1406Z"
        fill="white" />
</svg>
    