<svg width="24" height="24" viewBox="0 0 24 24" fill="none" xmlns="http://www.w3.org/2000/svg">
    <path
        d="M24.0001 3.74978C24.0001 4.59353 23.3298 5.37166 22.2001 5.99979C20.8361 6.75448 18.8017 7.28886 16.4673 7.44824C16.2938 7.36386 16.1204 7.28417 15.9376 7.21386C14.0907 6.44042 11.6344 5.99979 9.00005 5.99979C8.61099 5.99979 8.2313 6.00917 7.85161 6.02792L7.80005 5.99979C6.67035 5.37166 6.00004 4.59353 6.00004 3.74978C6.00004 1.67789 10.0313 -0.000244141 15.0001 -0.000244141C19.9689 -0.000244141 24.0001 1.67789 24.0001 3.74978ZM7.53286 7.55136C8.01098 7.51855 8.50317 7.4998 9.00005 7.4998C11.9157 7.4998 14.5032 8.07637 16.1485 8.97168C17.311 9.6045 18.0001 10.392 18.0001 11.2498C18.0001 11.4373 17.9673 11.6201 17.9017 11.7983C17.686 12.417 17.1048 12.9842 16.261 13.4623C16.2563 13.467 16.247 13.467 16.2423 13.4717C16.2282 13.4811 16.2142 13.4858 16.2001 13.4951C14.5595 14.4045 11.9438 14.9952 9.00005 14.9952C6.20629 14.9952 3.70783 14.4655 2.05314 13.6311C1.96407 13.5889 1.8797 13.542 1.79532 13.4951C0.670316 12.8717 0 12.0936 0 11.2498C0 9.61856 2.50314 8.22637 6.00004 7.71543C6.49223 7.64511 7.00317 7.58886 7.53286 7.55136ZM19.5001 11.2498C19.5001 10.2233 19.0032 9.3795 18.3704 8.74668C19.697 8.54043 20.9111 8.2123 21.9423 7.78574C22.7064 7.46699 23.4189 7.07324 24.0001 6.59042V8.2498C24.0001 9.1545 23.2267 9.98888 21.947 10.6358C21.2626 10.9826 20.4282 11.2779 19.4907 11.5029C19.4954 11.4186 19.5001 11.3389 19.5001 11.2545V11.2498ZM18.0001 15.7498C18.0001 16.5936 17.3298 17.3717 16.2001 17.9999C16.1157 18.0467 16.0313 18.0889 15.9423 18.1358C14.2923 18.9702 11.7938 19.4999 9.00005 19.4999C6.05629 19.4999 3.44065 18.9092 1.80001 17.9999C0.670317 17.3717 0 16.5936 0 15.7498V14.0905C0.585941 14.5733 1.29376 14.967 2.05782 15.2858C3.9094 16.0592 6.36566 16.4999 9.00005 16.4999C11.6344 16.4999 14.0907 16.0592 15.9423 15.2858C16.3079 15.1358 16.6595 14.9623 16.9923 14.7748C17.2782 14.6155 17.5454 14.4373 17.7985 14.2498C17.8689 14.1983 17.9345 14.142 18.0001 14.0905V14.517V15.7498ZM19.5001 15.7498V13.0358C20.3907 12.8389 21.2111 12.5905 21.9423 12.2858C22.7064 11.967 23.4189 11.5733 24.0001 11.0904V12.7498C24.0001 13.242 23.7658 13.7342 23.3017 14.1983C22.5376 14.9623 21.1923 15.5905 19.4907 15.9983C19.4954 15.9186 19.5001 15.8342 19.5001 15.7498ZM9.00005 20.9999C11.6344 20.9999 14.0907 20.5593 15.9423 19.7858C16.7063 19.4671 17.4189 19.0733 18.0001 18.5905V20.2499C18.0001 22.3218 13.9688 23.9999 9.00005 23.9999C4.03127 23.9999 0 22.3218 0 20.2499V18.5905C0.585941 19.0733 1.29376 19.4671 2.05782 19.7858C3.9094 20.5593 6.36566 20.9999 9.00005 20.9999Z"
        fill="white" />
</svg>
    