<svg width="34" height="36" viewBox="0 0 34 36" fill="none" xmlns="http://www.w3.org/2000/svg">
    <path
        d="M7.65082 0.000976562C6.36511 0.000976562 5.21187 0.265911 4.43343 0.65552C3.662 1.04513 3.3659 1.48149 3.3659 1.79318C3.3659 2.09707 3.662 2.54201 4.43343 2.92304C5.21187 3.31265 6.36511 3.58538 7.65082 3.58538C8.93653 3.58538 10.0898 3.31265 10.8612 2.92304C11.6404 2.54201 11.9365 2.09707 11.9365 1.79318C11.9365 1.48149 11.6404 1.04513 10.8612 0.65552C10.0898 0.265911 8.93653 0.000976562 7.65082 0.000976562ZM20.1183 2.49447C18.8326 2.49447 17.6794 2.75941 16.9079 3.14902C16.1287 3.53863 15.8326 3.97499 15.8326 4.28668C15.8326 4.59057 16.1287 5.0355 16.9079 5.41654C17.6794 5.80615 18.8326 6.0781 20.1183 6.0781C20.4767 6.0781 20.8196 6.05472 21.1469 6.01576C21.4819 5.58797 21.9573 5.20849 22.5105 4.95602C23.1495 4.66771 23.8897 4.43395 24.404 4.28668C24.404 3.97499 24.1079 3.53863 23.3287 3.14902C22.5573 2.75941 21.404 2.49447 20.1183 2.49447ZM3.3659 3.92746C3.33473 5.06979 4.57213 5.53576 5.35212 5.76641C6.74693 6.17161 8.55471 6.17161 9.94951 5.76641C10.9469 5.48122 11.9287 4.93109 11.9365 3.92746C10.682 4.75577 8.85081 4.97862 7.65082 4.98719C6.13134 4.86018 4.5355 4.70278 3.3659 3.92746ZM26.3521 5.5568C25.0663 5.5568 23.9131 5.82174 23.1417 6.21836C22.3625 6.60018 22.0664 7.04433 22.0664 7.34822C22.0664 7.65991 22.3625 8.09627 23.1417 8.48588C23.9131 8.87549 25.0663 9.14043 26.3521 9.14043C27.6378 9.14043 28.791 8.87549 29.5624 8.48588C30.3417 8.09627 30.6378 7.65991 30.6378 7.34822C30.6378 7.04433 30.3417 6.60018 29.5624 6.21836C28.791 5.82174 27.6378 5.5568 26.3521 5.5568ZM15.8326 6.42095V6.60797C16.0586 6.68589 16.2768 6.7794 16.4794 6.88069C17.1807 7.23134 17.7884 7.72225 18.1001 8.33783C18.8949 8.53264 19.791 8.60277 20.6638 8.54822V7.46511C20.4845 7.4729 20.3053 7.48069 20.1183 7.48069C18.6456 7.48069 17.3053 7.19238 16.2768 6.6781C16.1209 6.60017 15.9729 6.51446 15.8326 6.42095ZM3.3659 6.42875C3.3394 7.56641 4.57524 8.03394 5.35212 8.2677C5.88199 8.41575 6.4742 8.51705 7.08199 8.54822C7.23783 8.14303 7.51835 7.78459 7.87679 7.48069C6.87939 7.50407 5.8742 7.37939 4.96252 7.12225C4.3555 6.94303 3.81784 6.71706 3.3659 6.42875ZM12.6378 7.48069C11.3521 7.48069 10.1989 7.75342 9.42744 8.13523C8.64822 8.52484 8.35211 8.96121 8.35211 9.27289C8.35211 9.58458 8.64822 10.0209 9.42744 10.4106C10.1989 10.8002 11.3521 11.0651 12.6378 11.0651C13.9235 11.0651 15.0768 10.8002 15.8482 10.4106C16.6274 10.0209 16.9235 9.58458 16.9235 9.27289C16.9235 8.96121 16.6274 8.52484 15.8482 8.13523C15.0768 7.75342 13.9235 7.48069 12.6378 7.48069ZM3.3659 8.92225C3.3394 10.0599 4.57524 10.5274 5.35212 10.7612C5.84303 10.9015 6.38848 10.995 6.94952 11.0339V9.95861C6.26381 9.91185 5.59368 9.79497 4.96252 9.61575C4.3555 9.43653 3.81784 9.21056 3.3659 8.92225ZM22.0664 9.49107C22.0508 10.6365 23.2664 11.0963 24.0534 11.33C25.4482 11.7352 27.2559 11.7352 28.6507 11.33C29.6404 11.0417 30.63 10.4963 30.6378 9.49107C30.4975 9.57679 30.3494 9.6625 30.1936 9.74042C29.165 10.2547 27.8248 10.543 26.3521 10.543C24.8793 10.543 23.5391 10.2547 22.5105 9.74042C22.3547 9.6625 22.2066 9.57679 22.0664 9.49107ZM18.3261 9.81835V10.8859C19.0586 11.0339 19.8768 11.0885 20.6638 11.0417V9.9664C19.8768 10.0054 19.0819 9.9586 18.3261 9.81835ZM8.35211 11.408C8.31315 11.8755 8.52354 12.2573 8.78068 12.4833C9.10796 12.7638 9.63783 13.0521 10.3391 13.2547C11.7339 13.6521 13.5417 13.6521 14.9365 13.2547C15.6378 13.0521 16.1677 12.7638 16.4949 12.4833C16.8768 12.1638 16.9235 11.8521 16.9235 11.408C16.7833 11.5015 16.6352 11.5872 16.4794 11.6651C15.4508 12.1794 14.1105 12.4677 12.6378 12.4677C11.1651 12.4677 9.82484 12.1794 8.79627 11.6651C8.64043 11.5872 8.49237 11.5015 8.35211 11.408ZM3.3659 11.4157C3.3394 12.5534 4.57524 13.0209 5.35212 13.2547C5.84303 13.395 6.38848 13.4885 6.94952 13.5274V12.4521C6.26381 12.4054 5.59368 12.2885 4.96252 12.1092C4.3555 11.93 3.81784 11.7041 3.3659 11.4157ZM22.0664 11.9846C22.0508 13.13 23.2664 13.5898 24.0534 13.8235C25.4482 14.2287 27.2559 14.2287 28.6507 13.8235C29.6404 13.5352 30.63 12.9898 30.6378 11.9846C30.1858 12.2729 29.6481 12.4989 29.0404 12.6781C27.3495 13.169 25.3547 13.169 23.6638 12.6781C23.056 12.4989 22.5183 12.2729 22.0664 11.9846ZM18.3261 12.3118V13.3794C19.0586 13.5274 19.8768 13.582 20.6638 13.5352V12.4599C19.8768 12.4989 19.0819 12.4521 18.3261 12.3118ZM3.3659 13.9092C3.3394 15.0469 4.57524 15.5144 5.35212 15.7482C5.84303 15.8885 6.38848 15.982 6.94952 16.0209V14.9456C6.26381 14.8988 5.59368 14.782 4.96252 14.6027C4.3555 14.4235 3.81784 14.1976 3.3659 13.9092ZM8.35211 13.9092C8.31315 14.3768 8.52354 14.7508 8.78068 14.9768C9.10796 15.2573 9.63783 15.5456 10.3391 15.7482C11.7339 16.1456 13.5417 16.1456 14.9365 15.7482C15.6378 15.5456 16.1677 15.2573 16.4949 14.9768C16.8768 14.6573 16.9235 14.3534 16.9235 13.9092C16.4716 14.1976 15.9339 14.4235 15.3261 14.6027C13.6352 15.0859 11.6404 15.0859 9.94951 14.6027C9.34172 14.4235 8.80406 14.1976 8.35211 13.9092ZM22.0664 14.4781C22.0508 15.6235 23.2664 16.0833 24.0534 16.317C25.4482 16.7222 27.2559 16.7222 28.6507 16.317C29.6404 16.0287 30.63 15.4833 30.6378 14.4781C30.1858 14.7664 29.6481 14.9924 29.0404 15.1716C27.3495 15.6625 25.3547 15.6625 23.6638 15.1716C23.056 14.9924 22.5183 14.7664 22.0664 14.4781ZM18.3261 14.8053V15.8729C19.0586 16.0209 19.8768 16.0755 20.6638 16.0287V14.9534C19.8768 14.9924 19.0819 14.9456 18.3261 14.8053ZM8.35211 16.4027V16.582C8.57809 16.6599 8.79627 16.7534 8.99887 16.8547C9.70016 17.2053 10.308 17.6962 10.6196 18.3118C11.9677 18.6391 13.6352 18.6157 14.9365 18.2417C15.6378 18.0391 16.1677 17.7508 16.4949 17.4703C16.8768 17.1508 16.9235 16.8469 16.9235 16.4027C16.4716 16.6911 15.9339 16.917 15.3261 17.0962C13.6352 17.5794 11.6404 17.5794 9.94951 17.0962C9.34172 16.917 8.80406 16.6911 8.35211 16.4027ZM22.0664 16.9716C22.0508 18.117 23.2664 18.5768 24.0534 18.8105C25.4482 19.2157 27.2559 19.2157 28.6507 18.8105C29.6404 18.5222 30.63 17.9768 30.6378 16.9716C30.1858 17.2599 29.6481 17.4859 29.0404 17.6651C27.3495 18.156 25.3547 18.156 23.6638 17.6651C23.056 17.4859 22.5183 17.2599 22.0664 16.9716ZM18.3261 17.2988V18.3664C19.0586 18.5144 19.8768 18.569 20.6638 18.5222V17.4469C19.8768 17.4859 19.0819 17.4391 18.3261 17.2988ZM5.15732 17.4547C3.87239 17.4547 2.71915 17.7274 1.93993 18.1092C1.1685 18.4988 0.8724 18.9352 0.8724 19.2469C0.8724 19.5586 1.1685 19.9949 1.93993 20.3845C2.71915 20.7742 3.87239 21.0391 5.15732 21.0391C6.44303 21.0391 7.59627 20.7742 8.3677 20.3845C9.14692 19.9949 9.44302 19.5586 9.44302 19.2469C9.44302 18.9352 9.14692 18.4988 8.3677 18.1092C7.59627 17.7274 6.44303 17.4547 5.15732 17.4547ZM16.9235 18.8962C16.4716 19.1845 15.9339 19.4105 15.3261 19.5897C13.9235 19.9871 12.3183 20.0573 10.8456 19.7923V20.8599C12.1547 21.1326 13.7053 21.0858 14.9365 20.7352C15.9183 20.4469 16.9157 19.8936 16.9235 18.8962ZM22.0664 19.4651C22.043 20.5716 23.2118 21.0469 23.9832 21.2806C24.4196 20.93 24.817 20.6651 25.2845 20.4703C24.7235 20.4079 24.178 20.3066 23.6638 20.1586C23.056 19.9794 22.5183 19.7534 22.0664 19.4651ZM30.6378 19.4651C30.4196 19.6053 30.178 19.73 29.9131 19.8469C30.1546 19.8703 30.3962 19.9014 30.6222 19.9404C30.6533 19.7845 30.6378 19.6287 30.6378 19.4651ZM18.3261 19.7923V20.8521C19.1755 21.0157 19.8845 21.0547 20.6638 21.0235V19.9404C19.8768 19.9794 19.0819 19.9326 18.3261 19.7923ZM28.8456 21.1949C27.5598 21.1949 26.4066 21.4677 25.6352 21.8495C24.856 22.2391 24.5599 22.6754 24.5599 22.9871C24.5599 23.2988 24.856 23.7352 25.6352 24.1248C26.4066 24.5144 27.5598 24.7793 28.8456 24.7793C30.1313 24.7793 31.2845 24.5144 32.0559 24.1248C32.8352 23.7352 33.1313 23.2988 33.1313 22.9871C33.1313 22.6754 32.8352 22.2391 32.0559 21.8495C31.2845 21.4677 30.1313 21.1949 28.8456 21.1949ZM0.8724 21.3819C0.849802 22.5352 2.06538 22.9949 2.85941 23.2287C4.25421 23.6261 6.06121 23.6261 7.45601 23.2287C8.44562 22.9404 9.43523 22.3871 9.44302 21.3819C9.30276 21.4754 9.15471 21.5612 8.99887 21.6391C7.9703 22.1534 6.63004 22.4417 5.15732 22.4417C3.62927 22.317 2.0498 22.1612 0.8724 21.3819ZM16.9235 21.3897C16.4716 21.678 15.9339 21.904 15.3261 22.0832C13.9235 22.4806 12.3183 22.5508 10.8456 22.2858V23.3534C12.1547 23.6261 13.7053 23.5793 14.9365 23.2287C15.9183 22.9404 16.9157 22.3871 16.9235 21.3897ZM22.0664 21.9586C22.0352 22.7612 22.6897 23.2131 23.1417 23.4469C23.1417 23.4469 23.1495 23.4547 23.1573 23.4547V22.4884C22.7521 22.3404 22.3858 22.1612 22.0664 21.9586ZM0.8724 23.8832C0.845906 25.0209 2.08175 25.4884 2.85941 25.7222C4.25421 26.1196 6.06121 26.1196 7.45601 25.7222C8.43783 25.4339 9.43523 24.8806 9.44302 23.8832C8.99107 24.1715 8.45341 24.3975 7.84562 24.5767C6.15472 25.0599 4.1607 25.0599 2.4698 24.5767C1.86201 24.3975 1.32435 24.1715 0.8724 23.8832ZM10.8456 24.7793V25.8391C11.2274 25.9248 11.6404 25.9793 12.069 26.0105C12.2248 25.5975 12.5053 25.2391 12.8638 24.9352C12.1859 24.9508 11.5002 24.8962 10.8456 24.7793ZM17.6248 24.9352C16.3391 24.9352 15.1859 25.2079 14.4144 25.5897C13.6352 25.9793 13.3391 26.4157 13.3391 26.7274C13.3391 27.0391 13.6352 27.4754 14.4144 27.865C15.1859 28.2546 16.3391 28.5196 17.6248 28.5196C18.9105 28.5196 20.0638 28.2546 20.8352 27.865C21.6144 27.4754 21.9105 27.0391 21.9105 26.7274C21.9105 26.4157 21.6144 25.9793 20.8352 25.5897C20.0638 25.2079 18.9105 24.9352 17.6248 24.9352ZM24.5599 25.1222C24.5521 26.2754 25.7443 26.7352 26.5469 26.9689C27.9417 27.3663 29.7494 27.3663 31.1442 26.9689C32.1339 26.6806 33.1235 26.1274 33.1313 25.1222C31.9001 25.8702 30.0378 26.1741 28.8456 26.1819C27.3183 26.0573 25.7365 25.9014 24.5599 25.1222ZM0.8724 26.3767C0.845906 27.5144 2.08175 27.9819 2.85941 28.2157C4.25421 28.6131 6.06121 28.6131 7.45601 28.2157C8.43783 27.9274 9.43523 27.3741 9.44302 26.3767C8.99107 26.665 8.45341 26.891 7.84562 27.0702C6.15472 27.5534 4.1607 27.5534 2.4698 27.0702C1.86201 26.891 1.32435 26.665 0.8724 26.3767ZM24.5599 27.6235C24.5443 28.7689 25.7598 29.2287 26.5469 29.4624C27.9417 29.8598 29.7494 29.8598 31.1442 29.4624C32.1261 29.1741 33.1235 28.6209 33.1313 27.6235C32.6793 27.9118 32.1416 28.1378 31.5339 28.317C29.843 28.8001 27.8482 28.8001 26.1573 28.317C25.5495 28.1378 25.0118 27.9118 24.5599 27.6235ZM13.3391 28.8624C13.3001 29.33 13.5105 29.7118 13.7677 29.9378C14.095 30.2183 14.6248 30.5066 15.3261 30.7092C16.7209 31.1066 18.5287 31.1066 19.9235 30.7092C20.6248 30.5066 21.1547 30.2183 21.4819 29.9378C21.8092 29.6572 21.9105 29.4157 21.9105 29.2209V28.8624C21.7703 28.9559 21.6222 29.0417 21.4664 29.1196C20.4378 29.6339 19.0975 29.9222 17.6248 29.9222C16.1521 29.9222 14.8118 29.6339 13.7833 29.1196C13.6274 29.0417 13.4794 28.9559 13.3391 28.8624ZM0.8724 28.8702C0.845906 30.0079 2.08175 30.4754 2.85941 30.7092C4.25421 31.1066 6.06121 31.1066 7.45601 30.7092C8.43783 30.4209 9.43523 29.8676 9.44302 28.8702C8.99107 29.1585 8.45341 29.3845 7.84562 29.5637C6.15472 30.0468 4.1607 30.0468 2.4698 29.5637C1.86201 29.3845 1.32435 29.1585 0.8724 28.8702ZM24.5599 30.117C24.5443 31.2624 25.7598 31.7222 26.5469 31.9559C27.9417 32.3533 29.7494 32.3533 31.1442 31.9559C32.1261 31.6676 33.1235 31.1144 33.1313 30.117C32.6793 30.4053 32.1416 30.6313 31.5339 30.8105C29.843 31.2936 27.8482 31.2936 26.1573 30.8105C25.5495 30.6313 25.0118 30.4053 24.5599 30.117ZM0.8724 31.3637C0.845906 32.5014 2.08175 32.9689 2.85941 33.2027C4.25421 33.6001 6.06121 33.6001 7.45601 33.2027C8.43783 32.9144 9.43523 32.3611 9.44302 31.3637C8.99107 31.652 8.45341 31.878 7.84562 32.0572C6.15472 32.5403 4.1607 32.5403 2.4698 32.0572C1.86201 31.878 1.32435 31.652 0.8724 31.3637ZM13.3391 31.3637C13.3079 32.1663 13.9625 32.6183 14.4144 32.852C15.1859 33.2416 16.3391 33.5066 17.6248 33.5066C18.9105 33.5066 20.0638 33.2416 20.8352 32.852C21.6066 32.3689 21.9105 32.1819 21.9105 31.3637C21.4586 31.652 20.9209 31.878 20.3131 32.0572C18.6222 32.5403 16.6274 32.5403 14.9365 32.0572C14.3287 31.878 13.7911 31.652 13.3391 31.3637ZM24.5599 32.6105C24.5287 33.4131 25.1832 33.865 25.6352 34.0988C26.4066 34.4884 27.5598 34.7533 28.8456 34.7533C30.1313 34.7533 31.2845 34.4884 32.0559 34.0988C32.8274 33.6157 33.1313 33.4287 33.1313 32.6105C32.6793 32.8988 32.1416 33.1248 31.5339 33.304C29.843 33.7871 27.8482 33.7871 26.1573 33.304C25.5495 33.1248 25.0118 32.8988 24.5599 32.6105ZM0.8724 33.8572C0.838114 34.652 1.48642 35.1118 1.93993 35.3455C2.71915 35.7351 3.87239 36.0001 5.15732 36.0001C6.44303 36.0001 7.59627 35.7351 8.3677 35.3455C9.13912 34.8624 9.44302 34.6754 9.44302 33.8572C8.99107 34.1455 8.45341 34.3715 7.84562 34.5507C6.15472 35.0338 4.1607 35.0338 2.4698 34.5507C1.86201 34.3715 1.32435 34.1455 0.8724 33.8572Z"
        fill="white" />
</svg>
    