<svg width="28" height="28" viewBox="0 0 28 28" fill="none" xmlns="http://www.w3.org/2000/svg">
    <g clip-path="url(#clip0_4004_1612)">
        <path
            d="M0.476562 6.53174V21.1686C0.476562 21.3909 0.602416 21.5943 0.801146 21.6943L13.4129 28.0001V12.7188L0.476562 6.53174ZM4.00464 20.5806C3.32257 20.5806 2.82863 19.8385 2.82863 18.8165C2.82863 17.7945 3.32257 17.0525 4.00464 17.0525C4.68672 17.0525 5.18065 17.7945 5.18065 18.8165C5.18071 19.8385 4.68677 20.5806 4.00464 20.5806ZM7.53272 18.5484C6.85065 18.5484 6.35671 17.8063 6.35671 16.7843C6.35671 15.7624 6.85065 15.0203 7.53272 15.0203C8.2148 15.0203 8.70873 15.7624 8.70873 16.7843C8.70879 17.8063 8.21485 18.5484 7.53272 18.5484ZM11.0608 16.4645C10.3787 16.4645 9.88479 15.7224 9.88479 14.7005C9.88479 13.6785 10.3787 12.9364 11.0608 12.9364C11.7429 12.9364 12.2368 13.6785 12.2368 14.7005C12.2369 15.7224 11.7429 16.4645 11.0608 16.4645Z"
            fill="white" />
        <path
            d="M14.243 0.0529212C14.0878 -0.0176404 13.9114 -0.0176404 13.7561 0.0529212L1.39844 5.66962L13.9996 11.6967L26.6007 5.66962L14.243 0.0529212ZM13.9996 7.64419C12.9776 7.64419 12.2355 7.15026 12.2355 6.46818C12.2355 5.78611 12.9776 5.29218 13.9996 5.29218C15.0216 5.29218 15.7636 5.78611 15.7636 6.46818C15.7636 7.15026 15.0215 7.64419 13.9996 7.64419Z"
            fill="white" />
        <path
            d="M14.5879 12.7188V28.0001L27.1996 21.6943C27.3983 21.5943 27.5242 21.3909 27.5242 21.1686V6.53174L14.5879 12.7188ZM17.528 17.0525C16.8471 17.0525 16.352 16.3104 16.352 15.2884C16.352 14.2664 16.8471 13.5244 17.528 13.5244C18.2089 13.5244 18.704 14.2664 18.704 15.2884C18.704 16.3104 18.2089 17.0525 17.528 17.0525ZM23.4081 19.9926C22.7272 19.9926 22.2321 19.2505 22.2321 18.2285C22.2321 17.2066 22.7272 16.4645 23.4081 16.4645C24.089 16.4645 24.5841 17.2066 24.5841 18.2285C24.5842 19.2505 24.089 19.9926 23.4081 19.9926Z"
            fill="white" />
    </g>
    <defs>
        <clipPath id="clip0_4004_1612">
            <rect width="28" height="28" fill="white" />
        </clipPath>
    </defs>
</svg>
    