<svg width="18" height="25" viewBox="0 0 18 25" fill="none" xmlns="http://www.w3.org/2000/svg">
    <path fill-rule="evenodd" clip-rule="evenodd"
        d="M14.1073 0.738116C12.4193 0.461466 10.7112 0.326053 9.00076 0.333283C6.92059 0.333283 5.20559 0.516449 3.89426 0.738116C2.56543 0.962116 1.90159 1.07412 1.34626 1.75778C0.792093 2.44145 0.82126 3.17995 0.879593 4.65695C1.08143 9.72962 2.17576 16.0669 8.12576 16.6269V20.75H6.45743C6.18782 20.7501 5.92659 20.8436 5.71815 21.0147C5.50971 21.1857 5.36694 21.4236 5.31409 21.688L5.09243 22.7916H2.00076C1.76869 22.7916 1.54614 22.8838 1.38204 23.0479C1.21795 23.212 1.12576 23.4346 1.12576 23.6666C1.12576 23.8987 1.21795 24.1212 1.38204 24.2853C1.54614 24.4494 1.76869 24.5416 2.00076 24.5416H16.0008C16.2328 24.5416 16.4554 24.4494 16.6195 24.2853C16.7836 24.1212 16.8758 23.8987 16.8758 23.6666C16.8758 23.4346 16.7836 23.212 16.6195 23.0479C16.4554 22.8838 16.2328 22.7916 16.0008 22.7916H12.9091L12.6874 21.688C12.6346 21.4236 12.4918 21.1857 12.2834 21.0147C12.0749 20.8436 11.8137 20.7501 11.5441 20.75H9.87576V16.6269C15.8258 16.0669 16.9213 9.73078 17.1219 4.65695C17.1803 3.17995 17.2106 2.44028 16.6553 1.75778C16.0999 1.07412 15.4361 0.962116 14.1073 0.738116Z"
        fill="white" />
</svg>
    