<svg width="20" height="16" viewBox="0 0 20 16" fill="none" xmlns="http://www.w3.org/2000/svg">
    <path fill-rule="evenodd" clip-rule="evenodd"
        d="M9.62815 0.570082C9.73896 0.619021 9.83316 0.699107 9.89929 0.800598C9.96543 0.90209 10.0006 1.02061 10.0007 1.14175V14.8917C10.0007 15.0129 9.96559 15.1315 9.8995 15.233C9.83342 15.3346 9.73924 15.4148 9.62843 15.4638C9.51762 15.5128 9.39495 15.5285 9.27536 15.5091C9.15576 15.4896 9.0444 15.4358 8.95482 15.3542L4.55065 11.3501H2.29232C1.90554 11.3501 1.53461 11.1964 1.26112 10.9229C0.98763 10.6495 0.833984 10.2785 0.833984 9.89175V6.14175C0.833984 5.33675 1.48732 4.68341 2.29232 4.68341H4.55065L8.95482 0.679248C9.0445 0.597915 9.15587 0.54438 9.2754 0.525148C9.39494 0.505916 9.51748 0.521816 9.62815 0.570915V0.570082ZM8.75065 2.55425L5.21315 5.77092C5.09799 5.87558 4.94793 5.93353 4.79232 5.93341H2.29232C2.23706 5.93341 2.18407 5.95536 2.145 5.99443C2.10593 6.0335 2.08398 6.08649 2.08398 6.14175V9.89175C2.08398 10.0067 2.17732 10.1001 2.29232 10.1001H4.79232C4.94793 10.1 5.09799 10.1579 5.21315 10.2626L8.75065 13.4792V2.55425Z"
        fill="white" />
    <path
        d="M15.5988 1.53508C15.716 1.41804 15.8748 1.35229 16.0405 1.35229C16.2061 1.35229 16.3649 1.41804 16.4821 1.53508C20.0621 5.11508 20.0621 10.9184 16.4821 14.4984C16.3637 14.6088 16.2069 14.6689 16.045 14.6661C15.8831 14.6632 15.7286 14.5976 15.6141 14.4831C15.4996 14.3686 15.434 14.2141 15.4312 14.0522C15.4283 13.8903 15.4884 13.7336 15.5988 13.6151C16.3341 12.8799 16.9173 12.0072 17.3152 11.0466C17.7131 10.086 17.9179 9.05647 17.9179 8.01674C17.9179 6.97702 17.7131 5.94747 17.3152 4.9869C16.9173 4.02633 16.3341 3.15356 15.5988 2.41841C15.4818 2.30122 15.416 2.14237 15.416 1.97674C15.416 1.81112 15.4818 1.65227 15.5988 1.53508Z"
        fill="white" />
    <path
        d="M13.536 4.48085C13.478 4.42279 13.4091 4.37674 13.3332 4.34532C13.2574 4.3139 13.1761 4.29773 13.094 4.29773C13.0118 4.29773 12.9305 4.3139 12.8547 4.34532C12.7788 4.37674 12.7099 4.42279 12.6519 4.48085C12.5938 4.5389 12.5478 4.60782 12.5163 4.68368C12.4849 4.75953 12.4687 4.84083 12.4688 4.92293C12.4688 5.00503 12.4849 5.08633 12.5163 5.16218C12.5478 5.23804 12.5938 5.30696 12.6519 5.36501C13.0001 5.71323 13.2763 6.12663 13.4648 6.58161C13.6532 7.03658 13.7502 7.52422 13.7502 8.01668C13.7502 8.50914 13.6532 8.99678 13.4648 9.45175C13.2763 9.90673 13.0001 10.3201 12.6519 10.6683C12.5415 10.7868 12.4814 10.9435 12.4842 11.1054C12.4871 11.2674 12.5527 11.4219 12.6672 11.5364C12.7817 11.6509 12.9362 11.7165 13.0981 11.7193C13.26 11.7222 13.4167 11.6621 13.5352 11.5517C14.4728 10.614 14.9995 9.34229 14.9995 8.01626C14.9995 6.69024 14.4736 5.41852 13.536 4.48085Z"
        fill="white" />
</svg>
    