<?xml version="1.0" encoding="UTF-8"?>
<svg version="1.1" xmlns="http://www.w3.org/2000/svg" width="664" height="888">
<path d="M0 0 C219.12 0 438.24 0 664 0 C664 293.04 664 586.08 664 888 C444.88 888 225.76 888 0 888 C0 594.96 0 301.92 0 0 Z " fill="#8568EB" transform="translate(0,0)"/>
<path d="M0 0 C1.30517578 0.95712891 1.30517578 0.95712891 2.63671875 1.93359375 C19.12840447 14.39589727 36.14590508 30.49352905 46 49 C46 49.99 46 50.98 46 52 C46.69480469 52.11730469 47.38960938 52.23460937 48.10546875 52.35546875 C55.70673119 54.04805755 63.0548045 57.36391815 69.93115234 60.97924805 C72.09207102 62.04542706 74.27157734 62.9390569 76.515625 63.81640625 C82.23589962 66.08285117 87.90624226 68.45356693 93.5625 70.875 C94.53896484 71.28363281 95.51542969 71.69226563 96.52148438 72.11328125 C115.67928476 80.34024302 115.67928476 80.34024302 119.08105469 88.63647461 C120.11685406 92.42770944 120.28695717 95.92113036 120.265625 99.81640625 C120.26830887 100.62031296 120.27099274 101.42421967 120.27375793 102.25248718 C120.27780501 105.02263588 120.2646839 107.79239028 120.25 110.5625 C120.2478952 111.54077759 120.24579041 112.51905518 120.24362183 113.52697754 C120.1831061 138.43789678 119.59274397 163.34568186 119.0625 188.25 C119.04075211 189.2807024 119.01900421 190.3114048 118.99659729 191.37334061 C118.86862941 197.42808705 118.73677948 203.48272892 118.59949303 209.5372715 C118.55750242 211.39956625 118.51631882 213.26187942 118.47605324 215.12421227 C118.26715454 224.71350175 117.99320016 234.29915496 117.57592773 243.88183594 C117.54500314 244.70191257 117.51407854 245.52198921 117.48221684 246.36691666 C117.18809059 252.56689533 116.38945287 258.65662724 113 264 C104.90408547 271.13729546 94.4819923 273.68772281 84.140625 275.8671875 C83.04492691 276.10782425 81.94922882 276.348461 80.82032776 276.59638977 C77.299191 277.36701616 73.77486085 278.12160857 70.25 278.875 C67.81190479 279.40318425 65.37399869 279.93224214 62.9362793 280.4621582 C59.30768215 281.25034734 55.67884348 282.03726107 52.0488739 282.81910706 C45.3546505 284.26191617 38.67287999 285.74558453 32.00390625 287.30078125 C7.92841153 292.87838061 7.92841153 292.87838061 -3.17651367 292.56323242 C-8.26760626 292.50204289 -11.12432461 293.92373332 -15.140625 296.79125977 C-17.95678419 298.6219851 -20.74467203 299.25398734 -24 300 C-24 300.66 -24 301.32 -24 302 C-71.51509443 323.17754209 -120.94705688 326.48895831 -170.03173828 308.16699219 C-176.62567217 305.57454245 -182.83173596 302.47234444 -189 299 C-190.53527344 298.17435547 -190.53527344 298.17435547 -192.1015625 297.33203125 C-205.40929973 289.94079461 -217.07086268 280.52254739 -228 270 C-228.680625 269.38253906 -229.36125 268.76507812 -230.0625 268.12890625 C-250.19699011 249.29476863 -270.11785286 217.42779291 -275 190 C-274.67 189.01 -274.34 188.02 -274 187 C-273.41081787 187.4132251 -272.82163574 187.8264502 -272.21459961 188.25219727 C-267.60970941 191.47908341 -262.99941849 194.69785953 -258.37890625 197.90234375 C-257.42306641 198.56556641 -256.46722656 199.22878906 -255.48242188 199.91210938 C-253.54027381 201.25927161 -251.59756772 202.60562974 -249.65429688 203.95117188 C-241.46188929 209.63896462 -233.39722202 215.48935804 -225.375 221.4140625 C-208.55960663 234.72122514 -208.55960663 234.72122514 -188 237 C-182.47469642 235.38641577 -178.37785685 232.71454521 -174 229 C-173.34 229 -172.68 229 -172 229 C-171.67708984 228.21302734 -171.67708984 228.21302734 -171.34765625 227.41015625 C-169.47144128 224.05472252 -166.96537744 221.30882415 -164.4375 218.4375 C-159.77751386 213.08727584 -155.25363624 207.66565753 -150.83984375 202.109375 C-149 200 -149 200 -146 198 C-145.2127788 195.25421738 -144.6275914 192.64923336 -144.125 189.84765625 C-143.95991943 188.9758522 -143.79483887 188.10404816 -143.62475586 187.20582581 C-140.99262305 172.97467676 -138.88217539 158.64566672 -136.67712402 144.34326172 C-132.17839823 115.17218237 -132.17839823 115.17218237 -129.83984375 103.875 C-129.68874146 103.13491196 -129.53763916 102.39482391 -129.38195801 101.63230896 C-125.78049899 85.02795664 -110.62803095 75.03766562 -98 65 C-97.071875 64.2575 -96.14375 63.515 -95.1875 62.75 C-94.465625 62.1725 -93.74375 61.595 -93 61 C-93.33 60.67 -93.66 60.34 -94 60 C-94.08726223 58.21928754 -94.10699041 56.4351686 -94.09765625 54.65234375 C-94.09443359 53.57275391 -94.09121094 52.49316406 -94.08789062 51.38085938 C-94.07951172 50.24455078 -94.07113281 49.10824219 -94.0625 47.9375 C-94.05798828 46.79732422 -94.05347656 45.65714844 -94.04882812 44.48242188 C-94.03699747 41.65489649 -94.0205141 38.8274736 -94 36 C-95.32 36 -96.64 36 -98 36 C-98.20625 36.5775 -98.4125 37.155 -98.625 37.75 C-100.88790945 41.45294273 -104.54328956 43.1708741 -108.23046875 45.26953125 C-114.21169963 48.72133858 -119.4122718 52.64334715 -124.65234375 57.14453125 C-127 59 -127 59 -130 60 C-128.95125002 57.37812506 -128.35068687 56.20628639 -125.875 54.75 C-125.25625 54.5025 -124.6375 54.255 -124 54 C-124 53.34 -124 52.68 -124 52 C-123 51 -122 50 -121 49 C-121 48.34 -121 47.68 -121 47 C-122.98 47.99 -122.98 47.99 -125 49 C-124.01 47.515 -124.01 47.515 -123 46 C-126.11288838 47.397341 -128.36895011 49.07023925 -130.875 51.375 C-134.09951612 54.26740303 -137.33039347 56.70649592 -141 59 C-141.66 58.67 -142.32 58.34 -143 58 C-135.66682903 51.67313279 -128.31134583 45.39120974 -120.7890625 39.2890625 C-117.59642512 36.66877468 -114.45458856 33.99294185 -111.3125 31.3125 C-106.66737449 27.3549843 -101.94009138 23.58398786 -97 20 C-96.7967206 17.24617626 -96.7967206 17.24617626 -98 14 C-105.30529649 6.58520228 -112.69281721 4.00153163 -122.76733398 2.83642578 C-127.83240924 2.22844549 -132.72476267 1.23353188 -137.6875 0.0625 C-144.03728009 -1.42675255 -150.35149587 -2.55244831 -156.8125 -3.4375 C-167.38580483 -4.89617512 -177.6665429 -7.36023723 -188 -10 C-186.04441189 -14.62350038 -182.9072055 -15.90121484 -178.5 -17.875 C-177.74315918 -18.22014648 -176.98631836 -18.56529297 -176.20654297 -18.92089844 C-118.78746769 -44.49042279 -50.47210805 -37.47240367 0 0 Z " fill="#F7F4F8" transform="translate(436,279)"/>
<path d="M0 0 C5.89294174 1.24593625 11.31180765 2.2493858 17.375 2 C18.365 2 19.355 2 20.375 2 C20.045 2.33 19.715 2.66 19.375 3 C33.84773436 7.09644924 48.34690959 9.73343483 63.21777344 11.87304688 C68.77998573 12.69628015 74.14944946 13.82799525 79.57421875 15.32421875 C82.74682181 16.08971433 85.88650191 16.47897795 89.125 16.875 C94.95598983 17.71795074 98.77784997 19.38496838 103.375 23 C103.9628125 23.40476562 104.550625 23.80953125 105.15625 24.2265625 C107.78385818 26.14769112 109.26254404 27.72739124 110.5078125 30.74609375 C110.375 34 110.375 34 109.0793457 35.60424805 C107.06114348 37.39023203 104.97228713 39.01301135 102.8125 40.625 C101.2345511 41.85923888 99.65774463 43.09493961 98.08203125 44.33203125 C97.28748535 44.94643066 96.49293945 45.56083008 95.67431641 46.19384766 C92.35911536 48.79799475 89.17760505 51.54350197 86 54.3125 C80.90005601 58.72074085 75.72893236 63.02182386 70.484375 67.2578125 C68.33395522 68.97777519 68.33395522 68.97777519 66.375 71 C71.91610713 67.59008792 76.58468493 63.38579957 81.375 59 C82.365 59.33 83.355 59.66 84.375 60 C84.375 60.33 84.375 60.66 84.375 61 C85.365 61 86.355 61 87.375 61 C86 63.5 86 63.5 84.375 66 C83.715 66 83.055 66 82.375 66 C82.375 66.66 82.375 67.32 82.375 68 C80.74946717 69.70680947 79.08384005 71.37660195 77.375 73 C78.16003906 72.40832031 78.94507813 71.81664062 79.75390625 71.20703125 C94.8775184 59.83184812 94.8775184 59.83184812 101.375 56 C105.53792572 53.6258073 105.53792572 53.6258073 108.375 50 C109.695 50 111.015 50 112.375 50 C112.375 57.92 112.375 65.84 112.375 74 C113.035 74.33 113.695 74.66 114.375 75 C113.385 75.85722656 112.395 76.71445312 111.375 77.59765625 C102.19290109 85.53013181 102.19290109 85.53013181 93.07421875 93.53515625 C91.91624421 94.53341016 90.72935203 95.49884801 89.51953125 96.43359375 C80.39248441 103.61457517 78.32388937 112.94652469 76.375 124 C76.12177836 125.37326972 75.86777249 126.74639503 75.61303711 128.11938477 C73.61685911 139.02605215 71.9524451 149.98235762 70.35083008 160.95288086 C68.62767183 172.69288497 66.62591423 184.37788821 64.5625 196.0625 C64.32383713 197.41406693 64.32383713 197.41406693 64.08035278 198.79293823 C63.18377421 203.86289391 62.28172531 208.93184963 61.375 214 C60.385 214 59.395 214 58.375 214 C56.37553668 216.05650507 54.56285947 218.10071442 52.75 220.3125 C52.21947021 220.94534912 51.68894043 221.57819824 51.14233398 222.23022461 C47.17739582 226.9741923 43.27150897 231.76910535 39.41015625 236.59765625 C36.08634743 240.52115419 32.52756209 244.06767759 28.4375 247.1875 C27.80972656 247.67605469 27.18195313 248.16460938 26.53515625 248.66796875 C19.99199753 252.70271943 12.82842696 252.94577828 5.375 252 C-3.55266496 248.90625472 -11.26154092 242.02164551 -18.75488281 236.39501953 C-21.58021154 234.28745709 -24.44185602 232.23272861 -27.3125 230.1875 C-27.86969727 229.79022705 -28.42689453 229.3929541 -29.00097656 228.98364258 C-38.65713906 222.11724687 -48.34698607 215.28955711 -58.125 208.59765625 C-61.30619509 206.41869992 -64.47303927 204.22093044 -67.625 202 C-68.37201172 201.4740625 -69.11902344 200.948125 -69.88867188 200.40625 C-93.94709985 183.36565595 -93.94709985 183.36565595 -96.92578125 172.4375 C-97.74525629 169.58078253 -98.84188284 166.92421992 -100 164.1875 C-100.42925781 163.17300781 -100.85851562 162.15851563 -101.30078125 161.11328125 C-101.95626953 159.57220703 -101.95626953 159.57220703 -102.625 158 C-105.31657025 151.58414222 -107.97161464 145.15743508 -110.54272461 138.69238281 C-113.78796944 130.61916828 -117.20632769 122.61653019 -120.62182617 114.61425781 C-122.52858026 110.13262572 -124.41166034 105.64116377 -126.29443359 101.14941406 C-127.47368677 98.35815424 -128.67961787 95.58053736 -129.89453125 92.8046875 C-134.10537564 82.96567005 -137.00570079 73.86713397 -133.765625 63.16015625 C-129.10960537 52.55654989 -119.70120895 47.60707587 -109.6796875 42.76953125 C-107.98672043 41.93297249 -107.98672043 41.93297249 -106.259552 41.07951355 C-103.28383779 39.61098144 -100.30360374 38.15265041 -97.32019043 36.69989014 C-93.1141029 34.64931316 -88.91613087 32.58223519 -84.71902466 30.51335144 C-82.49116734 29.41628887 -80.26085988 28.32418394 -78.02780151 27.23774719 C-72.97444717 24.75966431 -68.22968505 22.23400538 -63.625 19 C-61.97577401 18.29128576 -60.30732602 17.62610015 -58.625 17 C-56.1800937 15.88843006 -53.74357169 14.76589098 -51.3125 13.625 C-50.64968018 13.31554443 -49.98686035 13.00608887 -49.30395508 12.68725586 C-45.77672605 11.034124 -42.27905322 9.340383 -38.8125 7.5625 C-35.625 6 -35.625 6 -33.625 6 C-33.625 5.34 -33.625 4.68 -33.625 4 C-31.85502526 3.18563132 -30.08398848 2.3735706 -28.3125 1.5625 C-26.83330078 0.88380859 -26.83330078 0.88380859 -25.32421875 0.19140625 C-16.82099944 -3.56182369 -8.82552742 -1.88210095 0 0 Z " fill="#82E2ED" transform="translate(229.625,265)"/>
<path d="M0 0 C42.06060606 0 42.06060606 0 52 8 C52.969375 8.680625 53.93875 9.36125 54.9375 10.0625 C62.02936952 16.14657753 66.08917234 25.01910998 68 34 C68.18175781 34.84046875 68.36351562 35.6809375 68.55078125 36.546875 C70.91193905 54.69699237 70.5390037 74.92485 59 90 C51.00896756 99.53287065 42.21654913 103.2547787 30 105 C20.1 105 10.2 105 0 105 C0 70.35 0 35.7 0 0 Z " fill="#FCFCFE" transform="translate(221,668)"/>
<path d="M0 0 C17.82 0 35.64 0 54 0 C54 6.27 54 12.54 54 19 C42.78 19 31.56 19 20 19 C20 26.92 20 34.84 20 43 C29.9 43 39.8 43 50 43 C50 48.94 50 54.88 50 61 C40.1 61 30.2 61 20 61 C20 69.25 20 77.5 20 86 C31.55 86 43.1 86 55 86 C55 92.27 55 98.54 55 105 C36.85 105 18.7 105 0 105 C0 70.35 0 35.7 0 0 Z " fill="#FBFCFE" transform="translate(390,668)"/>
<path d="M0 0 C0.94875 0.7425 1.8975 1.485 2.875 2.25 C2.29500976 6.51029191 -0.24887893 9.60161535 -2.6875 13 C-3.11224609 13.60199219 -3.53699219 14.20398438 -3.97460938 14.82421875 C-5.01935522 16.30329714 -6.07146016 17.77717259 -7.125 19.25 C-9.66844168 18.04349562 -11.61984681 16.86761838 -13.875 15.125 C-17.86729027 12.82175561 -20.6240715 12.37507001 -25.125 13.25 C-31.25183784 16.25335188 -34.75473923 21.02988718 -37.375 27.1875 C-40.20007435 38.72322028 -41.12164049 53.91861589 -37.125 65.25 C-36.856875 66.02730469 -36.58875 66.80460938 -36.3125 67.60546875 C-33.95098358 73.63717528 -31.03142829 77.29678585 -25.125 80.25 C-18.93839181 80.42969401 -14.79871171 78.88510911 -9.94921875 75.11328125 C-8.125 74.25 -8.125 74.25 -6.13671875 74.76953125 C-3.49033744 76.71706235 -2.03090828 78.86865648 -0.25 81.625 C0.38679688 82.58148437 1.02359375 83.53796875 1.6796875 84.5234375 C2.875 87.25 2.875 87.25 2.3203125 89.41015625 C-2.58891896 95.65947522 -10.50467859 98.84100375 -18.125 100.25 C-27.59508636 101.31372265 -36.58997635 99.20792568 -44.125 93.25 C-53.74059391 84.83635533 -58.33523894 73.71631993 -60.125 61.25 C-60.33372687 57.04699993 -60.35293957 52.8470581 -60.36523438 48.63916016 C-60.37487275 46.6512446 -60.40604299 44.66347127 -60.4375 42.67578125 C-60.49727101 27.74797171 -57.21395546 14.08843299 -46.88671875 2.8125 C-33.28108337 -9.25458238 -14.81380869 -10.37853663 0 0 Z " fill="#FCFCFE" transform="translate(383.125,673.75)"/>
<path d="M0 0 C-1.17564531 3.52693593 -2.29688275 3.95378344 -5.48072815 5.59983826 C-6.43192787 6.07248863 -6.43192787 6.07248863 -7.40234375 6.5546875 C-8.06294296 6.89254776 -8.72354218 7.23040802 -9.40415955 7.57850647 C-11.57725096 8.68684649 -13.75719261 9.7809331 -15.9375 10.875 C-17.4452333 11.64055229 -18.95255457 12.40691655 -20.45947266 13.17407227 C-24.96577148 15.46381051 -29.48122656 17.73499629 -34 20 C-34.64555847 20.3236554 -35.29111694 20.64731079 -35.95623779 20.98077393 C-40.98590273 23.50100535 -46.01878472 26.01473409 -51.05639648 28.51904297 C-58.36741399 32.15925429 -65.61694479 35.90222692 -72.82714844 39.73803711 C-77.62784772 42.29154379 -82.46172572 44.74669446 -87.3828125 47.0625 C-89.18309086 47.90825379 -89.18309086 47.90825379 -90 50 C-88.2365625 50.5259375 -88.2365625 50.5259375 -86.4375 51.0625 C-80.84290834 52.93025964 -75.59234887 55.45734034 -70.2734375 57.984375 C-65.64845938 60.17891305 -60.9835701 62.28074391 -56.3125 64.375 C-55.46324951 64.75640137 -54.61399902 65.13780273 -53.73901367 65.53076172 C-49.5816602 67.39681762 -45.42225581 69.25824256 -41.26171875 71.1171875 C-31.223778 75.60917892 -21.22659844 80.18613401 -11.25 84.8125 C-10.05955078 85.36389648 -8.86910156 85.91529297 -7.64257812 86.48339844 C-1.71608052 89.23799145 4.17469465 92.03712917 10 95 C10 99 10 99 8 102 C2.54520815 101.43179252 -1.91059256 100.05362055 -7 98 C-6.67 98.99 -6.34 99.98 -6 101 C-12.37899161 101 -17.74446242 100.87695815 -23.4765625 97.82421875 C-29.6317246 94.64569622 -35.92460418 91.82139647 -42.25 89 C-42.86662506 88.72431183 -43.48325012 88.44862366 -44.11856079 88.1645813 C-54.11551177 83.69584662 -64.14207707 79.29608513 -74.1875 74.9375 C-74.81184937 74.66623291 -75.43619873 74.39496582 -76.07946777 74.11547852 C-80.04599691 72.39368423 -84.01974508 70.68980642 -88 69 C-88.97018066 68.58508301 -89.94036133 68.17016602 -90.93994141 67.74267578 C-91.82214355 67.37513184 -92.7043457 67.00758789 -93.61328125 66.62890625 C-94.74890503 66.15239624 -94.74890503 66.15239624 -95.9074707 65.66625977 C-98.26923767 64.79773881 -98.26923767 64.79773881 -102 65 C-102.33 65.99 -102.66 66.98 -103 68 C-101.70835938 68.17789063 -101.70835938 68.17789063 -100.390625 68.359375 C-92.02553793 69.93987532 -84.23521473 73.78683577 -76.72265625 77.68359375 C-72.76879924 79.59528645 -68.68919681 81.16765304 -64.60253906 82.76708984 C-60.80400772 84.25984939 -57.07451848 85.83965855 -53.375 87.5625 C-49.46918432 89.37632835 -45.52887323 90.97850787 -41.5 92.5 C-36.54224944 94.37448519 -31.72751365 96.43185757 -26.921875 98.6640625 C-21.33018525 101.2206907 -15.65865901 103.59610252 -10 106 C-10 106.33 -10 106.66 -10 107 C-11.98 107 -13.96 107 -16 107 C-16 106.34 -16 105.68 -16 105 C-16.51304687 104.88914062 -17.02609375 104.77828125 -17.5546875 104.6640625 C-20.82436339 103.77613135 -23.9612615 102.57719744 -27.125 101.375 C-27.82004639 101.11211182 -28.51509277 100.84922363 -29.23120117 100.57836914 C-31.48873947 99.72221739 -33.74449319 98.86148823 -36 98 C-36.76876465 97.70754395 -37.5375293 97.41508789 -38.32958984 97.11376953 C-40.65894525 96.22609494 -42.98604548 95.33274702 -45.3125 94.4375 C-46.01584473 94.16921387 -46.71918945 93.90092773 -47.44384766 93.62451172 C-51.44105772 92.07657707 -55.3497058 90.40140376 -59.2421875 88.60546875 C-65.34495458 85.80083567 -71.56249127 83.32995838 -77.8125 80.875 C-89.90829045 76.12231774 -89.90829045 76.12231774 -93.58984375 74.2109375 C-96.30497708 72.84677003 -98.0008083 72.66675648 -101 73 C-101.99 73.495 -101.99 73.495 -103 74 C-103 73.34 -103 72.68 -103 72 C-103.66 72 -104.32 72 -105 72 C-105.59801761 64.58458162 -104.46132705 59.07855811 -100 53 C-94.16275296 46.97550851 -87.54744766 43.38640337 -80.0546875 39.76953125 C-78.36172043 38.93297249 -78.36172043 38.93297249 -76.634552 38.07951355 C-73.65883779 36.61098144 -70.67860374 35.15265041 -67.69519043 33.69989014 C-63.4891029 31.64931316 -59.29113087 29.58223519 -55.09402466 27.51335144 C-52.86616734 26.41628887 -50.63585988 25.32418394 -48.40280151 24.23774719 C-43.34944717 21.75966431 -38.60468505 19.23400538 -34 16 C-32.35077401 15.29128576 -30.68232602 14.62610015 -29 14 C-26.5550937 12.88843006 -24.11857169 11.76589098 -21.6875 10.625 C-21.02468018 10.31554443 -20.36186035 10.00608887 -19.67895508 9.68725586 C-16.15172605 8.034124 -12.65405322 6.340383 -9.1875 4.5625 C-6 3 -6 3 -4 3 C-4 2.34 -4 1.68 -4 1 C-2 0 -2 0 0 0 Z " fill="#92FAFD" transform="translate(200,268)"/>
<path d="M0 0 C6.27 0 12.54 0 19 0 C19 34.32 19 68.64 19 104 C12.73 104 6.46 104 0 104 C0 69.68 0 35.36 0 0 Z " fill="#FEFEFE" transform="translate(297,668)"/>
<path d="M0 0 C9.48512235 0 14.55689343 0.37726595 21.6328125 6.38671875 C30.42351388 15.99332356 29.55282857 30.77400952 29.13183594 42.92822266 C28.61816118 51.00052633 25.22783662 57.90292689 20 64 C13.26663151 69.63404303 9.9334933 68 0 68 C0 45.56 0 23.12 0 0 Z " fill="#6E7BEC" transform="translate(241,686)"/>
<path d="M0 0 C5.9224719 1.94501845 9.46143393 4.94490561 13 10 C13.8971875 11.2684375 13.8971875 11.2684375 14.8125 12.5625 C17.07336818 19.10711842 17.2634516 26.23012533 14.375 32.5625 C10.47824411 36.56180209 7.75057347 38.7458845 2.125 39.5625 C-2.79107362 39.26228176 -6.37186423 37.25410115 -10 34 C-16.20785538 26.3108776 -17.93960312 19.85278271 -17 10 C-13.44775574 2.63238227 -8.36497388 -1.51248605 0 0 Z " fill="#281441" transform="translate(431,436)"/>
<path d="M0 0 C5.85765695 2.76304573 10.09417737 7.79475284 13.375 13.3125 C14.70549437 19.03362581 14.92817219 24.10927887 12.3125 29.4375 C8.95357275 33.15955452 6.68221109 34.74608134 1.6875 35.5 C-4.22037045 34.69893282 -8.20164724 31.84695689 -12.3125 27.625 C-16.88543383 20.51154737 -18.11755688 14.47180214 -17 6 C-12.87571361 -1.01128686 -7.5358774 -0.74824315 0 0 Z " fill="#30174D" transform="translate(441,341)"/>
<path d="M0 0 C5.42138125 1.80712708 8.84746932 5.34716858 12 10 C14.54950552 15.28050127 14.54993403 20.23838343 14 26 C12.45234759 30.33342674 10.8603513 32.56659998 7 35 C2.72965511 35.93686138 -1.30290512 35.79062611 -5.2890625 33.93359375 C-11.27094569 29.82244931 -13.76005425 24.71983724 -16 18 C-16.53358516 12.91782005 -16.56704491 9.09498327 -14.1875 4.5 C-9.80870687 -0.504335 -6.26566758 -0.66747662 0 0 Z " fill="#331853" transform="translate(479,403)"/>
<path d="M0 0 C5.46703344 1.85879137 8.84436966 5.28615468 12 10 C14.43306669 15.86147884 15.41996884 23.01823171 13.2421875 29.125 C11.91731025 31.62870503 10.4428782 33.63620719 8.25 35.4375 C3.07979425 36.73005144 -0.57532934 36.73973284 -5.25 34.3125 C-10.73468158 29.7003814 -14.44314977 24.54872835 -15.32421875 17.3515625 C-15.57657113 10.999244 -14.80883445 7.11472054 -11 2 C-7.26653234 -0.48897844 -4.32092573 -0.51028075 0 0 Z " fill="#331953" transform="translate(517,464)"/>
<path d="M0 0 C7.13271046 1.58655347 10.96832081 6.25296812 14.8046875 12.14453125 C16.72782604 17.24084839 17.21123928 22.44891066 15.22265625 27.62109375 C13.81119774 30.19026541 12.72564858 32.12155071 10.0546875 33.45703125 C5.73063006 34.34378299 2.37761537 34.27529433 -1.43359375 31.91796875 C-7.00324003 27.19607551 -10.41145651 23.00401159 -11.28515625 15.5625 C-11.52186323 10.88032047 -11.72705292 6.66349313 -8.9453125 2.70703125 C-5.80896613 0.35477147 -3.92970804 -0.31882537 0 0 Z " fill="#3E1F66" transform="translate(517.9453125,372.54296875)"/>
<path d="M0 0 C0.66 0.33 1.32 0.66 2 1 C1.67 1.33 1.34 1.66 1 2 C2.61068359 1.96519531 2.61068359 1.96519531 4.25390625 1.9296875 C5.69009715 1.91091376 7.12629565 1.8927153 8.5625 1.875 C9.26697266 1.85824219 9.97144531 1.84148437 10.69726562 1.82421875 C15.45242377 1.78039241 19.48325797 2.32333061 24 4 C25.88850655 6.43678265 27 7.89413052 27 11 C27.66 11 28.32 11 29 11 C29.66 11.66 30.32 12.32 31 13 C34.3 10.69 37.6 8.38 41 6 C41.66 6.33 42.32 6.66 43 7 C42.19175781 7.60328125 41.38351562 8.2065625 40.55078125 8.828125 C39.47132158 9.6353731 38.39189633 10.44266722 37.3125 11.25 C35.72888672 12.43335938 35.72888672 12.43335938 34.11328125 13.640625 C31.06380523 15.85982119 31.06380523 15.85982119 28.77832031 18.11645508 C25.29625894 20.47709686 22.49669644 20.56287669 18.43359375 20.49609375 C17.7176857 20.49754898 17.00177765 20.49900421 16.26417542 20.50050354 C14.75721142 20.49884992 13.2502296 20.48734871 11.7434082 20.46655273 C9.44083825 20.43754206 7.14056567 20.44596381 4.83789062 20.45898438 C3.36978052 20.45274775 1.90167765 20.44435739 0.43359375 20.43359375 C-0.5946627 20.43799721 -0.5946627 20.43799721 -1.64369202 20.44248962 C-5.82830298 20.3601011 -7.80590775 19.61474719 -11 17 C-14.11785113 17.64644661 -14.11785113 17.64644661 -15 20 C-15.66 20 -16.32 20 -17 20 C-16.25749403 15.91621717 -15.17076699 11.98060777 -14 8 C-13.01 8.33 -12.02 8.66 -11 9 C-10.2575 8.195625 -9.515 7.39125 -8.75 6.5625 C-6.24695171 4.23011409 -5.2819045 3.36465606 -2 3 C-2 2.34 -2 1.68 -2 1 C-1.34 0.67 -0.68 0.34 0 0 Z " fill="#C7FEFF" transform="translate(219,366)"/>
<path d="M0 0 C0.69931641 -0.020625 1.39863281 -0.04125 2.11914062 -0.0625 C6.91804328 -0.09841321 10.11040737 0.73914475 14.1875 3.25 C16.1875 5.25 16.1875 5.25 16.75 8 C16.04077441 12.09774783 14.80222438 13.3753126 11.56640625 15.859375 C3.70869678 20.45271584 -5.78316691 22.60789971 -14.8125 21.25 C-17.93257321 20.40089795 -20.39674501 19.42991612 -22.8125 17.25 C-24.125 13.8125 -24.125 13.8125 -23.8125 10.25 C-18.25011049 2.53442746 -9.03755566 0.06554891 0 0 Z " fill="#1D252D" transform="translate(220.8125,320.75)"/>
<path d="M0 0 C2.875 0.875 2.875 0.875 4.875 3.875 C6.36540623 13.34004737 2.92123549 22.30055243 -2.515625 29.890625 C-5.44209373 33.49898936 -8.09298265 36.44969404 -12.8125 37.4375 C-15.89200483 36.68843126 -16.48810179 35.53842759 -18.125 32.875 C-19.76367525 24.59304672 -16.93519734 16.19787897 -12.44140625 9.28515625 C-5.28437697 -0.21137508 -5.28437697 -0.21137508 0 0 Z " fill="#24394B" transform="translate(285.125,387.125)"/>
<path d="M0 0 C8.05559257 1.04424348 13.28306015 6.88908276 18.38671875 12.8125 C21.94570205 17.51119701 24.09786426 21.94327832 24.75 27.8125 C24.375 30.4375 24.375 30.4375 22.375 33.4375 C18.33208438 33.98173864 16.00916264 33.76779304 12.375 31.875 C6.09600352 26.77331536 1.28911644 21.54741188 -2.625 14.4375 C-2.99496094 13.78394531 -3.36492187 13.13039063 -3.74609375 12.45703125 C-5.23637838 9.03268834 -4.86413941 6.14416082 -4.625 2.4375 C-2.625 0.4375 -2.625 0.4375 0 0 Z " fill="#091017" transform="translate(174.625,398.5625)"/>
<path d="M0 0 C3.75896514 3.15835914 4.07992038 6.40398725 4.79296875 11.10546875 C5.21844386 19.10921746 4.0185145 27.07125632 3 35 C2.67 35 2.34 35 2 35 C2 29.39 2 23.78 2 18 C0.68 18 -0.64 18 -2 18 C-2.20625 18.5775 -2.4125 19.155 -2.625 19.75 C-4.88790945 23.45294273 -8.54328956 25.1708741 -12.23046875 27.26953125 C-18.21169963 30.72133858 -23.4122718 34.64334715 -28.65234375 39.14453125 C-31 41 -31 41 -34 42 C-32.95125002 39.37812506 -32.35068687 38.20628639 -29.875 36.75 C-29.25625 36.5025 -28.6375 36.255 -28 36 C-28 35.34 -28 34.68 -28 34 C-27 33 -26 32 -25 31 C-25 30.34 -25 29.68 -25 29 C-26.98 29.99 -26.98 29.99 -29 31 C-28.34 30.01 -27.68 29.02 -27 28 C-30.11288838 29.397341 -32.36895011 31.07023925 -34.875 33.375 C-38.09951612 36.26740303 -41.33039347 38.70649592 -45 41 C-45.66 40.67 -46.32 40.34 -47 40 C-39.66682903 33.67313279 -32.31134583 27.39120974 -24.7890625 21.2890625 C-21.03388553 18.20708253 -17.34611542 15.04817059 -13.65112305 11.89453125 C-10.00801402 8.80347516 -6.28941075 5.88136853 -2.390625 3.12109375 C-0.84300327 2.0323767 -0.84300327 2.0323767 0 0 Z " fill="#C3FBFC" transform="translate(340,297)"/>
<path d="M0 0 C1.875 0.6875 1.875 0.6875 2.875 1.6875 C3.76382811 13.26293581 1.58039421 26.93258122 -6.12109375 36.05078125 C-8.125 37.6875 -8.125 37.6875 -10.8125 37.5625 C-13.125 36.6875 -13.125 36.6875 -14.125 34.6875 C-15.01342453 21.97619518 -13.3876459 11.67153046 -5.125 1.6875 C-2.125 -0.3125 -2.125 -0.3125 0 0 Z " fill="#61309E" transform="translate(354.125,436.3125)"/>
<path d="M0 0 C0.66 0.33 1.32 0.66 2 1 C1.45730469 1.42410156 0.91460937 1.84820312 0.35546875 2.28515625 C-4.40708273 6.18959035 -7.08230551 9.12706064 -9 15 C-8.05125 15.0825 -7.1025 15.165 -6.125 15.25 C1.97375362 16.40929739 9.61373622 20.64585123 17 24 C17 24.99 17 25.98 17 27 C18.24523437 27.39316406 19.49046875 27.78632813 20.7734375 28.19140625 C26.53506169 30.11382684 32.06507765 32.50141423 37.625 34.9375 C39.12160156 35.58235352 39.12160156 35.58235352 40.6484375 36.24023438 C45.96402139 38.55701333 51.03491054 41.00286617 56 44 C55.01 44.495 55.01 44.495 54 45 C51.77050781 44.21826172 51.77050781 44.21826172 48.953125 42.9296875 C47.89448242 42.45120361 46.83583984 41.97271973 45.74511719 41.47973633 C44.59172852 40.95017334 43.43833984 40.42061035 42.25 39.875 C40.43314525 39.05549146 38.61627416 38.2360177 36.79864502 37.41822815 C34.86755987 36.5489907 32.93767881 35.67711543 31.0078125 34.80517578 C24.92662946 32.06226846 18.8303205 29.35448762 12.71960449 26.67803955 C11.415108 26.10478065 10.11210014 25.52812122 8.81066895 24.94793701 C6.9763355 24.13034805 5.13668253 23.32472637 3.296875 22.51953125 C2.24854492 22.05651611 1.20021484 21.59350098 0.12011719 21.11645508 C-3.25914011 19.90727326 -6.4402163 19.39251623 -10 19 C-10.33 19.99 -10.66 20.98 -11 22 C-10.13890625 22.11859375 -9.2778125 22.2371875 -8.390625 22.359375 C-0.02553793 23.93987532 7.76478527 27.78683577 15.27734375 31.68359375 C19.23120076 33.59528645 23.31080319 35.16765304 27.39746094 36.76708984 C31.19599228 38.25984939 34.92548152 39.83965855 38.625 41.5625 C42.53081568 43.37632835 46.47112677 44.97850787 50.5 46.5 C55.45775056 48.37448519 60.27248635 50.43185757 65.078125 52.6640625 C70.66981475 55.2206907 76.34134099 57.59610252 82 60 C82 60.33 82 60.66 82 61 C80.02 61 78.04 61 76 61 C76 60.34 76 59.68 76 59 C75.48695313 58.88914062 74.97390625 58.77828125 74.4453125 58.6640625 C71.17563661 57.77613135 68.0387385 56.57719744 64.875 55.375 C64.17995361 55.11211182 63.48490723 54.84922363 62.76879883 54.57836914 C60.51126053 53.72221739 58.25550681 52.86148823 56 52 C55.23123535 51.70754395 54.4624707 51.41508789 53.67041016 51.11376953 C51.34105475 50.22609494 49.01395452 49.33274702 46.6875 48.4375 C45.98415527 48.16921387 45.28081055 47.90092773 44.55615234 47.62451172 C40.55894228 46.07657707 36.6502942 44.40140376 32.7578125 42.60546875 C26.65504542 39.80083567 20.43750873 37.32995838 14.1875 34.875 C2.09170955 30.12231774 2.09170955 30.12231774 -1.58984375 28.2109375 C-4.30497708 26.84677003 -6.0008083 26.66675648 -9 27 C-9.66 27.33 -10.32 27.66 -11 28 C-11 27.34 -11 26.68 -11 26 C-11.66 26 -12.32 26 -13 26 C-13.6080493 18.46018866 -12.33929584 13.26672653 -8 7 C-5.50382009 4.41615388 -2.87320669 2.15312263 0 0 Z " fill="#B1FBFE" transform="translate(108,314)"/>
<path d="M0 0 C0.66 1.32 1.32 2.64 2 4 C2.33 3.505 2.66 3.01 3 2.5 C5.52957336 0.60281998 7.66450402 0.33332239 10.796875 0.4609375 C15.24960403 1.55043503 18.26837631 4.42528258 21 8 C22.28100863 11.07210214 22.22379095 12.53124027 22 16 C20.1875 19 20.1875 19 18 21 C17.34 21 16.68 21 16 21 C15.01 23.475 15.01 23.475 14 26 C14.61488281 25.7834375 15.22976563 25.566875 15.86328125 25.34375 C16.67152344 25.0653125 17.47976563 24.786875 18.3125 24.5 C19.11300781 24.2215625 19.91351562 23.943125 20.73828125 23.65625 C23 23 23 23 26 23 C23.01575291 26.11989469 21.718261 26.94014492 17.25 27.3125 C12.82744347 27.24840498 10.41515311 25.8718333 7 23 C1.80286948 17.5058906 -0.17795832 12.4954662 -0.1875 5.0625 C-0.1397912 3.37451707 -0.0823499 1.68664786 0 0 Z " fill="#4E2683" transform="translate(502,473)"/>
<path d="M0 0 C0.78310547 0.73089844 0.78310547 0.73089844 1.58203125 1.4765625 C1.32252636 4.59062121 0.85120288 6.17026375 -1.23046875 8.5390625 C-9.38179684 13.49379134 -18.88921192 16.06947215 -28.41796875 14.4765625 C-30.76171875 12.94921875 -30.76171875 12.94921875 -32.41796875 11.4765625 C-32.29296875 8.7265625 -32.29296875 8.7265625 -31.41796875 5.4765625 C-24.03879233 -0.98021687 -8.83308212 -5.56526984 0 0 Z " fill="#101A24" transform="translate(165.41796875,302.5234375)"/>
<path d="M0 0 C1.27746094 -0.02578125 2.55492187 -0.0515625 3.87109375 -0.078125 C7.83315857 0.27405854 10.22579354 1.11470979 13.5625 3.25 C14.4375 5.9375 14.4375 5.9375 14.5625 8.25 C8.44789262 13.80873398 1.93887315 14.61088645 -6 14.625 C-7.09344727 14.66173828 -7.09344727 14.66173828 -8.20898438 14.69921875 C-13.53899787 14.7280037 -16.27420996 13.5780012 -20.4375 10.25 C-20.375 8 -20.375 8 -19.4375 5.25 C-13.05550398 0.83169507 -7.74652817 0.09361363 0 0 Z " fill="#0D151E" transform="translate(282.4375,281.75)"/>
<path d="M0 0 C0.68964844 -0.01611328 1.37929687 -0.03222656 2.08984375 -0.04882812 C6.54257431 -0.05308504 9.2889478 0.66830976 12.875 3.3125 C12.75 5.5625 12.75 5.5625 11.875 8.3125 C6.21823099 13.37381964 -1.82252125 15.36249106 -9.3125 15.6875 C-13.77223188 15.24883785 -17.01923275 14.07211453 -21.125 12.3125 C-21.5 10.125 -21.5 10.125 -21.125 7.3125 C-15.17041658 1.0674491 -8.36433546 -0.039529 0 0 Z " fill="#62676D" transform="translate(220.125,291.6875)"/>
<path d="M0 0 C2.375 0.25 2.375 0.25 3.375 1.25 C3.69085253 7.01746718 3.03322444 11.71765431 1.25 17.1875 C1.02771729 17.88045166 0.80543457 18.57340332 0.57641602 19.28735352 C-1.26336668 24.73283008 -3.46200515 30.15088742 -7.625 34.25 C-9.68359375 35.09765625 -9.68359375 35.09765625 -11.625 35.25 C-14.25776353 32.61723647 -13.92344863 31.35490842 -13.9375 27.6875 C-13.75475891 18.11643529 -10.42944282 8.85937565 -4.1328125 1.5078125 C-2.625 0.25 -2.625 0.25 0 0 Z " fill="#6A36AA" transform="translate(366.625,342.75)"/>
<path d="M0 0 C0.33 0 0.66 0 1 0 C1.33 1.98 1.66 3.96 2 6 C2.495 5.175 2.99 4.35 3.5 3.5 C6.17017416 0.82982584 6.4799084 0.62160602 10 0.5625 C13.07529253 0.76828166 15.45956336 1.14352707 18 3 C20.45302403 6.67953604 20.29890995 8.68197465 20.3125 13.0625 C20.33763672 14.93615234 20.33763672 14.93615234 20.36328125 16.84765625 C20.24339844 17.88792969 20.12351562 18.92820312 20 20 C16.91111478 22.05925681 16.29064073 22.2390374 12.8125 22.125 C11.554375 22.08375 10.29625 22.0425 9 22 C9.66 23.32 10.32 24.64 11 26 C7.39588346 24.55366256 5.88597432 22.80863332 3.8125 19.5625 C3.30332031 18.78003906 2.79414063 17.99757813 2.26953125 17.19140625 C0.01079267 13.29247595 -0.1100782 10.23727221 -0.0625 5.8125 C-0.05347656 4.72582031 -0.04445313 3.63914062 -0.03515625 2.51953125 C-0.02355469 1.68808594 -0.01195312 0.85664063 0 0 Z " fill="#472475" transform="translate(414,446)"/>
<path d="M0 0 C5.88717481 0.65413053 9.10140633 3.76239818 13 8 C18.2695759 15.35313182 21.14447638 20.0424643 21 29 C19 29.875 19 29.875 16 30 C7.52056851 25.99089641 2.92216293 17.23553602 -1 9.125 C-2.05107076 5.84040387 -2.13787489 4.22397886 -1 1 C-0.67 0.67 -0.34 0.34 0 0 Z " fill="#13202C" transform="translate(113,366)"/>
<path d="M0 0 C5.28580306 -0.08564959 9.06405554 0.54651557 13.1875 4 C18.43395396 9.0893745 22.62196764 15.06026133 25 22 C24.625 24.3125 24.625 24.3125 24 26 C21.15390541 26.55684459 19.76498767 26.72427996 17 26 C9.8463737 20.8730519 3.35586528 14.22186993 0 6 C-0.1875 2.625 -0.1875 2.625 0 0 Z " fill="#090E14" transform="translate(190,469)"/>
<path d="M0 0 C1.33332095 2.6666419 0.67102033 4.16680303 0 7 C0.66 6.67 1.32 6.34 2 6 C7.34709374 5.6493709 10.62872307 5.55596363 15 9 C16.29004296 11.58008592 16.20410224 13.55741574 16.25 16.4375 C16.27578125 17.40558594 16.3015625 18.37367188 16.328125 19.37109375 C16 22 16 22 14.68359375 23.8046875 C12.26551448 25.52146767 9.90360228 25.67737752 7 26 C7.33 27.32 7.66 28.64 8 30 C2.59420076 27.29710038 0.21395518 23.6707014 -2.25 18.25 C-3.55509971 12.59456791 -4.04986657 7.18722203 -1.5 1.875 C-1.005 1.25625 -0.51 0.6375 0 0 Z " fill="#612CA3" transform="translate(466,406)"/>
<path d="M0 0 C0.66 0.33 1.32 0.66 2 1 C1.67 1.33 1.34 1.66 1 2 C2.61068359 1.96519531 2.61068359 1.96519531 4.25390625 1.9296875 C5.69009715 1.91091376 7.12629565 1.8927153 8.5625 1.875 C9.26697266 1.85824219 9.97144531 1.84148437 10.69726562 1.82421875 C15.50509447 1.77990696 19.49501607 2.24902813 24 4 C24.495 5.485 24.495 5.485 25 7 C23.68 7 22.36 7 21 7 C21 6.34 21 5.68 21 5 C17.81151438 5.08168661 14.62483013 5.19445074 11.4375 5.3125 C10.54224609 5.33505859 9.64699219 5.35761719 8.72460938 5.38085938 C3.27992857 5.60024212 -2.88393453 5.88393453 -7 10 C-7.16666667 12.5 -7.16666667 12.5 -7 15 C-4.3465437 17.6534563 3.2282276 16.22998461 7.04541016 16.24023438 C9.2272818 16.24989937 11.40819509 16.28088906 13.58984375 16.3125 C14.98176524 16.31903409 16.37369347 16.32428297 17.765625 16.328125 C19.03180664 16.3374707 20.29798828 16.34681641 21.60253906 16.35644531 C25.26093321 15.97262414 27.0442315 15.12039325 30 13 C31.39798828 12.07960938 31.39798828 12.07960938 32.82421875 11.140625 C34.74330668 9.87345098 36.65995452 8.60257426 38.57421875 7.328125 C39.37472656 6.88984375 40.17523438 6.4515625 41 6 C41.66 6.33 42.32 6.66 43 7 C42.19175781 7.60328125 41.38351562 8.2065625 40.55078125 8.828125 C39.47132158 9.6353731 38.39189633 10.44266722 37.3125 11.25 C35.72888672 12.43335938 35.72888672 12.43335938 34.11328125 13.640625 C31.06380523 15.85982119 31.06380523 15.85982119 28.77832031 18.11645508 C25.29625894 20.47709686 22.49669644 20.56287669 18.43359375 20.49609375 C17.7176857 20.49754898 17.00177765 20.49900421 16.26417542 20.50050354 C14.75721142 20.49884992 13.2502296 20.48734871 11.7434082 20.46655273 C9.44083825 20.43754206 7.14056567 20.44596381 4.83789062 20.45898438 C3.36978052 20.45274775 1.90167765 20.44435739 0.43359375 20.43359375 C-0.5946627 20.43799721 -0.5946627 20.43799721 -1.64369202 20.44248962 C-5.82830298 20.3601011 -7.80590775 19.61474719 -11 17 C-14.11785113 17.64644661 -14.11785113 17.64644661 -15 20 C-15.66 20 -16.32 20 -17 20 C-16.25749403 15.91621717 -15.17076699 11.98060777 -14 8 C-13.01 8.33 -12.02 8.66 -11 9 C-10.2575 8.195625 -9.515 7.39125 -8.75 6.5625 C-6.24695171 4.23011409 -5.2819045 3.36465606 -2 3 C-2 2.34 -2 1.68 -2 1 C-1.34 0.67 -0.68 0.34 0 0 Z " fill="#92FAFC" transform="translate(219,366)"/>
<path d="M0 0 C1.15822266 0.08314453 1.15822266 0.08314453 2.33984375 0.16796875 C2.95906531 10.6775346 1.87593771 20.71311411 -3.66015625 29.91796875 C-5.70165925 32.21465962 -6.6270677 32.95131957 -9.66015625 33.16796875 C-13.27772677 26.67081209 -11.91894387 20.39043411 -9.97265625 13.54296875 C-5.5809529 0.35239497 -5.5809529 0.35239497 0 0 Z " fill="#6B33B0" transform="translate(309.66015625,462.83203125)"/>
<path d="M0 0 C5.55765595 1.80623819 5.55765595 1.80623819 7.828125 2.80078125 C13.96170977 5.43124139 20.06757947 6.36619305 26.49609375 4.1328125 C28.01239199 3.45060278 29.51385426 2.73364329 30.9921875 1.97265625 C32.98660472 1.00648915 34.83853482 0.46040178 37 0 C38.1875 1.6875 38.1875 1.6875 39 4 C37.67278906 7.62770989 36.36626344 8.80393857 32.95703125 10.62890625 C28.53686783 12.41585387 24.33965273 12.44278255 19.625 12.375 C18.82578125 12.38660156 18.0265625 12.39820313 17.203125 12.41015625 C11.46210326 12.38228721 6.21800996 11.49328716 1 9 C-1.1875 6.5625 -1.1875 6.5625 -2 4 C-1.1875 1.6875 -1.1875 1.6875 0 0 Z " fill="#8FF9FC" transform="translate(210,387)"/>
<path d="M0 0 C1.01964844 -0.02578125 2.03929687 -0.0515625 3.08984375 -0.078125 C6.45063891 0.29284319 8.31733679 1.32889131 11.0625 3.25 C10.83203125 5.11328125 10.83203125 5.11328125 10.0625 7.25 C8.13671875 8.48046875 8.13671875 8.48046875 5.75 9.4375 C4.97011719 9.76105469 4.19023437 10.08460938 3.38671875 10.41796875 C-0.83967185 11.93094555 -4.4270503 12.40930969 -8.9375 12.4375 C-9.96875 12.45167969 -11 12.46585937 -12.0625 12.48046875 C-14.90295203 12.25276947 -16.52857948 11.71504061 -18.9375 10.25 C-18.9375 8 -18.9375 8 -17.9375 5.25 C-12.39276967 1.39279629 -6.65991581 0.10078057 0 0 Z " fill="#464F57" transform="translate(216.9375,268.75)"/>
<path d="M0 0 C1.32 0.33 2.64 0.66 4 1 C4.22813138 6.83364534 3.6274575 11.52814836 1.8125 17.0625 C1.58836426 17.75988281 1.36422852 18.45726562 1.13330078 19.17578125 C-0.54043313 24.14675928 -2.34150762 28.14895539 -6 32 C-6.99 32 -7.98 32 -9 32 C-11.76338693 26.47322615 -10.09549788 19.50052835 -8.375 13.875 C-6.44003265 8.4877168 -3.77432648 4.27757001 0 0 Z " fill="#61319D" transform="translate(322,377)"/>
<path d="M0 0 C9.90899871 -0.36549585 19.5078875 -0.61413131 29.1875 1.8125 C29.86361328 1.97782227 30.53972656 2.14314453 31.23632812 2.31347656 C33.10546875 2.83203125 33.10546875 2.83203125 36 4 C36.495 5.485 36.495 5.485 37 7 C26.31587397 11.15126259 13.64927384 9.69672245 3 6 C1.65251108 5.36242974 0.31311945 4.7056483 -1 4 C-0.67 2.68 -0.34 1.36 0 0 Z " fill="#391E5B" transform="translate(376,522)"/>
<path d="M0 0 C3.00927826 0.07036082 4.42818194 0.39416672 7.25 1.6875 C9.9118098 5.18112536 9.7307191 7.68437045 9.62109375 11.97265625 C9.25 14.3125 9.25 14.3125 7.25 17.3125 C4.6484375 18.04296875 4.6484375 18.04296875 1.625 18.5 C0.62210938 18.65855469 -0.38078125 18.81710937 -1.4140625 18.98046875 C-2.57035156 19.14482422 -2.57035156 19.14482422 -3.75 19.3125 C-8.17857143 13.02678571 -8.17857143 13.02678571 -8.75 9.3125 C-8.09 8.9825 -7.43 8.6525 -6.75 8.3125 C-6.04508733 5.99043475 -5.37787571 3.65656932 -4.75 1.3125 C-3.75 0.3125 -3.75 0.3125 0 0 Z " fill="#51258A" transform="translate(515.75,380.6875)"/>
<path d="M0 0 C4.05119087 -0.08619555 6.09310555 0.28939646 9.328125 2.82421875 C19.70497181 12.94336241 19.70497181 12.94336241 20.25 20.4375 C20.12625 21.7059375 20.12625 21.7059375 20 23 C15.02402884 22.7572697 12.2943476 21.21728723 8.7421875 17.94140625 C4.18836954 12.86686023 0.36569678 6.94823882 0 0 Z " fill="#091017" transform="translate(137,433)"/>
<path d="M0 0 C12.04913942 -0.50204748 22.45269159 0.47602577 34 4 C34 4.99 34 5.98 34 7 C25.30651728 9.89782757 12.63914957 8.78209901 4 6 C0.9375 4.375 0.9375 4.375 -1 3 C-0.67 2.01 -0.34 1.02 0 0 Z " fill="#54317F" transform="translate(352,531)"/>
<path d="M0 0 C-1.17564531 3.52693593 -2.29688275 3.95378344 -5.48072815 5.59983826 C-6.43192787 6.07248863 -6.43192787 6.07248863 -7.40234375 6.5546875 C-8.06294296 6.89254776 -8.72354218 7.23040802 -9.40415955 7.57850647 C-11.57725096 8.68684649 -13.75719261 9.7809331 -15.9375 10.875 C-17.4452333 11.64055229 -18.95255457 12.40691655 -20.45947266 13.17407227 C-24.96577148 15.46381051 -29.48122656 17.73499629 -34 20 C-34.64555847 20.3236554 -35.29111694 20.64731079 -35.95623779 20.98077393 C-40.98502615 23.50056612 -46.01676714 26.01437695 -51.05419922 28.5168457 C-58.35674496 32.15081123 -65.59652889 35.88914675 -72.77880859 39.75561523 C-86.32286375 47 -86.32286375 47 -90 47 C-90 46.34 -90 45.68 -90 45 C-89.08037979 44.54352081 -89.08037979 44.54352081 -88.1421814 44.07781982 C-81.74811459 40.90295027 -75.35689636 37.72240111 -68.96728516 34.53857422 C-66.58410874 33.3514413 -64.19979929 32.16667105 -61.81494141 30.98291016 C-58.38253279 29.27886736 -54.95275519 27.56962792 -51.5234375 25.859375 C-50.46071625 25.33317566 -49.397995 24.80697632 -48.30307007 24.26483154 C-43.30014203 21.76374518 -38.58340615 19.2029065 -34 16 C-32.35077401 15.29128576 -30.68232602 14.62610015 -29 14 C-26.5550937 12.88843006 -24.11857169 11.76589098 -21.6875 10.625 C-21.02468018 10.31554443 -20.36186035 10.00608887 -19.67895508 9.68725586 C-16.15172605 8.034124 -12.65405322 6.340383 -9.1875 4.5625 C-6 3 -6 3 -4 3 C-4 2.34 -4 1.68 -4 1 C-2 0 -2 0 0 0 Z " fill="#92F0FB" transform="translate(200,268)"/>
<path d="M0 0 C-0.33 0.99 -0.66 1.98 -1 3 C-5.31906482 4.63331443 -10.13537785 4.2233209 -14.6875 4.25 C-15.54794922 4.270625 -16.40839844 4.29125 -17.29492188 4.3125 C-23.1072516 4.34754042 -28.81534832 3.86162463 -34 1 C-34.33 0.01 -34.66 -0.98 -35 -2 C-25.790572 -6.604714 -9.34051183 -2.86351458 0 0 Z " fill="#4F2B7C" transform="translate(497,547)"/>
<path d="M0 0 C2.05859375 -0.3984375 2.05859375 -0.3984375 4.4375 -0.375 C5.21996094 -0.38273437 6.00242187 -0.39046875 6.80859375 -0.3984375 C9.53228799 0.09677963 10.40213439 0.75597556 12 3 C12.68840222 6.06338987 12.60334741 8.92400562 12 12 C9.5 15.0625 9.5 15.0625 7 17 C5.68127338 16.60348083 4.37002899 16.18201309 3.0625 15.75 C2.33160156 15.51796875 1.60070312 15.2859375 0.84765625 15.046875 C-1 14 -1 14 -1.7421875 12.11328125 C-2.32220776 7.35887277 -2.7102895 4.06543426 0 0 Z " fill="#562893" transform="translate(430,348)"/>
<path d="M0 0 C11.06155818 -0.41829422 23.04039963 -0.57349899 33 5 C31.90625 6.48046875 31.90625 6.48046875 30 8 C19.75646577 9.25348511 8.00955652 8.35703361 -1 3 C-0.67 2.01 -0.34 1.02 0 0 Z " fill="#6D469B" transform="translate(330,539)"/>
<path d="M0 0 C5.89294174 1.24593625 11.31180765 2.2493858 17.375 2 C18.365 2 19.355 2 20.375 2 C20.045 2.33 19.715 2.66 19.375 3 C33.91242923 7.11476086 48.50493714 9.84894917 63.46166992 11.91040039 C68.25593846 12.59169883 72.75156531 13.55401304 77.375 15 C77.375 15.33 77.375 15.66 77.375 16 C68.17685869 15.50711019 59.30099101 14.02482449 50.27406693 12.30152702 C47.79210077 11.82851148 45.30861735 11.36435193 42.82455444 10.90248108 C35.77063461 9.58970339 28.71912681 8.26437681 21.66992188 6.92651367 C17.3332606 6.1040975 12.9944071 5.29419146 8.65403366 4.49160957 C7.01796911 4.18655831 5.38275812 3.87688609 3.74852371 3.56217766 C-6.19462269 1.64850175 -15.45861621 0.5560267 -25.625 1 C-17.72898706 -4.26400862 -8.73921685 -1.86369466 0 0 Z " fill="#A6F1F9" transform="translate(229.625,265)"/>
<path d="M0 0 C0.66 0.66 1.32 1.32 2 2 C-1.71640165 4.4776011 -4.63244534 4.34304563 -8.9375 4.3125 C-10.07070679 4.30947876 -10.07070679 4.30947876 -11.22680664 4.30639648 C-18.35048535 4.18036043 -25.55707751 3.22146124 -32 0 C-32 -0.66 -32 -1.32 -32 -2 C-22.4652341 -5.1782553 -9.19941275 -3.52455533 0 0 Z " fill="#623F8C" transform="translate(466,554)"/>
<path d="M0 0 C3.62435605 0.61233413 5.74083483 2.14846207 8.625 4.375 C16.59966845 10.0611838 25.21368174 12.43878321 35 11 C39.46189632 9.60284054 43.71315273 7.85722787 48 6 C48.99 5.67 49.98 5.34 51 5 C49.51048982 9.46853055 45.95567381 11.78059523 42 14 C34.94691902 16.76705234 27.37070858 17.56607133 20.1328125 14.97265625 C12.95210392 11.21579277 6.23216431 6.16627932 0 1 C0 0.67 0 0.34 0 0 Z " fill="#4A718A" transform="translate(212,501)"/>
<path d="M0 0 C0.66 0.33 1.32 0.66 2 1 C1.64490468 3.77341692 1.14778226 4.85799523 -0.8984375 6.82421875 C-1.71570313 7.43910156 -2.53296875 8.05398438 -3.375 8.6875 C-4.72271484 9.72390625 -4.72271484 9.72390625 -6.09765625 10.78125 C-7.05542969 11.5134375 -8.01320313 12.245625 -9 13 C-10.94462258 14.55362657 -12.88224545 16.11605803 -14.8125 17.6875 C-15.68519531 18.39261719 -16.55789063 19.09773438 -17.45703125 19.82421875 C-20.07774956 21.99074533 -20.07774956 21.99074533 -22.51171875 24.64453125 C-25.04613879 27.04367612 -26.8058421 27.76725469 -30 29 C-32.55299287 31.05213167 -32.55299287 31.05213167 -35 33.4375 C-38.15054774 36.42559762 -41.09227513 39.05273845 -45 41 C-45.66 40.67 -46.32 40.34 -47 40 C-39.66682903 33.67313279 -32.31134583 27.39120974 -24.7890625 21.2890625 C-21.03388553 18.20708253 -17.34611542 15.04817059 -13.65112305 11.89453125 C-10.00801402 8.80347516 -6.28941075 5.88136853 -2.390625 3.12109375 C-0.84300327 2.0323767 -0.84300327 2.0323767 0 0 Z " fill="#92FAFD" transform="translate(340,297)"/>
<path d="M0 0 C1.39025391 0.01353516 1.39025391 0.01353516 2.80859375 0.02734375 C5.08100077 0.05077063 7.3528618 0.08357252 9.625 0.125 C9.625 0.785 9.625 1.445 9.625 2.125 C12.1 2.62 12.1 2.62 14.625 3.125 C15.12 4.61 15.12 4.61 15.625 6.125 C16.285 6.125 16.945 6.125 17.625 6.125 C15.875 11 15.875 11 13.625 12.125 C9.19918131 12.33641314 4.76965755 12.31079708 0.33935547 12.31030273 C-1.8664065 12.31249147 -4.07167016 12.3306586 -6.27734375 12.34960938 C-7.67447745 12.35254293 -9.07161353 12.35452798 -10.46875 12.35546875 C-11.74427734 12.35957764 -13.01980469 12.36368652 -14.33398438 12.36791992 C-17.375 12.125 -17.375 12.125 -19.375 10.125 C-19.72880176 7.36534626 -19.81420595 5.78380892 -18.25 3.4375 C-12.64619706 -0.48516206 -6.53596847 -0.12120912 0 0 Z M-18.375 5.125 C-18.045 6.775 -17.715 8.425 -17.375 10.125 C-13.1391643 10.14969321 -8.90336658 10.16785671 -4.66748047 10.17993164 C-3.2260668 10.18496474 -1.78465824 10.19179173 -0.34326172 10.20043945 C1.72690085 10.21254983 3.79699601 10.21823847 5.8671875 10.22265625 C7.73673096 10.23051147 7.73673096 10.23051147 9.64404297 10.23852539 C12.55271106 10.33316587 12.55271106 10.33316587 14.625 9.125 C14.13 6.65 14.13 6.65 13.625 4.125 C8.81983141 2.22563415 4.42644616 1.77609776 -0.6875 1.8125 C-1.80983032 1.81443359 -1.80983032 1.81443359 -2.95483398 1.81640625 C-8.60459531 1.91456694 -13.15951897 2.84915373 -18.375 5.125 Z " fill="#B1FDFF" transform="translate(230.375,370.875)"/>
<path d="M0 0 C1.56909759 1.56909759 1.32018865 3.14046257 1.4375 5.3125 C1.421875 7.7734375 1.421875 7.7734375 1 10 C-1.8125 12.4375 -1.8125 12.4375 -5 14 C-5.99 14.66 -6.98 15.32 -8 16 C-10.1875 15.625 -10.1875 15.625 -12 15 C-11.83594462 8.28864336 -10.85033511 4.73203426 -6 0 C-3.49749232 -1.25125384 -2.59701335 -0.83774624 0 0 Z " fill="#3A1B63" transform="translate(356,437)"/>
<path d="M0 0 C1.33332095 2.6666419 0.67102033 4.16680303 0 7 C0.66 6.67 1.32 6.34 2 6 C7.34709374 5.6493709 10.62872307 5.55596363 15 9 C16.29004296 11.58008592 16.20410224 13.55741574 16.25 16.4375 C16.27578125 17.40558594 16.3015625 18.37367188 16.328125 19.37109375 C16 22 16 22 14.68359375 23.8046875 C12.26551448 25.52146767 9.90360228 25.67737752 7 26 C7.33 27.32 7.66 28.64 8 30 C2.59420076 27.29710038 0.21395518 23.6707014 -2.25 18.25 C-3.55509971 12.59456791 -4.04986657 7.18722203 -1.5 1.875 C-1.005 1.25625 -0.51 0.6375 0 0 Z M2 7.9375 C0.4008933 11.23565757 0.50678411 14.45456401 1 18 C1.74536751 20.5771736 1.74536751 20.5771736 4 22 C6.99850298 22.7413881 9.91042855 23.17587693 13 23 C15.51012963 20.48987037 15.29721609 19.53194763 15.3125 16.0625 C15.32925781 15.18722656 15.34601563 14.31195313 15.36328125 13.41015625 C15.1835551 10.97170041 15.1835551 10.97170041 13.73046875 9.23828125 C10.35073665 6.81982736 5.78751356 6.16210302 2 7.9375 Z " fill="#4A227E" transform="translate(466,406)"/>
<path d="M0 0 C3.1875 0.1875 3.1875 0.1875 7.1875 2.1875 C7.1875 6.1475 7.1875 10.1075 7.1875 14.1875 C-0.14365611 14.66823155 -0.14365611 14.66823155 -2.8125 12.75 C-4.29385118 8.95403761 -4.23758628 5.2176449 -3.8125 1.1875 C-2.8125 0.1875 -2.8125 0.1875 0 0 Z " fill="#7F39CE" transform="translate(423.8125,450.8125)"/>
<path d="M0 0 C23.89570552 -0.55214724 23.89570552 -0.55214724 31 3 C31 3.66 31 4.32 31 5 C22.47780572 7.84073143 11.11578331 6.64000515 2.6875 3.94921875 C1 3 1 3 0 0 Z " fill="#5A328B" transform="translate(410,558)"/>
<path d="M0 0 C0.66 0.33 1.32 0.66 2 1 C1.979375 2.0725 1.95875 3.145 1.9375 4.25 C1.9857984 7.14790424 2.13155885 9.28612141 3 12 C5.31 12.66 7.62 13.32 10 14 C13.12270126 11.48169253 13.94523098 10.2738451 14.75 6.25 C14.8325 5.1775 14.915 4.105 15 3 C15.33 3 15.66 3 16 3 C16.02708567 4.60407328 16.04643483 6.2082785 16.0625 7.8125 C16.07410156 8.70582031 16.08570313 9.59914063 16.09765625 10.51953125 C16 13 16 13 15 16 C11.4375 17.6875 11.4375 17.6875 8 19 C8.33 20.65 8.66 22.3 9 24 C2.34515234 20.48771929 -0.22595461 16.0564281 -2.6796875 9.18359375 C-3.08277685 6.43570417 -2.39489357 5.35207915 -1 3 C-0.67 2.01 -0.34 1.02 0 0 Z " fill="#3F1D6C" transform="translate(427,350)"/>
<path d="M0 0 C0.33 0.99 0.66 1.98 1 3 C1.556875 2.86980469 2.11375 2.73960937 2.6875 2.60546875 C7.13096588 1.80234232 10.28664843 1.65357907 14.3125 3.875 C18.66057045 7.01430686 20.76645167 10.82427274 22 16 C22.27485405 20.00300261 21.55037954 23.05976829 19.5 26.5625 C15.66229914 28.76917799 12.21634855 27.82885484 8 27 C8 26.67 8 26.34 8 26 C10.97 25.34 13.94 24.68 17 24 C17.02699725 21.72923158 17.04639453 19.45837179 17.0625 17.1875 C17.07410156 15.92292969 17.08570313 14.65835937 17.09765625 13.35546875 C17.16159116 10.00394763 17.16159116 10.00394763 16 7 C12.28293857 5.36449297 7.95226109 5.68632848 4 6 C2.02901574 7.7109211 2.02901574 7.7109211 1 10 C0.34 10.99 -0.32 11.98 -1 13 C-1.02696365 11.20841511 -1.04637917 9.41671527 -1.0625 7.625 C-1.07410156 6.62726563 -1.08570313 5.62953125 -1.09765625 4.6015625 C-1 2 -1 2 0 0 Z " fill="#321754" transform="translate(416,442)"/>
<path d="M0 0 C5.50588235 0.48941176 5.50588235 0.48941176 7.875 2.9375 C9 5 9 5 9 7 C9.66 7 10.32 7 11 7 C14.25074993 14.04329151 15.75684688 21.63500521 13.2734375 29.21875 C11.2968988 33.01113319 8.96133571 35.41546571 5 37 C2.6875 36.6875 2.6875 36.6875 1 36 C1.928125 35.443125 2.85625 34.88625 3.8125 34.3125 C7.08560197 31.93789661 8.26526822 30.57629455 10 27 C11.15227401 19.5870372 10.53179364 13.21878984 6.4453125 6.87890625 C4.47318141 4.31513584 2.42181226 2.14503372 0 0 Z " fill="#EFD6F4" transform="translate(436,438)"/>
<path d="M0 0 C2.875 -0.125 2.875 -0.125 6 0 C8 2 8 2 8.265625 4.05859375 C8.26046875 4.84363281 8.2553125 5.62867188 8.25 6.4375 C8.25515625 7.21996094 8.2603125 8.00242187 8.265625 8.80859375 C8 11 8 11 6 14 C2.875 14.1875 2.875 14.1875 0 14 C-0.94238698 11.17283905 -1.13465647 9.36823877 -1.125 6.4375 C-1.12757813 5.65246094 -1.13015625 4.86742187 -1.1328125 4.05859375 C-1 2 -1 2 0 0 Z " fill="#632DA6" transform="translate(513,479)"/>
<path d="M0 0 C0.66 1.32 1.32 2.64 2 4 C2.33 3.505 2.66 3.01 3 2.5 C5.52957336 0.60281998 7.66450402 0.33332239 10.796875 0.4609375 C15.25215725 1.55105975 18.26316186 4.42728026 21 8 C22.35170279 11.11479338 22.28592536 12.45452553 22 16 C19.5625 19 19.5625 19 17 21 C17.23976563 20.15115234 17.23976563 20.15115234 17.484375 19.28515625 C18.01192462 16.94715227 18.20138732 14.83167451 18.25 12.4375 C18.27578125 11.67308594 18.3015625 10.90867187 18.328125 10.12109375 C18.14893299 7.94828264 18.14893299 7.94828264 16.80859375 6.265625 C14.44313415 4.61031418 12.67679409 4.49849312 9.8125 4.3125 C7.4303125 4.1578125 7.4303125 4.1578125 5 4 C5 7.3 5 10.6 5 14 C3.68 13.67 2.36 13.34 1 13 C-0.32229189 10.35541621 -0.09677194 8.32238699 -0.0625 5.375 C-0.05347656 4.37210937 -0.04445313 3.36921875 -0.03515625 2.3359375 C-0.02355469 1.56507813 -0.01195312 0.79421875 0 0 Z " fill="#452372" transform="translate(502,473)"/>
<path d="M0 0 C0.66 0.99 1.32 1.98 2 3 C8.12378026 5.06643258 13.83043942 5.27798342 20.25 5.1875 C21.13429688 5.18685547 22.01859375 5.18621094 22.9296875 5.18554688 C30.09618092 5.4151191 30.09618092 5.4151191 36 2 C36.66 3.32 37.32 4.64 38 6 C36 8 36 8 33.05078125 8.24291992 C31.81714844 8.23881104 30.58351563 8.23470215 29.3125 8.23046875 C28.32503784 8.22978142 28.32503784 8.22978142 27.31762695 8.2290802 C25.92560016 8.22605881 24.53357672 8.21817581 23.14160156 8.20581055 C21.00834197 8.18757132 18.87551687 8.18530076 16.7421875 8.18554688 C6.29509633 8.14754817 6.29509633 8.14754817 4 7 C4 7.66 4 8.32 4 9 C1.03 8.505 1.03 8.505 -2 8 C-1.67 7.34 -1.34 6.68 -1 6 C-1.99 5.34 -2.98 4.68 -4 4 C-4 3.01 -4 2.02 -4 1 C-2 0 -2 0 0 0 Z " fill="#DFC0E9" transform="translate(462,545)"/>
<path d="M0 0 C2.04220779 4.32467532 2.04220779 4.32467532 1.875 7 C0.68375508 9.72284553 -1.0701328 11.75886389 -3 14 C-6.875 13.125 -6.875 13.125 -8 12 C-8.203125 9.78515625 -8.203125 9.78515625 -8.25 7.0625 C-8.27578125 6.16660156 -8.3015625 5.27070313 -8.328125 4.34765625 C-8.21984375 3.57292969 -8.1115625 2.79820312 -8 2 C-4.77208445 -0.1519437 -3.71599191 -0.20086443 0 0 Z " fill="#3B1D64" transform="translate(361,364)"/>
<path d="M0 0 C-0.33 1.32 -0.66 2.64 -1 4 C-1 3.34 -1 2.68 -1 2 C-2.32 2 -3.64 2 -5 2 C-5.309375 2.86625 -5.309375 2.86625 -5.625 3.75 C-7.88790945 7.45294273 -11.54328956 9.1708741 -15.23046875 11.26953125 C-21.21169963 14.72133858 -26.4122718 18.64334715 -31.65234375 23.14453125 C-34 25 -34 25 -37 26 C-35.95125002 23.37812506 -35.35068687 22.20628639 -32.875 20.75 C-32.25625 20.5025 -31.6375 20.255 -31 20 C-31 19.34 -31 18.68 -31 18 C-29.18279604 16.45037785 -27.29394128 14.98419737 -25.375 13.5625 C-23.80878906 12.38880859 -23.80878906 12.38880859 -22.2109375 11.19140625 C-19.21806785 9.14882733 -16.24772109 7.58875005 -13 6 C-10.67474362 4.45359163 -8.41331267 2.84012545 -6.1484375 1.20703125 C-4 0 -4 0 0 0 Z " fill="#9FFBFE" transform="translate(343,313)"/>
<path d="M0 0 C2.64453125 -0.1640625 2.64453125 -0.1640625 5 0 C5.05402274 2.10388569 5.09280256 4.20816714 5.125 6.3125 C5.14820313 7.48425781 5.17140625 8.65601563 5.1953125 9.86328125 C5 13 5 13 3 16 C3 15.01 3 14.02 3 13 C1.5459375 13.0309375 1.5459375 13.0309375 0.0625 13.0625 C-3 13 -3 13 -4 12 C-4.45205819 8.11229956 -4.08137834 6.16275667 -2.3125 2.625 C-1.549375 1.75875 -0.78625 0.8925 0 0 Z " fill="#381B5D" transform="translate(307,463)"/>
<path d="M0 0 C6.0332041 1.56031141 6.0332041 1.56031141 8.625 4.9375 C9.15476076 8.98244416 9.18484475 12.8948316 8.625 16.9375 C6.625 18.9375 6.625 18.9375 3.3125 19.3125 C-0.92045677 18.88202982 -2.40860375 17.90389625 -5.375 14.9375 C-6.60191067 12.48367866 -6.57675931 10.73765897 -6.625 8 C-6.65078125 7.12472656 -6.6765625 6.24945313 -6.703125 5.34765625 C-6.375 2.9375 -6.375 2.9375 -5.0703125 1.1171875 C-3.375 -0.0625 -3.375 -0.0625 0 0 Z M-4.375 3.9375 C-4.80008628 7.9676449 -4.85635118 11.70403761 -3.375 15.5 C-0.15816135 17.81210278 2.73607127 17.19251172 6.625 16.9375 C6.625 12.9775 6.625 9.0175 6.625 4.9375 C3.57878416 3.41439208 -1.390591 0.953091 -4.375 3.9375 Z " fill="#5B2A9A" transform="translate(424.375,448.0625)"/>
<path d="M0 0 C0.99245476 0.06871056 0.99245476 0.06871056 2.00495911 0.1388092 C4.1144236 0.28614771 6.22318126 0.44179204 8.33203125 0.59765625 C9.76363312 0.699116 11.19527351 0.80003389 12.62695312 0.90039062 C16.1332809 1.14736403 19.63902253 1.40178903 23.14453125 1.66015625 C19.34381129 3.79963437 16.4917481 3.74217921 12.14453125 3.66015625 C11.81453125 3.99015625 11.48453125 4.32015625 11.14453125 4.66015625 C9.75136709 4.72255898 8.35512686 4.7196947 6.9609375 4.6875 C6.11595703 4.67525391 5.27097656 4.66300781 4.40039062 4.65039062 C2.60864159 4.61530924 0.81696566 4.57626356 -0.97460938 4.53320312 C-2.24401367 4.51676758 -2.24401367 4.51676758 -3.5390625 4.5 C-4.31822021 4.48316162 -5.09737793 4.46632324 -5.90014648 4.44897461 C-8.09237065 4.47899818 -8.09237065 4.47899818 -9.85546875 6.66015625 C-9.85546875 4.68015625 -9.85546875 2.70015625 -9.85546875 0.66015625 C-6.27111883 -0.53462706 -3.76842378 -0.27030888 0 0 Z " fill="#75CBE2" transform="translate(213.85546875,403.33984375)"/>
<path d="M0 0 C6.875 0.875 6.875 0.875 8 2 C8.36090226 9.45864662 8.36090226 9.45864662 6 13 C4.35 13 2.7 13 1 13 C0.67 8.71 0.34 4.42 0 0 Z " fill="#5B299A" transform="translate(516,384)"/>
<path d="M0 0 C0.66 0.33 1.32 0.66 2 1 C0.00125819 2.85553927 -1.99870705 4.70971482 -4 6.5625 C-4.59361328 7.11244629 -5.18722656 7.66239258 -5.79882812 8.22900391 C-8.98470134 11.17134329 -12.19828216 14.06219038 -15.5 16.875 C-21.88130052 22.20693328 -21.88130052 22.20693328 -24.3125 29.875 C-24.209375 30.90625 -24.10625 31.9375 -24 33 C-24.66 32.67 -25.32 32.34 -26 32 C-26.13657216 30.60696395 -26.23271149 29.20993879 -26.3125 27.8125 C-26.39951172 26.64654297 -26.39951172 26.64654297 -26.48828125 25.45703125 C-25.76397676 21.81233104 -23.74114839 20.45064625 -21 18 C-19.9810215 17.034713 -18.96416194 16.06718525 -17.94921875 15.09765625 C-12.18614043 9.71376239 -6.45610513 4.55725068 0 0 Z " fill="#8EF9FC" transform="translate(276,365)"/>
<path d="M0 0 C-1.40633864 4.21901592 -4.34340215 5.05406162 -8.10546875 6.94140625 C-8.82229324 7.30975082 -9.53911774 7.6780954 -10.27766418 8.05760193 C-11.79773505 8.8362478 -13.32025033 9.61013713 -14.8449707 10.37963867 C-17.16595842 11.55162257 -19.47894694 12.73826867 -21.79101562 13.92773438 C-23.27038268 14.68317482 -24.75018704 15.43775964 -26.23046875 16.19140625 C-26.9181987 16.54352676 -27.60592865 16.89564728 -28.3144989 17.25843811 C-32.13741729 19.18163178 -35.88940672 20.75432939 -40 22 C-38.72995023 18.18985068 -37.48886603 17.82372543 -34 16 C-33.26910156 15.70996094 -32.53820312 15.41992188 -31.78515625 15.12109375 C-28.36148291 13.7429812 -25.02725727 12.19233303 -21.6875 10.625 C-20.69327026 10.16081665 -20.69327026 10.16081665 -19.67895508 9.68725586 C-16.15172605 8.034124 -12.65405322 6.340383 -9.1875 4.5625 C-6 3 -6 3 -4 3 C-4 2.34 -4 1.68 -4 1 C-2 0 -2 0 0 0 Z " fill="#95F2FB" transform="translate(200,268)"/>
<path d="M0 0 C1.56099429 2.07659543 3.11480531 4.15697314 4.6484375 6.25390625 C8.9731503 12.08712362 8.9731503 12.08712362 15 16 C15.763125 16.391875 16.52625 16.78375 17.3125 17.1875 C17.869375 17.455625 18.42625 17.72375 19 18 C18.01 18 17.02 18 16 18 C16.33 19.32 16.66 20.64 17 22 C15.2458877 20.92333797 13.49687413 19.83836661 11.75 18.75 C10.77546875 18.14671875 9.8009375 17.5434375 8.796875 16.921875 C4.45403797 13.9376909 1.77665016 11.45688126 0.1875 6.375 C-0.06644531 5.59898437 -0.32039062 4.82296875 -0.58203125 4.0234375 C-1 2 -1 2 0 0 Z " fill="#71CBDF" transform="translate(138,439)"/>
<path d="M0 0 C5.41139241 0.60126582 5.41139241 0.60126582 7.9375 2.3125 C9 4 9 4 8.875 6 C7.85199758 8.33829125 7.12367781 9.55893291 5 11 C2.375 10.8125 2.375 10.8125 0 10 C-1.36952673 7.26094655 -1.12621361 5.02912668 -1 2 C-0.67 1.34 -0.34 0.68 0 0 Z " fill="#4D277E" transform="translate(341,463)"/>
<path d="M0 0 C3.375 -0.125 3.375 -0.125 7 0 C9 2 9 2 9.1953125 3.9453125 C9.13020833 5.96354167 9.06510417 7.98177083 9 10 C5.71303767 10.79953138 4.28976808 11.09658936 1 10 C0.67 6.7 0.34 3.4 0 0 Z " fill="#7C37CA" transform="translate(471,416)"/>
<path d="M0 0 C6.19887485 -0.37952295 10.4477112 0.1647887 16 3 C15.67 3.66 15.34 4.32 15 5 C12.05173237 5.98275588 10.07347496 6.13414725 7 6.125 C5.700625 6.12886719 5.700625 6.12886719 4.375 6.1328125 C2 6 2 6 -1 5 C-0.67 3.35 -0.34 1.7 0 0 Z " fill="#331756" transform="translate(371,533)"/>
<path d="M0 0 C1.32 0.33 2.64 0.66 4 1 C4.1799928 6.21979128 3.97094808 10.07262981 2 15 C-1.13051957 12.91298695 -2.7655119 11.64829063 -4.0625 8.0625 C-3.98252328 4.14364091 -2.67764779 2.75878863 0 0 Z " fill="#4D2C77" transform="translate(322,377)"/>
<path d="M0 0 C6.3 -0.48461538 6.3 -0.48461538 9.4375 1.6875 C11.25953249 4.38410809 11.35430394 5.81126451 11 9 C6.78121808 9.19622241 3.82989106 8.80230168 0 7 C0 4.69 0 2.38 0 0 Z " fill="#7836C4" transform="translate(429,350)"/>
<path d="M0 0 C1.67487213 0.2892961 3.34021468 0.63393776 5 1 C19.05176512 3.72021269 19.05176512 3.72021269 33 2 C33 2.66 33 3.32 33 4 C30.02793248 5.48603376 27.00621017 5.14624523 23.75 5.125 C22.6827771 5.12209961 22.6827771 5.12209961 21.59399414 5.11914062 C15.76798091 5.07257908 9.98878422 4.72051916 4.18359375 4.21875 C0.77987346 3.98487474 -2.58932935 3.96559223 -6 4 C-5.67 3.34 -5.34 2.68 -5 2 C-3.67696283 1.6278958 -2.34262065 1.29369827 -1 1 C-0.67 0.67 -0.34 0.34 0 0 Z " fill="#7AE0F1" transform="translate(206,400)"/>
<path d="M0 0 C2.64 0 5.28 0 8 0 C7.55074862 4.82945236 6.45263456 7.54736544 3 11 C2.01 11 1.02 11 0 11 C-1.26026798 8.47946405 -0.91874445 7.1457902 -0.5625 4.375 C-0.46066406 3.55773437 -0.35882813 2.74046875 -0.25390625 1.8984375 C-0.17011719 1.27195312 -0.08632813 0.64546875 0 0 Z " fill="#41206C" transform="translate(313,398)"/>
<path d="M0 0 C0.33 0 0.66 0 1 0 C1.08114106 1.77007714 1.13925505 3.54122098 1.1875 5.3125 C1.23970703 6.79169922 1.23970703 6.79169922 1.29296875 8.30078125 C1 11 1 11 -0.3125 12.8125 C-2.73469698 14.51700899 -5.09925835 14.67769537 -8 15 C-7.67 16.32 -7.34 17.64 -7 19 C-12.02470674 16.62722182 -13.56030983 13.78902145 -16 9 C-15.34 9 -14.68 9 -14 9 C-13.67 8.34 -13.34 7.68 -13 7 C-12.01 8.485 -12.01 8.485 -11 10 C-8.84195119 10.61766894 -8.84195119 10.61766894 -6.4375 10.75 C-5.63183594 10.82734375 -4.82617188 10.9046875 -3.99609375 10.984375 C-3.33738281 10.98953125 -2.67867188 10.9946875 -2 11 C-0.33657163 9.33657163 -0.63951903 7.2174291 -0.4375 4.9375 C-0.35371094 4.01839844 -0.26992188 3.09929687 -0.18359375 2.15234375 C-0.12300781 1.44207031 -0.06242187 0.73179687 0 0 Z " fill="#592B94" transform="translate(481,417)"/>
<path d="M0 0 C1.28132813 0.00902344 2.56265625 0.01804687 3.8828125 0.02734375 C4.87023437 0.03894531 5.85765625 0.05054688 6.875 0.0625 C6 3.9375 6 3.9375 4.875 5.0625 C2.85535801 5.13494053 0.83332876 5.14627188 -1.1875 5.125 C-2.84458984 5.11146484 -2.84458984 5.11146484 -4.53515625 5.09765625 C-5.38980469 5.08605469 -6.24445313 5.07445312 -7.125 5.0625 C-7.785 3.7425 -8.445 2.4225 -9.125 1.0625 C-6.12186252 -0.43906874 -3.33432478 -0.03031204 0 0 Z " fill="#331A51" transform="translate(471.125,543.9375)"/>
<path d="M0 0 C0.33 0.66 0.66 1.32 1 2 C3.33247815 2.62852934 5.69291467 3.15535246 8.0625 3.625 C9.99802734 4.01558594 9.99802734 4.01558594 11.97265625 4.4140625 C12.97167969 4.60742188 13.97070312 4.80078125 15 5 C13.20300908 7.29615506 12.09790907 7.97351185 9.2421875 8.74609375 C5.67702396 9.0252933 2.64473912 8.67306699 -0.875 8.0625 C-2.02742188 7.86785156 -3.17984375 7.67320312 -4.3671875 7.47265625 C-5.23601562 7.31667969 -6.10484375 7.16070313 -7 7 C-7 6.67 -7 6.34 -7 6 C-5.02 5.67 -3.04 5.34 -1 5 C-0.67 3.35 -0.34 1.7 0 0 Z " fill="#E0C5EA" transform="translate(433,552)"/>
<path d="M0 0 C3.1875 0.1875 3.1875 0.1875 7.1875 2.1875 C7.1875 6.1475 7.1875 10.1075 7.1875 14.1875 C-0.14365611 14.66823155 -0.14365611 14.66823155 -2.8125 12.75 C-4.29385118 8.95403761 -4.23758628 5.2176449 -3.8125 1.1875 C-2.8125 0.1875 -2.8125 0.1875 0 0 Z M-1.8125 2.1875 C-1.8125 4.8275 -1.8125 7.4675 -1.8125 10.1875 C0.16496603 10.91830266 2.16822489 11.58171747 4.1875 12.1875 C4.8475 11.8575 5.5075 11.5275 6.1875 11.1875 C6.1875 8.5475 6.1875 5.9075 6.1875 3.1875 C3.5475 2.8575 0.9075 2.5275 -1.8125 2.1875 Z " fill="#7032B9" transform="translate(423.8125,450.8125)"/>
<path d="M0 0 C1.15941038 3.47823115 0.70820884 5.45895578 0 9 C-0.99 9 -1.98 9 -3 9 C-4.49108038 10.2607853 -4.49108038 10.2607853 -5.84765625 11.9921875 C-6.37037109 12.61480469 -6.89308594 13.23742187 -7.43164062 13.87890625 C-8.23891602 14.86697266 -8.23891602 14.86697266 -9.0625 15.875 C-10.13621635 17.164481 -11.21041491 18.45356067 -12.28515625 19.7421875 C-12.75832275 20.3182373 -13.23148926 20.89428711 -13.71899414 21.48779297 C-15 23 -15 23 -17 25 C-16.64196596 19.5237066 -14.50011092 16.7973839 -10.75 13.0625 C-9.74586947 12.01964312 -8.74453452 10.97408684 -7.74609375 9.92578125 C-7.26897949 9.42643066 -6.79186523 8.92708008 -6.30029297 8.41259766 C-3.89542651 5.80002587 -1.9500892 2.95875602 0 0 Z " fill="#88C3CB" transform="translate(291,470)"/>
<path d="M0 0 C1.65 0.33 3.3 0.66 5 1 C4.27991594 5.60853797 2.68704061 9.67237409 1 14 C0.67 13.34 0.34 12.68 0 12 C-0.66 12 -1.32 12 -2 12 C-3.35384615 5.72307692 -3.35384615 5.72307692 -1.5625 2.0625 C-1.046875 1.381875 -0.53125 0.70125 0 0 Z " fill="#8040C9" transform="translate(351,452)"/>
<path d="M0 0 C5.28 0 10.56 0 16 0 C16 1.65 16 3.3 16 5 C9.79029227 5.33266291 5.71735105 4.45029331 0 2 C0 1.34 0 0.68 0 0 Z " fill="#351A53" transform="translate(434,552)"/>
<path d="M0 0 C0.84304688 0.32484375 0.84304688 0.32484375 1.703125 0.65625 C11.33204126 3.84619772 20.98905465 3.26473607 31 3 C31.33 2.34 31.66 1.68 32 1 C32 2.32 32 3.64 32 5 C28.33429144 5.22820479 24.66755618 5.42892166 21 5.625 C19.97003906 5.68945312 18.94007813 5.75390625 17.87890625 5.8203125 C11.78792819 6.13068081 6.82686311 5.83490161 1 4 C0.67 2.68 0.34 1.36 0 0 Z " fill="#E2C4EC" transform="translate(410,560)"/>
<path d="M0 0 C2.97 0 5.94 0 9 0 C6.95890411 7.06533193 6.95890411 7.06533193 4 9 C1.8125 8.6875 1.8125 8.6875 0 8 C0 5.36 0 2.72 0 0 Z " fill="#5A2E92" transform="translate(299,487)"/>
<path d="M0 0 C0.99 0.66 1.98 1.32 3 2 C2 5 2 5 0 6 C-6.23647099 6.40144948 -12.19207724 6.581299 -18 4 C-18 3.67 -18 3.34 -18 3 C-17.03578125 2.95101562 -16.0715625 2.90203125 -15.078125 2.8515625 C-13.81484375 2.77679687 -12.5515625 2.70203125 -11.25 2.625 C-9.99703125 2.55539062 -8.7440625 2.48578125 -7.453125 2.4140625 C-4.39001879 2.04676696 -2.58025734 1.60288714 0 0 Z " fill="#EED7F4" transform="translate(387,536)"/>
<path d="M0 0 C5.65394631 -0.34615998 9.03006806 0.56574762 14 3 C13.67 3.66 13.34 4.32 13 5 C8.38 5 3.76 5 -1 5 C-0.67 3.35 -0.34 1.7 0 0 Z " fill="#3B1D62" transform="translate(349,541)"/>
<path d="M0 0 C-1.27208961 3.81626883 -3.70367564 5.75430695 -6.89868164 7.97729492 C-10.69323709 9.8240932 -14.3453025 9.2708525 -18.4375 8.8125 C-19.26443359 8.74224609 -20.09136719 8.67199219 -20.94335938 8.59960938 C-22.96452592 8.42436372 -24.98273917 8.21560142 -27 8 C-27 7.67 -27 7.34 -27 7 C-26.03320312 6.91363281 -25.06640625 6.82726562 -24.0703125 6.73828125 C-16.51186034 5.92256711 -10.54654081 4.90134526 -3.85546875 1.0234375 C-2 0 -2 0 0 0 Z " fill="#588BA6" transform="translate(263,506)"/>
<path d="M0 0 C2.01822917 0.06510417 4.03645833 0.13020833 6.0546875 0.1953125 C6.0546875 0.5253125 6.0546875 0.8553125 6.0546875 1.1953125 C4.4046875 1.1953125 2.7546875 1.1953125 1.0546875 1.1953125 C1.0546875 5.4853125 1.0546875 9.7753125 1.0546875 14.1953125 C-2.9453125 13.1953125 -2.9453125 13.1953125 -3.9453125 12.1953125 C-4.0698611 10.55300886 -4.12099774 8.90478974 -4.1328125 7.2578125 C-4.14699219 6.36191406 -4.16117187 5.46601563 -4.17578125 4.54296875 C-3.8804008 1.53409336 -3.10782535 0.31203066 0 0 Z " fill="#5A2998" transform="translate(511.9453125,477.8046875)"/>
<path d="M0 0 C3 1.125 3 1.125 5 2.125 C5.125 5 5.125 5 5 8.125 C4.34 8.785 3.68 9.445 3 10.125 C1 7.125 1 7.125 1 4.125 C-1.64 4.785 -4.28 5.445 -7 6.125 C-6.39816251 4.10454558 -5.72693904 2.10388961 -5 0.125 C-3 -0.875 -3 -0.875 0 0 Z " fill="#56298F" transform="translate(360,359.875)"/>
<path d="M0 0 C1.91015625 0.23046875 1.91015625 0.23046875 3.91015625 2.23046875 C0.94015625 2.23046875 -2.02984375 2.23046875 -5.08984375 2.23046875 C-6.29552428 6.9024808 -6.18366801 11.44543167 -6.08984375 16.23046875 C-5.09984375 16.56046875 -4.10984375 16.89046875 -3.08984375 17.23046875 C-4.07984375 17.89046875 -5.06984375 18.55046875 -6.08984375 19.23046875 C-10.51841518 12.94475446 -10.51841518 12.94475446 -11.08984375 9.23046875 C-10.42984375 8.90046875 -9.76984375 8.57046875 -9.08984375 8.23046875 C-8.38493108 5.9084035 -7.71771946 3.57453807 -7.08984375 1.23046875 C-5.19495423 -0.66442077 -2.51845229 0.05027763 0 0 Z " fill="#4B257D" transform="translate(518.08984375,380.76953125)"/>
<path d="M0 0 C0.66 0.33 1.32 0.66 2 1 C-2.6232565 6.83990295 -7.76458681 11.86809969 -14 16 C-14.99 16 -15.98 16 -17 16 C-15.75933437 14.3678622 -14.50708312 12.74452679 -13.25 11.125 C-12.55390625 10.22007812 -11.8578125 9.31515625 -11.140625 8.3828125 C-9.09046345 6.10069836 -7.76160379 5.17707702 -5 4 C-3.31110128 2.6949419 -1.6396721 1.36639342 0 0 Z " fill="#9EFCFE" transform="translate(290,356)"/>
<path d="M0 0 C3.96 0 7.92 0 12 0 C12.33 1.65 12.66 3.3 13 5 C7.73946963 5.31563182 4.55426184 4.66590937 0 2 C0 1.34 0 0.68 0 0 Z " fill="#482C67" transform="translate(410,558)"/>
<path d="M0 0 C0 0.33 0 0.66 0 1 C-1.70824133 1.02735618 -3.41661405 1.04655506 -5.125 1.0625 C-6.07632813 1.07410156 -7.02765625 1.08570313 -8.0078125 1.09765625 C-11 1 -11 1 -13.90625 0.5 C-17.44232695 -0.07148718 -20.79508681 -0.09627277 -24.375 -0.0625 C-25.62023437 -0.05347656 -26.86546875 -0.04445313 -28.1484375 -0.03515625 C-29.08945313 -0.02355469 -30.03046875 -0.01195312 -31 0 C-21.8328809 -6.11141274 -10.02478488 -2.06645872 0 0 Z " fill="#AECEF4" transform="translate(235,266)"/>
<path d="M0 0 C0.33 1.32 0.66 2.64 1 4 C2.98 4 4.96 4 7 4 C7 5.65 7 7.3 7 9 C4.36 9 1.72 9 -1 9 C-1 11.64 -1 14.28 -1 17 C-1.33 17 -1.66 17 -2 17 C-2.25287193 10.93107371 -1.69832609 5.83799592 0 0 Z " fill="#874BCA" transform="translate(300,475)"/>
<path d="M0 0 C0.33 0 0.66 0 1 0 C1.55607983 11.76005866 1.55607983 11.76005866 -2 16 C-2.66 16.66 -3.32 17.32 -4 18 C-3.34 18.66 -2.68 19.32 -2 20 C-3.98 19.67 -5.96 19.34 -8 19 C-8.12375 18.38125 -8.2475 17.7625 -8.375 17.125 C-8.87197356 14.80879168 -8.87197356 14.80879168 -11 13 C-9.72125 12.87625 -8.4425 12.7525 -7.125 12.625 C-3.65209064 12.30957601 -3.65209064 12.30957601 -1 10 C-0.53837573 7.56747339 -0.53837573 7.56747339 -0.375 4.875 C-0.30023438 3.96492188 -0.22546875 3.05484375 -0.1484375 2.1171875 C-0.09945313 1.41851562 -0.05046875 0.71984375 0 0 Z " fill="#442270" transform="translate(482,418)"/>
<path d="M0 0 C1.65 0 3.3 0 5 0 C5 3.3 5 6.6 5 10 C3.35 9.67 1.7 9.34 0 9 C0 6.03 0 3.06 0 0 Z " fill="#7635C1" transform="translate(514,481)"/>
<path d="M0 0 C5.50588235 0.48941176 5.50588235 0.48941176 7.875 2.9375 C9 5 9 5 9 7 C9.66 7 10.32 7 11 7 C12.32594359 12.96674616 12.0884587 18.92583615 12 25 C11.67 25 11.34 25 11 25 C10.98582031 24.31035156 10.97164063 23.62070312 10.95703125 22.91015625 C10.52405818 14.37941649 8.22953536 8.08281802 2.1875 1.9375 C1.465625 1.298125 0.74375 0.65875 0 0 Z " fill="#DFBEEA" transform="translate(436,438)"/>
<path d="M0 0 C0.66 0.33 1.32 0.66 2 1 C-0.70559615 3.56540281 -3.4149665 6.12678578 -6.125 8.6875 C-6.88554687 9.40873047 -7.64609375 10.12996094 -8.4296875 10.87304688 C-12.51448803 14.72895772 -16.63449278 18.46435757 -21 22 C-21.66 21.67 -22.32 21.34 -23 21 C-22.55269531 20.62488281 -22.10539062 20.24976563 -21.64453125 19.86328125 C-21.03996094 19.35152344 -20.43539063 18.83976562 -19.8125 18.3125 C-19.22082031 17.81363281 -18.62914062 17.31476563 -18.01953125 16.80078125 C-16.51133547 15.45594903 -15.05385063 14.05385063 -13.625 12.625 C-10.88736025 9.88736025 -8.05987925 7.28302342 -5.1875 4.6875 C-4.21167969 3.80449219 -3.23585938 2.92148437 -2.23046875 2.01171875 C-1.49441406 1.34785156 -0.75835937 0.68398438 0 0 Z " fill="#AFFDFF" transform="translate(334,306)"/>
<path d="M0 0 C1.32 0 2.64 0 4 0 C4.05384521 2.29141286 4.09272087 4.58318188 4.125 6.875 C4.14820313 8.15117187 4.17140625 9.42734375 4.1953125 10.7421875 C4 14 4 14 2 16 C1.67 12.37 1.34 8.74 1 5 C-0.98 5.99 -0.98 5.99 -3 7 C-2.690625 6.401875 -2.38125 5.80375 -2.0625 5.1875 C-0.89790296 2.91043228 -0.89790296 2.91043228 0 0 Z " fill="#83F4F7" transform="translate(338,315)"/>
<path d="M0 0 C0.99 0.99 1.98 1.98 3 3 C2.01 4.485 2.01 4.485 1 6 C-0.99609375 6.328125 -0.99609375 6.328125 -3.4375 6.25 C-4.32050781 6.22421875 -5.20351563 6.1984375 -6.11328125 6.171875 C-10.75447467 5.89553872 -15.3769537 5.49218744 -20 5 C-20 4.67 -20 4.34 -20 4 C-18.44539063 3.90912109 -18.44539063 3.90912109 -16.859375 3.81640625 C-15.48957127 3.73196629 -14.11978025 3.64732003 -12.75 3.5625 C-12.06808594 3.52318359 -11.38617188 3.48386719 -10.68359375 3.44335938 C-5.75123333 3.19981333 -5.75123333 3.19981333 -1 2 C-0.67 1.34 -0.34 0.68 0 0 Z " fill="#DBBCE8" transform="translate(497,547)"/>
<path d="M0 0 C0.804375 0.61875 1.60875 1.2375 2.4375 1.875 C6.31640608 4.49814512 10.44323651 5.23041328 15 6 C15 6.33 15 6.66 15 7 C13.98679687 7.09087891 13.98679687 7.09087891 12.953125 7.18359375 C12.06109375 7.26738281 11.1690625 7.35117187 10.25 7.4375 C9.36828125 7.51871094 8.4865625 7.59992187 7.578125 7.68359375 C4.7379189 7.97871177 4.7379189 7.97871177 1 9 C0.67 6.03 0.34 3.06 0 0 Z " fill="#E4CAEE" transform="translate(350,532)"/>
<path d="M0 0 C1.45823212 -0.0270043 2.91660675 -0.04639787 4.375 -0.0625 C5.18710937 -0.07410156 5.99921875 -0.08570313 6.8359375 -0.09765625 C9 0 9 0 11 1 C10.67 1.99 10.34 2.98 10 4 C7.03 4 4.06 4 1 4 C0.67 2.68 0.34 1.36 0 0 Z " fill="#3D2160" transform="translate(486,546)"/>
<path d="M0 0 C1.98 0 3.96 0 6 0 C5.34 1.65 4.68 3.3 4 5 C4.61488281 4.7834375 5.22976563 4.566875 5.86328125 4.34375 C6.67152344 4.0653125 7.47976563 3.786875 8.3125 3.5 C9.11300781 3.2215625 9.91351562 2.943125 10.73828125 2.65625 C13 2 13 2 16 2 C12.25923047 5.91080451 12.25923047 5.91080451 9.125 6.1328125 C8.42375 6.13023437 7.7225 6.12765625 7 6.125 C5.948125 6.12886719 5.948125 6.12886719 4.875 6.1328125 C3 6 3 6 1 5 C0.375 2.4375 0.375 2.4375 0 0 Z " fill="#41216A" transform="translate(512,494)"/>
<path d="M0 0 C2 3 2 3 2 5 C2.99 5 3.98 5 5 5 C5 6.32 5 7.64 5 9 C2.36 9.33 -0.28 9.66 -3 10 C-2.01 6.7 -1.02 3.4 0 0 Z " fill="#793BC1" transform="translate(316,385)"/>
<path d="M0 0 C1.32 0.33 2.64 0.66 4 1 C4 3.64 4 6.28 4 9 C3.360625 9.12375 2.72125 9.2475 2.0625 9.375 C1.381875 9.58125 0.70125 9.7875 0 10 C-0.33 10.66 -0.66 11.32 -1 12 C-1.66 12 -2.32 12 -3 12 C-2.25749403 7.91621717 -1.17076699 3.98060777 0 0 Z " fill="#8AF8FB" transform="translate(205,374)"/>
<path d="M0 0 C0 2.31 0 4.62 0 7 C-2.31 6.67 -4.62 6.34 -7 6 C-7 4.68 -7 3.36 -7 2 C-4 0 -4 0 0 0 Z " fill="#4A227F" transform="translate(369,345)"/>
<path d="M0 0 C4.54805635 -0.17835515 7.8794254 0.00214565 12 2 C11.67 2.66 11.34 3.32 11 4 C7.7 4 4.4 4 1 4 C0.67 2.68 0.34 1.36 0 0 Z " fill="#3B1F5C" transform="translate(456,553)"/>
<path d="M0 0 C0.53109375 0.28617187 1.0621875 0.57234375 1.609375 0.8671875 C4.42895477 2.20326288 7.28410899 3.15786163 10.25 4.125 C11.86648437 4.65480469 11.86648437 4.65480469 13.515625 5.1953125 C14.33546875 5.46085937 15.1553125 5.72640625 16 6 C15.01 6.33 14.02 6.66 13 7 C13.33 8.32 13.66 9.64 14 11 C12.22337883 9.92618483 10.45390311 8.840542 8.6875 7.75 C7.70136719 7.14671875 6.71523437 6.5434375 5.69921875 5.921875 C3.17077112 4.12159102 1.673467 2.58159415 0 0 Z " fill="#7CCFE6" transform="translate(141,450)"/>
<path d="M0 0 C0.99 0.495 0.99 0.495 2 1 C1.979375 2.0725 1.95875 3.145 1.9375 4.25 C1.9857984 7.14790424 2.13155885 9.28612141 3 12 C7.67952614 13.80441192 7.67952614 13.80441192 12.4375 13.125 C12.953125 12.75375 13.46875 12.3825 14 12 C13.34 13.32 12.68 14.64 12 16 C7.34605219 16.32469403 4.76641082 15.79790518 1 13 C-0.32229189 10.35541621 -0.09677194 8.32238699 -0.0625 5.375 C-0.05347656 4.37210937 -0.04445313 3.36921875 -0.03515625 2.3359375 C-0.02355469 1.56507813 -0.01195312 0.79421875 0 0 Z " fill="#49217D" transform="translate(427,350)"/>
<path d="M0 0 C3.63 0 7.26 0 11 0 C11 1.32 11 2.64 11 4 C3.57142857 4.28571429 3.57142857 4.28571429 0 2 C0 1.34 0 0.68 0 0 Z " fill="#3F1F68" transform="translate(329,540)"/>
<path d="M0 0 C0.33 0 0.66 0 1 0 C1.09796875 0.69867188 1.1959375 1.39734375 1.296875 2.1171875 C1.44640625 3.02726562 1.5959375 3.93734375 1.75 4.875 C1.88921875 5.77992188 2.0284375 6.68484375 2.171875 7.6171875 C2.77983843 10.16214243 2.77983843 10.16214243 5.078125 11.3203125 C5.71234375 11.54460937 6.3465625 11.76890625 7 12 C7 12.66 7 13.32 7 14 C5.35 14.33 3.7 14.66 2 15 C-2.23632385 7.12253829 -2.23632385 7.12253829 -1.25 2.4375 C-0.63125 1.2309375 -0.63125 1.2309375 0 0 Z " fill="#442270" transform="translate(426,353)"/>
<path d="M0 0 C0.639375 0.33 1.27875 0.66 1.9375 1 C1.6075 2.32 1.2775 3.64 0.9375 5 C0.133125 4.505 -0.67125 4.01 -1.5 3.5 C-5.88252454 1.65472651 -9.38565231 1.71938914 -14.0625 2 C-14.0625 1.34 -14.0625 0.68 -14.0625 0 C-9.81147771 -2.12551114 -4.38932977 -1.43325054 0 0 Z " fill="#E7D4EE" transform="translate(522.0625,463)"/>
<path d="M0 0 C0.33 0 0.66 0 1 0 C1.05449838 1.72880982 1.09301688 3.45812712 1.125 5.1875 C1.14820313 6.15042969 1.17140625 7.11335938 1.1953125 8.10546875 C0.97452391 11.37755561 0.40318706 14.59681294 -2 17 C-3.52519276 16.91062197 -5.04681929 16.75462854 -6.5625 16.5625 C-7.38878906 16.46066406 -8.21507812 16.35882813 -9.06640625 16.25390625 C-9.70449219 16.17011719 -10.34257812 16.08632813 -11 16 C-11 15.67 -11 15.34 -11 15 C-9.906875 14.855625 -8.81375 14.71125 -7.6875 14.5625 C-4.06877013 14.11711896 -4.06877013 14.11711896 -1 13 C-0.67 8.71 -0.34 4.42 0 0 Z " fill="#35185B" transform="translate(443,353)"/>
<path d="M0 0 C2.31 0 4.62 0 7 0 C7 0.33 7 0.66 7 1 C5.35 1.33 3.7 1.66 2 2 C2 2.99 2 3.98 2 5 C5.96 5.99 5.96 5.99 10 7 C10.33 6.01 10.66 5.02 11 4 C11 5.65 11 7.3 11 9 C6.78121808 9.19622241 3.82989106 8.80230168 0 7 C0 4.69 0 2.38 0 0 Z " fill="#662EAB" transform="translate(429,350)"/>
<path d="M0 0 C2.31 0 4.62 0 7 0 C7 0.33 7 0.66 7 1 C5.02 1 3.04 1 1 1 C1.33 1.66 1.66 2.32 2 3 C2.13415472 5.6723621 2.04318541 8.32250488 2 11 C2.99 11.33 3.98 11.66 5 12 C2.5625 11.625 2.5625 11.625 0 11 C-1.49297212 8.01405576 -1.11755228 5.29146376 -1 2 C-0.67 1.34 -0.34 0.68 0 0 Z " fill="#6D31B5" transform="translate(470,415)"/>
<path d="M0 0 C2.97 0.99 5.94 1.98 9 3 C8.67 3.66 8.34 4.32 8 5 C5.35139573 5.59355614 2.70802678 5.74209269 0 6 C0 4.02 0 2.04 0 0 Z " fill="#492971" transform="translate(378,533)"/>
<path d="M0 0 C3.82118677 0.54588382 7.36378667 1.73155349 11 3 C11 3.33 11 3.66 11 4 C5.39 4 -0.22 4 -6 4 C-5.67 3.34 -5.34 2.68 -5 2 C-3.67696283 1.6278958 -2.34262065 1.29369827 -1 1 C-0.67 0.67 -0.34 0.34 0 0 Z " fill="#78D6EB" transform="translate(206,400)"/>
<path d="M0 0 C5.94 0.99 5.94 0.99 12 2 C12 2.33 12 2.66 12 3 C10.02 3.33 8.04 3.66 6 4 C6.33 5.32 6.66 6.64 7 8 C2.43515743 5.71757872 2.04761321 5.11903304 0 0 Z " fill="#502C80" transform="translate(467,428)"/>
<path d="M0 0 C6.28260706 -0.23268915 11.88019467 0.59545452 18 2 C18 2.33 18 2.66 18 3 C16.19402344 2.96519531 16.19402344 2.96519531 14.3515625 2.9296875 C12.77604785 2.91093137 11.20052652 2.89273101 9.625 2.875 C8.8309375 2.85824219 8.036875 2.84148437 7.21875 2.82421875 C5.14507985 2.80664527 3.07116759 2.89664832 1 3 C0.34 3.66 -0.32 4.32 -1 5 C-0.67 3.35 -0.34 1.7 0 0 Z " fill="#6EB7D1" transform="translate(205,405)"/>
<path d="M0 0 C1.65 0 3.3 0 5 0 C5.33 1.98 5.66 3.96 6 6 C4.68 6 3.36 6 2 6 C1.34 5.34 0.68 4.68 0 4 C0 2.68 0 1.36 0 0 Z " fill="#7736C4" transform="translate(517,385)"/>
<path d="M0 0 C1.32 0.33 2.64 0.66 4 1 C3.63132812 1.54140625 3.26265625 2.0828125 2.8828125 2.640625 C1.6481906 5.94023396 2.57351592 7.53456873 3.875 10.75 C4.26429687 11.73484375 4.65359375 12.7196875 5.0546875 13.734375 C5.36664063 14.48203125 5.67859375 15.2296875 6 16 C5.34 16.33 4.68 16.66 4 17 C0.92291196 11.06561592 -0.48736475 6.70126536 0 0 Z " fill="#96F5FC" transform="translate(97,343)"/>
<path d="M0 0 C0.66 0 1.32 0 2 0 C2 1.98 2 3.96 2 6 C2.639375 6.12375 3.27875 6.2475 3.9375 6.375 C4.618125 6.58125 5.29875 6.7875 6 7 C6.33 7.66 6.66 8.32 7 9 C5.35 9.66 3.7 10.32 2 11 C2 10.34 2 9.68 2 9 C1.34 9 0.68 9 0 9 C0 6.03 0 3.06 0 0 Z " fill="#9FF3FC" transform="translate(95,331)"/>
<path d="M0 0 C0.66 0.33 1.32 0.66 2 1 C-1.35583515 4.915141 -5.28066362 7.0795774 -10 9 C-10.66 9 -11.32 9 -12 9 C-10.72995023 5.18985068 -9.48886603 4.82372543 -6 3 C-4.33859237 2.32033324 -2.67299959 1.65061095 -1 1 C-0.67 0.67 -0.34 0.34 0 0 Z " fill="#98DAF7" transform="translate(172,281)"/>
<path d="M0 0 C0.66 0.33 1.32 0.66 2 1 C1.34 2.32 0.68 3.64 0 5 C-1.41623216 5.05447047 -2.83308191 5.09300508 -4.25 5.125 C-5.03890625 5.14820313 -5.8278125 5.17140625 -6.640625 5.1953125 C-9.20731941 4.9828378 -10.7916067 4.28654105 -13 3 C-11.96939453 2.92652344 -11.96939453 2.92652344 -10.91796875 2.8515625 C-9.56638672 2.73941406 -9.56638672 2.73941406 -8.1875 2.625 C-7.29417969 2.55539062 -6.40085937 2.48578125 -5.48046875 2.4140625 C-2.75601501 2.13354964 -2.75601501 2.13354964 0 0 Z " fill="#E5C6EF" transform="translate(468,555)"/>
<path d="M0 0 C-0.33 1.32 -0.66 2.64 -1 4 C-2.58294782 4.05437607 -4.16644256 4.09296271 -5.75 4.125 C-6.63171875 4.14820313 -7.5134375 4.17140625 -8.421875 4.1953125 C-11.1135858 3.99139502 -12.69904974 3.36551721 -15 2 C-12.87528825 1.6648342 -10.75022095 1.33192171 -8.625 1 C-7.44164062 0.814375 -6.25828125 0.62875 -5.0390625 0.4375 C-2 0 -2 0 0 0 Z " fill="#DEB6EB" transform="translate(413,529)"/>
<path d="M0 0 C2.97 0 5.94 0 9 0 C8.34 1.32 7.68 2.64 7 4 C5.02 4 3.04 4 1 4 C0.67 2.68 0.34 1.36 0 0 Z " fill="#321752" transform="translate(353,532)"/>
<path d="M0 0 C0.99 0.33 1.98 0.66 3 1 C5.74005895 6.67583639 6.4529155 11.92417153 5 18 C4.67 18 4.34 18 4 18 C3.87882813 17.20335937 3.75765625 16.40671875 3.6328125 15.5859375 C2.38116525 7.65498622 2.38116525 7.65498622 0 0 Z " fill="#E8D8EF" transform="translate(527,471)"/>
<path d="M0 0 C2.0234375 0.43359375 2.0234375 0.43359375 4.0234375 3.43359375 C-0.2665625 3.43359375 -4.5565625 3.43359375 -8.9765625 3.43359375 C-9.3065625 4.75359375 -9.6365625 6.07359375 -9.9765625 7.43359375 C-10.3065625 6.44359375 -10.6365625 5.45359375 -10.9765625 4.43359375 C-7.82309755 0.04616425 -5.03942621 -0.00837114 0 0 Z " fill="#3B1B65" transform="translate(474.9765625,409.56640625)"/>
<path d="M0 0 C1.32 0 2.64 0 4 0 C3.67 2.31 3.34 4.62 3 7 C1.68 7 0.36 7 -1 7 C-1.04254356 5.00045254 -1.04080783 2.99958364 -1 1 C-0.67 0.67 -0.34 0.34 0 0 Z " fill="#7534BF" transform="translate(363,354)"/>
<path d="M0 0 C1.45823212 -0.0270043 2.91660675 -0.04639787 4.375 -0.0625 C5.18710937 -0.07410156 5.99921875 -0.08570313 6.8359375 -0.09765625 C9 0 9 0 11 1 C11 1.66 11 2.32 11 3 C7.37 3 3.74 3 0 3 C0 2.01 0 1.02 0 0 Z " fill="#381D58" transform="translate(430,560)"/>
<path d="M0 0 C0.66 0 1.32 0 2 0 C0.66305656 6.44163658 0.66305656 6.44163658 -2.375 9 C-5.18585105 10.0708004 -6.26014988 10.11623524 -9 9 C-8.071875 8.443125 -7.14375 7.88625 -6.1875 7.3125 C-3.03023608 5.02193598 -1.85163926 3.33295067 0 0 Z " fill="#DBC1E5" transform="translate(446,465)"/>
<path d="M0 0 C0.8353125 0.37125 0.8353125 0.37125 1.6875 0.75 C1.6875 1.74 1.6875 2.73 1.6875 3.75 C0.635625 3.5953125 0.635625 3.5953125 -0.4375 3.4375 C-4.61982311 3.89210034 -6.26451113 5.91466151 -9.3125 8.75 C-7.925165 4.2096309 -5.3700603 -0.58054706 0 0 Z " fill="#5C3A86" transform="translate(354.3125,436.25)"/>
<path d="M0 0 C0.99 0.495 0.99 0.495 2 1 C2.26140296 2.99319761 2.51730424 4.98774473 2.71484375 6.98828125 C3.04185546 9.29528168 3.76711723 11.02738757 5 13 C1.125 12.125 1.125 12.125 0 11 C-0.07226502 9.14712498 -0.0838122 7.29166122 -0.0625 5.4375 C-0.05347656 4.42558594 -0.04445313 3.41367187 -0.03515625 2.37109375 C-0.02355469 1.58863281 -0.01195312 0.80617188 0 0 Z " fill="#131F2C" transform="translate(268,411)"/>
<path d="M0 0 C4.31687378 0.35001679 6.19275066 1.77686187 9 5 C7.01432292 4.67447917 5.02864583 4.34895833 3.04296875 4.0234375 C0.68244176 3.80422152 0.68244176 3.80422152 -2 6 C-1.125 1.125 -1.125 1.125 0 0 Z " fill="#2C4D5E" transform="translate(113,366)"/>
<path d="M0 0 C0.66 0.66 1.32 1.32 2 2 C0.8125 4 0.8125 4 -1 6 C-3.6875 6.25 -3.6875 6.25 -6 6 C-6.33 4.68 -6.66 3.36 -7 2 C-4.69 1.34 -2.38 0.68 0 0 Z " fill="#271240" transform="translate(443,369)"/>
<path d="M0 0 C0.99 0.66 1.98 1.32 3 2 C2.67 3.32 2.34 4.64 2 6 C0.37828761 6.38897161 -1.24754925 6.76078298 -2.875 7.125 C-3.77992188 7.33382812 -4.68484375 7.54265625 -5.6171875 7.7578125 C-6.40351563 7.83773437 -7.18984375 7.91765625 -8 8 C-8.66 7.34 -9.32 6.68 -10 6 C-7.03 6 -4.06 6 -1 6 C-0.67 4.02 -0.34 2.04 0 0 Z " fill="#F2DDF7" transform="translate(413,527)"/>
<path d="M0 0 C3.71415741 0.63348946 6.19130299 2.28657418 9.25 4.4375 C10.14203125 5.05496094 11.0340625 5.67242187 11.953125 6.30859375 C12.96632812 7.14583984 12.96632812 7.14583984 14 8 C14 8.66 14 9.32 14 10 C10.19136032 8.65378455 7.34590149 6.94641263 4.1875 4.4375 C3.39730469 3.81746094 2.60710937 3.19742187 1.79296875 2.55859375 C0.90544922 1.78708984 0.90544922 1.78708984 0 1 C0 0.67 0 0.34 0 0 Z " fill="#679EB7" transform="translate(212,501)"/>
<path d="M0 0 C5.97897503 -0.74737188 9.32379721 1.6768102 14 5 C13.01 5.33 12.02 5.66 11 6 C10.34 5.67 9.68 5.34 9 5 C9 4.34 9 3.68 9 3 C5.7 2.67 2.4 2.34 -1 2 C-0.67 1.34 -0.34 0.68 0 0 Z " fill="#1D303F" transform="translate(172,399)"/>
<path d="M0 0 C1.52519276 0.08937803 3.04681929 0.24537146 4.5625 0.4375 C5.80193359 0.59025391 5.80193359 0.59025391 7.06640625 0.74609375 C7.70449219 0.82988281 8.34257813 0.91367187 9 1 C8.67 1.66 8.34 2.32 8 3 C4.5 3.5 4.5 3.5 1 4 C0.67 4.66 0.34 5.32 0 6 C-0.66 6 -1.32 6 -2 6 C-1.125 1.125 -1.125 1.125 0 0 Z " fill="#572893" transform="translate(513,382)"/>
<path d="M0 0 C1.98 0 3.96 0 6 0 C6 0.66 6 1.32 6 2 C10.33420699 4.03165952 14.28596212 4.52060632 19 5 C18.67 5.66 18.34 6.32 18 7 C11.29119838 5.95518663 5.9435884 4.30199356 0 1 C0 0.67 0 0.34 0 0 Z " fill="#A6FDFE" transform="translate(171,362)"/>
<path d="M0 0 C1.43655854 -0.08131463 2.8744483 -0.13933559 4.3125 -0.1875 C5.51326172 -0.23970703 5.51326172 -0.23970703 6.73828125 -0.29296875 C9 0 9 0 10.79296875 1.38671875 C12 3 12 3 12 5 C11.43796875 4.68289063 10.8759375 4.36578125 10.296875 4.0390625 C7.84803683 2.93125475 5.91612145 2.61024601 3.25 2.375 C2.45078125 2.30023438 1.6515625 2.22546875 0.828125 2.1484375 C0.22484375 2.09945313 -0.3784375 2.05046875 -1 2 C-0.67 1.34 -0.34 0.68 0 0 Z " fill="#452077" transform="translate(430,348)"/>
<path d="M0 0 C1.5 1.375 1.5 1.375 3 3 C3 3.66 3 4.32 3 5 C0.8828125 6.54296875 0.8828125 6.54296875 -1.875 8.1875 C-2.77992188 8.73792969 -3.68484375 9.28835938 -4.6171875 9.85546875 C-5.40351563 10.23316406 -6.18984375 10.61085938 -7 11 C-7.66 10.67 -8.32 10.34 -9 10 C-8.43410156 9.61328125 -7.86820312 9.2265625 -7.28515625 8.828125 C-6.55167969 8.30734375 -5.81820313 7.7865625 -5.0625 7.25 C-3.96615234 6.48429687 -3.96615234 6.48429687 -2.84765625 5.703125 C-0.79194601 3.80822085 -0.37330824 2.72574271 0 0 Z " fill="#8FF6FA" transform="translate(337,292)"/>
<path d="M0 0 C9.41002278 -0.18451025 9.41002278 -0.18451025 14 1 C10.70901716 3.19398856 10.15167419 3.21503664 6.4375 2.75 C5.65246094 2.66234375 4.86742187 2.5746875 4.05859375 2.484375 C2 2 2 2 0 0 Z " fill="#E8C8F0" transform="translate(463,550)"/>
<path d="M0 0 C-1.36983503 3.16115776 -1.9890638 3.9927092 -5 6 C-7.33199388 6.07905064 -9.66832622 6.08798769 -12 6 C-10.02433812 4.02433812 -8.47662906 3.10420928 -6 1.875 C-5.29875 1.52179688 -4.5975 1.16859375 -3.875 0.8046875 C-2 0 -2 0 0 0 Z " fill="#69ABC4" transform="translate(263,506)"/>
<path d="M0 0 C0.99 0.33 1.98 0.66 3 1 C0.69 3.97 -1.62 6.94 -4 10 C-4.66 9.01 -5.32 8.02 -6 7 C-5.34 7 -4.68 7 -4 7 C-3.71125 6.21625 -3.4225 5.4325 -3.125 4.625 C-2 2 -2 2 0 0 Z " fill="#8AD0E0" transform="translate(268,498)"/>
<path d="M0 0 C0.33 0.99 0.66 1.98 1 3 C-0.21484375 5.04296875 -0.21484375 5.04296875 -1.9375 7.1875 C-2.50339844 7.90292969 -3.06929688 8.61835938 -3.65234375 9.35546875 C-4.09707031 9.89816406 -4.54179687 10.44085938 -5 11 C-5.68359375 9.234375 -5.68359375 9.234375 -6 7 C-4.78515625 5.078125 -4.78515625 5.078125 -3.0625 3.25 C-2.49660156 2.63640625 -1.93070312 2.0228125 -1.34765625 1.390625 C-0.90292969 0.93171875 -0.45820313 0.4728125 0 0 Z " fill="#86CDD9" transform="translate(280,484)"/>
<path d="M0 0 C0.68707555 2.49064888 1 4.37886292 1 7 C2.65 7.33 4.3 7.66 6 8 C6 7.34 6 6.68 6 6 C6.66 6 7.32 6 8 6 C7.67 7.98 7.34 9.96 7 12 C6.67 11.01 6.34 10.02 6 9 C4.5459375 9.0309375 4.5459375 9.0309375 3.0625 9.0625 C0 9 0 9 -1 8 C-1.23529412 2.47058824 -1.23529412 2.47058824 0 0 Z " fill="#482576" transform="translate(304,467)"/>
<path d="M0 0 C0.66 0 1.32 0 2 0 C2.125 6.625 2.125 6.625 1 10 C0.34 10 -0.32 10 -1 10 C-1.02689216 8.52093108 -1.04634621 7.04172517 -1.0625 5.5625 C-1.07410156 4.73878906 -1.08570313 3.91507812 -1.09765625 3.06640625 C-1 1 -1 1 0 0 Z " fill="#893CD5" transform="translate(351,453)"/>
<path d="M0 0 C2 3 2 3 2 6 C3.32 5.01 4.64 4.02 6 3 C6.66 3.33 7.32 3.66 8 4 C5.75 6.0625 5.75 6.0625 3 8 C0.6875 7.75 0.6875 7.75 -1 7 C-0.67 4.69 -0.34 2.38 0 0 Z " fill="#472079" transform="translate(345,445)"/>
<path d="M0 0 C0.33 0 0.66 0 1 0 C1.33 1.65 1.66 3.3 2 5 C4.97 5.495 4.97 5.495 8 6 C8.625 7.875 8.625 7.875 9 10 C8.34 10.66 7.68 11.32 7 12 C7 10.35 7 8.7 7 7 C4.36 7 1.72 7 -1 7 C-0.67 4.69 -0.34 2.38 0 0 Z " fill="#5D3097" transform="translate(302,470)"/>
<path d="M0 0 C2.44563312 2.44563312 3.34131255 4.75525172 4.6875 7.9375 C5.14511719 8.99839844 5.60273437 10.05929687 6.07421875 11.15234375 C7 14 7 14 6 17 C2.91099799 11.33492989 0.42335385 6.49142565 0 0 Z " fill="#91E9F7" transform="translate(120,403)"/>
<path d="M0 0 C0.66 0.66 1.32 1.32 2 2 C-0.64 3.98 -3.28 5.96 -6 8 C-6.66 7.67 -7.32 7.34 -8 7 C-5.36 4.69 -2.72 2.38 0 0 Z " fill="#A2FCFD" transform="translate(301,349)"/>
<path d="M0 0 C1.65 0 3.3 0 5 0 C5 1.65 5 3.3 5 5 C4.01 5.33 3.02 5.66 2 6 C0 3 0 3 0 0 Z " fill="#452075" transform="translate(300,489)"/>
<path d="M0 0 C2 3 2 3 1.8125 5.5625 C1 8 1 8 -2 10 C-5.1875 9.625 -5.1875 9.625 -8 9 C-6.29373855 8.43124618 -4.58622766 7.86613248 -2.875 7.3125 C-0.65022151 6.06376205 -0.65022151 6.06376205 -0.25 2.875 C-0.1675 1.92625 -0.085 0.9775 0 0 Z " fill="#89F8FB" transform="translate(204,387)"/>
<path d="M0 0 C1.65 0 3.3 0 5 0 C3.68 0.33 2.36 0.66 1 1 C1.70339566 3.50965614 1.70339566 3.50965614 3 6 C5.04105639 6.88693303 5.04105639 6.88693303 7 7 C6.34 8.32 5.68 9.64 5 11 C0.07692308 6.81538462 0.07692308 6.81538462 -0.3125 2.6875 C-0.209375 1.800625 -0.10625 0.91375 0 0 Z " fill="#662EAB" transform="translate(516,384)"/>
<path d="M0 0 C3.26954202 0.56371414 4.82575883 1.49962266 7 4 C6.67 4.99 6.34 5.98 6 7 C3.95880212 5.38405168 1.95927063 3.7143618 0 2 C0 1.34 0 0.68 0 0 Z " fill="#3F245F" transform="translate(429,367)"/>
<path d="M0 0 C0.33 1.32 0.66 2.64 1 4 C-3.95 4 -8.9 4 -14 4 C-14 3.67 -14 3.34 -14 3 C-12.60974609 2.80083984 -12.60974609 2.80083984 -11.19140625 2.59765625 C-9.99386719 2.42105469 -8.79632813 2.24445312 -7.5625 2.0625 C-6.36753906 1.88847656 -5.17257812 1.71445312 -3.94140625 1.53515625 C-1.12044324 1.31014787 -1.12044324 1.31014787 0 0 Z " fill="#CFA9E0" transform="translate(387,536)"/>
<path d="M0 0 C0.66 0 1.32 0 2 0 C2 2.64 2 5.28 2 8 C1.01 8 0.02 8 -1 8 C-1.04241723 5.66705225 -1.04092937 3.33297433 -1 1 C-0.67 0.67 -0.34 0.34 0 0 Z " fill="#813AD1" transform="translate(516,482)"/>
<path d="M0 0 C0.99 0.33 1.98 0.66 3 1 C4.34807677 4.29701062 4.10070113 7.7354961 4.0625 11.25 C4.05347656 12.32765625 4.04445313 13.4053125 4.03515625 14.515625 C4.02355469 15.33546875 4.01195312 16.1553125 4 17 C3.67 17 3.34 17 3 17 C2.92652344 15.91332031 2.92652344 15.91332031 2.8515625 14.8046875 C2.44793848 9.58541133 1.98724193 4.90186342 0 0 Z " fill="#C69BD9" transform="translate(444,446)"/>
<path d="M0 0 C1 2 1 2 0.125 4.6875 C-0.24625 5.780625 -0.6175 6.87375 -1 8 C-1.37531446 10.32694964 -1.71917202 12.65976685 -2 15 C-2.33 15 -2.66 15 -3 15 C-3.55353075 4.44191344 -3.55353075 4.44191344 0 0 Z " fill="#5A3B80" transform="translate(466,406)"/>
<path d="M0 0 C1.66611905 -0.042721 3.33382885 -0.04063832 5 0 C6 1 6 1 6.09765625 2.84765625 C6.06510417 4.8984375 6.03255208 6.94921875 6 9 C5.67 9 5.34 9 5 9 C5 6.69 5 4.38 5 2 C3.02 2.66 1.04 3.32 -1 4 C-0.67 2.68 -0.34 1.36 0 0 Z " fill="#74519F" transform="translate(364,343)"/>
<path d="M0 0 C0.598125 0.474375 1.19625 0.94875 1.8125 1.4375 C4.00382924 3.16465744 4.00382924 3.16465744 7 4 C7 4.66 7 5.32 7 6 C4.36 6 1.72 6 -1 6 C-1.33 5.01 -1.66 4.02 -2 3 C-1.34 3 -0.68 3 0 3 C0 2.01 0 1.02 0 0 Z " fill="#BDFDFE" transform="translate(98,327)"/>
<path d="M0 0 C0.99 0 1.98 0 3 0 C3 1.65 3 3.3 3 5 C0.36 5 -2.28 5 -5 5 C-4.360625 4.731875 -3.72125 4.46375 -3.0625 4.1875 C-0.66868314 3.11332248 -0.66868314 3.11332248 0 0 Z " fill="#42216C" transform="translate(447,552)"/>
<path d="M0 0 C3.96 0.33 7.92 0.66 12 1 C12 1.33 12 1.66 12 2 C8.37 2.33 4.74 2.66 1 3 C0.67 2.01 0.34 1.02 0 0 Z " fill="#54327E" transform="translate(390,522)"/>
<path d="M0 0 C0.99 0.33 1.98 0.66 3 1 C3 2.32 3 3.64 3 5 C0.03 4.505 0.03 4.505 -3 4 C-2.01 2.68 -1.02 1.36 0 0 Z " fill="#391B60" transform="translate(420,558)"/>
<path d="M0 0 C0.66 0 1.32 0 2 0 C2 1.65 2 3.3 2 5 C-1.63 5 -5.26 5 -9 5 C-9 4.67 -9 4.34 -9 4 C-6.03 3.34 -3.06 2.68 0 2 C0 1.34 0 0.68 0 0 Z " fill="#D8B5E5" transform="translate(362,543)"/>
<path d="M0 0 C1.22589844 0.01353516 1.22589844 0.01353516 2.4765625 0.02734375 C3.41628906 0.04474609 3.41628906 0.04474609 4.375 0.0625 C4.375 0.3925 4.375 0.7225 4.375 1.0625 C3.76011719 1.18367188 3.14523437 1.30484375 2.51171875 1.4296875 C1.70347656 1.59726562 0.89523437 1.76484375 0.0625 1.9375 C-0.73800781 2.09992188 -1.53851563 2.26234375 -2.36328125 2.4296875 C-4.87801118 3.00728999 -4.87801118 3.00728999 -7.625 5.0625 C-7.25 3.125 -7.25 3.125 -6.625 1.0625 C-4.21954362 -0.14022819 -2.67503047 -0.03821472 0 0 Z " fill="#3D2061" transform="translate(474.625,402.9375)"/>
<path d="M0 0 C1.65 0 3.3 0 5 0 C5 1.32 5 2.64 5 4 C3.35 3.67 1.7 3.34 0 3 C0 2.01 0 1.02 0 0 Z " fill="#341859" transform="translate(456,553)"/>
<path d="M0 0 C0.33 0 0.66 0 1 0 C1 1.65 1 3.3 1 5 C-2.96 5 -6.92 5 -11 5 C-11 4.67 -11 4.34 -11 4 C-10.37351562 3.96261719 -9.74703125 3.92523437 -9.1015625 3.88671875 C-8.28429687 3.82097656 -7.46703125 3.75523437 -6.625 3.6875 C-5.81289063 3.62949219 -5.00078125 3.57148437 -4.1640625 3.51171875 C-1.62078662 3.17009472 -1.62078662 3.17009472 0 0 Z " fill="#422366" transform="translate(478,545)"/>
<path d="M0 0 C0.33 0.66 0.66 1.32 1 2 C0.67 2.66 0.34 3.32 0 4 C-2.97 3.67 -5.94 3.34 -9 3 C-9 2.67 -9 2.34 -9 2 C-6.03 1.34 -3.06 0.68 0 0 Z " fill="#35185C" transform="translate(433,466)"/>
<path d="M0 0 C0 0.66 0 1.32 0 2 C-2.31 2.66 -4.62 3.32 -7 4 C-6.625 2.0625 -6.625 2.0625 -6 0 C-3.50907189 -1.24546405 -2.58919267 -0.7767578 0 0 Z " fill="#4C2480" transform="translate(360,362)"/>
<path d="M0 0 C0.33 0 0.66 0 1 0 C1 1.98 1 3.96 1 6 C1.66 6.33 2.32 6.66 3 7 C1.02 7.99 1.02 7.99 -1 9 C-1.125 2.25 -1.125 2.25 0 0 Z " fill="#99D7DB" transform="translate(341,333)"/>
<path d="M0 0 C1.32 0 2.64 0 4 0 C4 0.66 4 1.32 4 2 C4.66 2.33 5.32 2.66 6 3 C5.67 3.66 5.34 4.32 5 5 C3.0625 4.1875 3.0625 4.1875 1 3 C0.67 2.01 0.34 1.02 0 0 Z " fill="#492774" transform="translate(508,493)"/>
<path d="M0 0 C-1 3 -1 3 -3.875 4.75 C-7 6 -7 6 -10 5 C-8.02 4.34 -6.04 3.68 -4 3 C-4 2.34 -4 1.68 -4 1 C-2 0 -2 0 0 0 Z " fill="#A2E3F9" transform="translate(200,268)"/>
<path d="M0 0 C4.95 0.99 4.95 0.99 10 2 C10 2.33 10 2.66 10 3 C3.375 4.25 3.375 4.25 0 2 C0 1.34 0 0.68 0 0 Z " fill="#54839E" transform="translate(226,510)"/>
<path d="M0 0 C1.98 0 3.96 0 6 0 C5.4225 0.226875 4.845 0.45375 4.25 0.6875 C1.4336339 2.33038023 -0.08077114 4.39533227 -2 7 C-1.125 2.25 -1.125 2.25 0 0 Z " fill="#DEC8E9" transform="translate(305,462)"/>
<path d="M0 0 C2.3431213 0.25561323 4.67843403 0.59270772 7 1 C7.33 1.66 7.66 2.32 8 3 C7.05125 2.979375 6.1025 2.95875 5.125 2.9375 C2.09333717 2.77448174 2.09333717 2.77448174 0 4 C0 2.68 0 1.36 0 0 Z " fill="#1A2B38" transform="translate(137,433)"/>
<path d="M0 0 C2.97 0.495 2.97 0.495 6 1 C5.01 2.485 5.01 2.485 4 4 C3.01 4 2.02 4 1 4 C0.67 2.68 0.34 1.36 0 0 Z " fill="#7744B3" transform="translate(312,405)"/>
<path d="M0 0 C2.31 0 4.62 0 7 0 C5.6875 2 5.6875 2 4 4 C3.01 4 2.02 4 1 4 C0.67 2.68 0.34 1.36 0 0 Z " fill="#361A5A" transform="translate(517,401)"/>
</svg>
