<?xml version="1.0" encoding="UTF-8"?>
<svg version="1.1" xmlns="http://www.w3.org/2000/svg" width="668" height="888">
<path d="M0 0 C220.44 0 440.88 0 668 0 C668 293.04 668 586.08 668 888 C447.56 888 227.12 888 0 888 C0 594.96 0 301.92 0 0 Z " fill="#A51CC6" transform="translate(0,0)"/>
<path d="M0 0 C0.85706543 0.00143005 1.71413086 0.00286011 2.59716797 0.0043335 C15.89948738 0.05923255 28.24998864 0.98854489 40.875 5.5 C41.57399414 5.74057129 42.27298828 5.98114258 42.99316406 6.22900391 C69.13474359 15.39146161 100.18890121 35.57333324 112.875 61.1875 C113.33777344 62.18523437 113.80054688 63.18296875 114.27734375 64.2109375 C115.79759409 67.34064603 117.47546368 70.2891661 119.24365234 73.28100586 C124.00113957 81.37651736 127.55403687 89.3522656 129.875 98.5 C130.26558594 100.02161743 130.26558594 100.02161743 130.6640625 101.57397461 C132.68607831 110.10137325 133.28138278 118.06917392 133.125 126.8125 C133.11259277 128.07126953 133.10018555 129.33003906 133.08740234 130.62695312 C132.75416539 156.81466521 132.75416539 156.81466521 129.875 163.5 C129.45840865 165.2615128 129.08214882 167.03313133 128.75 168.8125 C128.58242188 169.69550781 128.41484375 170.57851563 128.2421875 171.48828125 C128.12101562 172.15214844 127.99984375 172.81601562 127.875 173.5 C127.215 173.5 126.555 173.5 125.875 173.5 C125.771875 174.33015625 125.66875 175.1603125 125.5625 176.015625 C124.77348573 180.01449277 123.43633918 183.501313 121.875 187.25 C121.60171875 187.92160156 121.3284375 188.59320313 121.046875 189.28515625 C120.04993567 191.72374805 119.05361835 194.1427633 117.875 196.5 C117.215 196.5 116.555 196.5 115.875 196.5 C115.730625 197.098125 115.58625 197.69625 115.4375 198.3125 C114.9877561 200.06150404 114.44607659 201.78677023 113.875 203.5 C113.215 203.5 112.555 203.5 111.875 203.5 C111.875 204.49 111.875 205.48 111.875 206.5 C111.215 206.5 110.555 206.5 109.875 206.5 C109.875 207.49 109.875 208.48 109.875 209.5 C109.215 209.5 108.555 209.5 107.875 209.5 C107.441875 210.36625 107.441875 210.36625 107 211.25 C105.95833333 213.33333333 104.91666667 215.41666667 103.875 217.5 C103.215 217.5 102.555 217.5 101.875 217.5 C101.64039063 218.23347656 101.40578125 218.96695313 101.1640625 219.72265625 C99.65279688 222.97874673 97.95225608 224.59080393 95.25 226.9375 C94.35925781 227.71222656 93.46851563 228.48695313 92.55078125 229.28515625 C89.62858669 231.70396547 86.6532867 234.00694352 83.56640625 236.2109375 C81.85128826 237.44945512 81.85128826 237.44945512 80.46875 238.96484375 C78.436534 240.92234592 76.23371188 242.24333091 73.8125 243.6875 C72.93464844 244.21730469 72.05679688 244.74710938 71.15234375 245.29296875 C68.875 246.5 68.875 246.5 66.875 246.5 C66.875 247.16 66.875 247.82 66.875 248.5 C59.89395477 252.21332193 53.03583819 255.32167862 45.46875 257.640625 C42.94848069 258.39296117 42.94848069 258.39296117 41.05078125 259.48046875 C37.705144 261.0481731 34.14818638 261.74743041 30.5625 262.5625 C29.82837891 262.73587891 29.09425781 262.90925781 28.33789062 263.08789062 C-0.39589709 269.74229932 -34.45788475 266.57088486 -60.125 251.5 C-61.1975 251.066875 -62.27 250.63375 -63.375 250.1875 C-72.59050599 246.35285992 -80.54689367 239.86560932 -88.125 233.5 C-88.8365625 232.9121875 -89.548125 232.324375 -90.28125 231.71875 C-95.05082335 227.68295716 -99.1922212 223.35126218 -103.125 218.5 C-103.82496094 217.63761719 -104.52492188 216.77523437 -105.24609375 215.88671875 C-127.96372574 186.79082614 -136.73738774 150.79463999 -132.62890625 114.22265625 C-130.83619767 101.5120696 -127.28198201 88.78780035 -121.125 77.5 C-120.66609375 76.41332031 -120.2071875 75.32664062 -119.734375 74.20703125 C-115.17109649 63.43854692 -108.82325901 54.24141932 -101.125 45.5 C-100.04412109 44.21996094 -100.04412109 44.21996094 -98.94140625 42.9140625 C-93.55746877 36.67598877 -87.67084809 31.49132623 -81.125 26.5 C-79.97451172 25.60861328 -79.97451172 25.60861328 -78.80078125 24.69921875 C-68.20616485 16.87467183 -56.37818188 11.02889106 -44 6.625 C-42.85748779 6.21411133 -42.85748779 6.21411133 -41.69189453 5.79492188 C-27.86150592 1.112169 -14.46602116 -0.07801129 0 0 Z " fill="#FDFCFD" transform="translate(379.125,285.5)"/>
<path d="M0 0 C1.58167969 -0.00580078 1.58167969 -0.00580078 3.1953125 -0.01171875 C10.9679804 -0.00197856 17.62539785 0.52219924 25 3.125 C25.69480469 3.30675781 26.38960938 3.48851562 27.10546875 3.67578125 C37.90784685 6.54819174 47.71677961 11.82233991 56.6796875 18.43359375 C59.03849222 20.15305915 61.4668672 21.69691733 63.9375 23.25 C67.39930535 25.53370405 68.98965508 27.46982741 71 31.125 C72.010625 31.90875 73.02125 32.6925 74.0625 33.5 C89.20780694 46.11575251 96.17094185 68.89719916 98.6875 87.6875 C100.97950603 113.99781916 93.49174215 138.81934063 78 160.125 C76.69645088 161.4874666 75.36617228 162.8253351 74 164.125 C73.29875 164.846875 72.5975 165.56875 71.875 166.3125 C70.91988267 167.25327623 69.96099853 168.1902322 69 169.125 C68.34644531 169.7746875 67.69289062 170.424375 67.01953125 171.09375 C46.7240181 190.40338395 21.12315906 198.6848241 -6.5703125 198.3359375 C-23.03769097 197.86971672 -45.98424956 192.65228434 -57.9375 180.375 C-58.9584375 179.26125 -58.9584375 179.26125 -60 178.125 C-61.31747324 177.42751417 -62.64914193 176.75540043 -64 176.125 C-65.75 174.625 -65.75 174.625 -67 173.125 C-67 172.465 -67 171.805 -67 171.125 C-67.60376465 171.01776611 -68.2075293 170.91053223 -68.82958984 170.80004883 C-72.42084212 169.68308454 -74.32885211 166.63970884 -76.625 163.8125 C-77.11484375 163.23048828 -77.6046875 162.64847656 -78.109375 162.04882812 C-81.66751547 157.75669966 -84.2395351 154.40480886 -84.27415466 148.63568115 C-84.28412979 147.74142929 -84.29410492 146.84717743 -84.30438232 145.92582703 C-84.305047 144.95224747 -84.30571167 143.97866791 -84.30639648 142.97558594 C-84.31472 141.94422012 -84.32304352 140.91285431 -84.33161926 139.85023499 C-84.35573756 136.4365767 -84.3644943 133.02310949 -84.37109375 129.609375 C-84.38005962 127.23528994 -84.38918146 124.86120547 -84.39845276 122.48712158 C-84.41495095 117.50718818 -84.42264423 112.52732207 -84.42553711 107.54736328 C-84.43091755 101.17397262 -84.46858102 94.80121676 -84.51428127 88.42800522 C-84.54406343 83.52255968 -84.55126095 78.61726667 -84.55226326 73.71173859 C-84.55646425 71.36264391 -84.56889354 69.01354872 -84.58978081 66.66454315 C-84.61671383 63.37322217 -84.61186261 60.08336805 -84.59936523 56.79199219 C-84.61419952 55.82650955 -84.62903381 54.86102692 -84.64431763 53.86628723 C-84.52180307 42.50364609 -77.45126245 36.03140065 -70 28.125 C-69.45730469 27.50625 -68.91460937 26.8875 -68.35546875 26.25 C-51.50382768 7.81985078 -24.06421203 -0.08825506 0 0 Z " fill="#FCFAFD" transform="translate(84,211.875)"/>
<path d="M0 0 C1.40572266 0.65742188 1.40572266 0.65742188 2.83984375 1.328125 C6.32106353 3.16985809 9.40104955 5.34077313 12.5 7.75 C13.06807373 8.18957031 13.63614746 8.62914062 14.22143555 9.08203125 C18.3736767 12.36127998 21.86720314 15.70359287 25 20 C25 20.66 25 21.32 25 22 C25.598125 22.226875 26.19625 22.45375 26.8125 22.6875 C31.88887336 25.73332402 33.26411641 32.17384094 35.0625 37.5 C35.57328714 38.98990304 36.08498343 40.47949476 36.59765625 41.96875 C36.93035522 42.95004883 36.93035522 42.95004883 37.26977539 43.95117188 C38.0008618 46.0828859 38.0008618 46.0828859 39.06884766 48.41308594 C40.74012615 53.05620784 40.3273212 57.86493322 40.3125 62.75 C40.32861328 63.79671875 40.34472656 64.8434375 40.36132812 65.921875 C40.36547978 72.56452658 39.43628279 77.84509741 37 84 C36.22679852 86.57390182 35.48274404 89.15376245 34.74609375 91.73828125 C34.01351145 93.95904119 33.09875637 95.93924234 32 98 C31.34 98 30.68 98 30 98 C29.814375 98.825 29.62875 99.65 29.4375 100.5 C24.54317164 112.41662558 10.31658815 123.48181935 -1.32421875 128.40625 C-21.71994647 135.99125577 -41.14392498 136.47037119 -61.23217773 127.31445312 C-68.90274854 123.62004841 -75.09485142 119.20150362 -81 113 C-81.63164062 112.36449219 -82.26328125 111.72898437 -82.9140625 111.07421875 C-96.07144591 97.07638574 -101.59105551 78.28200635 -101.2890625 59.3828125 C-100.86475353 49.78657226 -97.91528637 39.72041055 -94 31 C-93.01 30.505 -93.01 30.505 -92 30 C-91.29722315 28.3087477 -90.5960209 26.61680985 -89.90576172 24.92041016 C-88.43860024 21.80971145 -86.28690521 19.27547812 -84.0625 16.6875 C-83.41764648 15.90149414 -83.41764648 15.90149414 -82.75976562 15.09960938 C-80.38590805 12.28628196 -78.36556772 10.46297698 -75 9 C-73.88625 7.824375 -73.88625 7.824375 -72.75 6.625 C-54.88535059 -10.42761989 -20.79304514 -10.89731846 0 0 Z " fill="#FCF8FC" transform="translate(311,140)"/>
<path d="M0 0 C13.20444182 11.02542955 21.96804531 26.42404329 23.83984375 43.59375 C25.13367122 61.36685373 20.73332322 77.57822177 9.83984375 91.59375 C9.26621094 92.356875 8.69257813 93.12 8.1015625 93.90625 C-0.82011882 104.91029378 -16.02686195 113.90569846 -30.16015625 115.59375 C-51.54766062 116.99375543 -68.83857163 113.89860378 -85.84765625 99.96875 C-98.86549414 87.75419067 -106.8138894 70.53910995 -107.56469727 52.74169922 C-107.77866976 39.60854287 -104.28729325 27.67305809 -97.16015625 16.59375 C-96.57363281 15.66820312 -95.98710938 14.74265625 -95.3828125 13.7890625 C-88.7552019 4.00351065 -80.52187784 -2.48549378 -70.09765625 -7.84375 C-69.14342773 -8.33911255 -69.14342773 -8.33911255 -68.16992188 -8.84448242 C-46.61924052 -19.31563622 -18.45521634 -14.05242678 0 0 Z " fill="#FEFEFE" transform="translate(124.16015625,260.40625)"/>
<path d="M0 0 C4.10264263 3.33936028 5.96273434 5.1905914 7.35742188 10.38647461 C7.79302429 11.97974831 7.79302429 11.97974831 8.23742676 13.60520935 C8.54063843 14.7551387 8.8438501 15.90506805 9.15625 17.08984375 C9.63862122 18.87196007 9.63862122 18.87196007 10.1307373 20.69007874 C10.98519215 23.85479401 11.83068273 27.0217293 12.67205811 30.18994141 C13.51955663 33.37159839 14.37971021 36.54983187 15.23828125 39.72851562 C17.65977045 48.71900317 20.07037173 57.71188162 22.37695312 66.73266602 C22.74004578 68.14987694 22.74004578 68.14987694 23.11047363 69.59571838 C24.27468034 74.8248894 24.52293654 78.60613797 21.9375 83.5 C17.8991601 88.32357266 14.07027429 89.89313996 8.0625 91.4375 C7.2876123 91.64439453 6.51272461 91.85128906 5.71435547 92.06445312 C3.9882214 92.52493455 2.26111071 92.98176573 0.53320312 93.43554688 C-2.50804719 94.2391717 -5.5433334 95.06295456 -8.578125 95.890625 C-14.09762985 97.39452464 -19.622924 98.87539728 -25.15185547 100.34423828 C-27.18610408 100.88697694 -29.21909784 101.43445261 -31.25048828 101.98779297 C-54.24503255 108.24950211 -54.24503255 108.24950211 -61.34765625 105.359375 C-72.2745641 98.02837101 -74.57754583 73.49327676 -77.67114258 61.74145508 C-78.63178607 58.09927128 -79.60556436 54.46075963 -80.58007812 50.82226562 C-81.19610652 48.4950017 -81.81136885 46.16753483 -82.42578125 43.83984375 C-82.71632889 42.75855698 -83.00687653 41.6772702 -83.30622864 40.56321716 C-83.57038071 39.55098587 -83.83453278 38.53875458 -84.10668945 37.49584961 C-84.34031693 36.61287704 -84.5739444 35.72990448 -84.81465149 34.82017517 C-85.70094568 30.13335847 -85.87011774 26.2126285 -83.375 22.0625 C-82.83552734 21.09957031 -82.83552734 21.09957031 -82.28515625 20.1171875 C-77.00560741 14.95263874 -69.05919176 13.4077033 -62.0625 11.8125 C-54.90420858 10.10337814 -47.81694212 8.24209568 -40.75 6.1875 C-33.84256196 4.19537814 -26.93517618 2.2062129 -20 0.3125 C-19.24195068 0.09722656 -18.48390137 -0.11804688 -17.70288086 -0.33984375 C-11.55806543 -1.99398014 -5.81183033 -3.18005811 0 0 Z " fill="#FEFEFE" transform="translate(408.3125,366.8125)"/>
<path d="M0 0 C0.6379248 0.20898926 1.27584961 0.41797852 1.93310547 0.63330078 C28.17299611 9.45926551 48.23118657 28.91211477 60.68359375 53.296875 C64.69969269 61.99007669 66.83810018 70.78648545 68.64013672 80.15576172 C68.92669787 81.62433901 69.25175727 83.08539059 69.58984375 84.54296875 C73.4759491 107.82259033 65.42556504 133.35207693 52.31640625 152.453125 C50.6128403 154.70356316 48.83513744 156.85578678 47 159 C46.35675781 159.78761719 45.71351563 160.57523438 45.05078125 161.38671875 C28.88821385 180.41732029 6.63349866 191.72244482 -18 195 C-47.50648735 197.19067413 -72.7604171 190.96731501 -95.609375 171.8125 C-116.43110045 153.64081234 -129.0706052 129.57185641 -131.15966797 101.88378906 C-132.76726902 72.84024148 -121.57917848 47.7204965 -103.14453125 25.79296875 C-77.75507114 -1.72629154 -35.12764402 -11.66077945 0 0 Z M-97 38 C-109.66120874 53.30911725 -117.60214606 72.10730301 -118 92 C-118.061875 93.010625 -118.12375 94.02125 -118.1875 95.0625 C-119.08483807 117.49595173 -109.5083146 138.69983849 -94.75 155.1875 C-84.80413819 165.84243154 -73.34416084 172.50648673 -60 178 C-58.40865234 178.68642578 -58.40865234 178.68642578 -56.78515625 179.38671875 C-37.66212011 186.25943666 -12.90485805 183.70562107 5.35009766 175.21313477 C29.15288158 163.5177552 44.17433987 145.85373094 53.38671875 121.3046875 C59.92351844 99.69884432 57.47035719 75.45354004 47.1237793 55.58203125 C34.67387322 32.65532593 16.15146285 18.74638032 -8.44140625 10.90234375 C-40.28653813 2.82745301 -75.10197498 13.74530778 -97 38 Z " fill="#E6E6E6" transform="translate(408,324)"/>
<path d="M0 0 C9.7832894 8.50626711 14.05001209 23.0484187 14.953125 35.53515625 C16.00289208 54.42359682 14.83742263 73.09887346 3.015625 88.72265625 C-3.40858873 95.52069276 -11.91327999 99.73964513 -21.23217773 100.21508789 C-32.61479096 100.25681203 -40.54790996 97.03141953 -48.78515625 89.15625 C-62.35497611 73.43025841 -62.17545355 51.06540794 -61.046875 31.53515625 C-59.64401008 19.87655041 -54.69609359 8.08160843 -45.97265625 0.03515625 C-31.75016955 -11.04280499 -14.29406544 -10.22953157 0 0 Z " fill="#FDFBFE" transform="translate(503.046875,674.46484375)"/>
<path d="M0 0 C11.05641459 7.06335439 18.65069513 16.7823074 21.8125 29.5625 C24.24148312 41.45899688 22.76157282 53.19705095 17 64 C9.61293679 75.14215367 0.26583734 81.81904328 -12.61328125 85.33984375 C-26.14748361 87.97799854 -39.17349256 85.25211423 -50.72265625 77.74609375 C-59.98491791 70.6444969 -66.97315914 59.55299292 -69 48 C-69.86501718 33.57677879 -66.92453998 21.26250294 -58.18359375 9.5703125 C-43.50426378 -6.18161987 -18.90772115 -10.73872003 0 0 Z " fill="#FEFEFE" transform="translate(303,163)"/>
<path d="M0 0 C1.010625 0.804375 2.02125 1.60875 3.0625 2.4375 C4.0525 2.80875 5.0425 3.18 6.0625 3.5625 C14.47453397 8.82002123 19.42883268 21.64433904 21.6796875 31.00390625 C23.03016029 39.5890547 21.45007012 47.16627493 19.0625 55.4375 C18.4025 55.4375 17.7425 55.4375 17.0625 55.4375 C16.79566406 56.17097656 16.52882813 56.90445313 16.25390625 57.66015625 C12.76450982 65.79445416 6.69117838 71.24745795 -0.9375 75.4375 C-1.61683594 75.85128906 -2.29617187 76.26507813 -2.99609375 76.69140625 C-14.1969474 82.42161123 -29.74407144 80.60851705 -41.4375 77.25 C-42.12465088 77.05414307 -42.81180176 76.85828613 -43.51977539 76.65649414 C-48.1227457 75.15215373 -50.72061596 72.98389126 -53.9375 69.4375 C-55.096152 68.59305871 -56.26190898 67.75819562 -57.4375 66.9375 C-63.5204546 61.78425462 -65.84281745 53.06741098 -66.75 45.375 C-66.83516847 43.73018392 -66.89671945 42.08401467 -66.9375 40.4375 C-66.999375 39.48101562 -67.06125 38.52453125 -67.125 37.5390625 C-67.59018236 26.22931639 -63.8437154 17.27611144 -56.9375 8.4375 C-56.45925781 7.82132813 -55.98101562 7.20515625 -55.48828125 6.5703125 C-42.25932157 -8.42472996 -16.32609201 -11.81493501 0 0 Z " fill="#FDFAFD" transform="translate(88.9375,73.5625)"/>
<path d="M0 0 C5.94 0 11.88 0 18 0 C21.07225341 3.19586649 21.73780682 4.12162836 23 8 C23.68671467 9.32688099 24.39499165 10.64283293 25.12475586 11.9465332 C25.82499725 13.31280459 26.52157718 14.68095755 27.21484375 16.05078125 C27.78217979 17.15996162 27.78217979 17.15996162 28.36097717 18.29154968 C29.55654313 20.6301538 30.74732343 22.97114918 31.9375 25.3125 C33.12483951 27.64275393 34.31326095 29.97244451 35.50331116 32.30131531 C36.23863898 33.74086968 36.97238315 35.18123477 37.7040863 36.62263489 C40.69330671 42.48378011 43.84504786 48.21592109 47 54 C47.33 36.18 47.66 18.36 48 0 C54.6 0 61.2 0 68 0 C68 34.65 68 69.3 68 105 C62.06 105 56.12 105 50 105 C45.66505887 96.87198538 41.34156205 88.75306534 37.25 80.5 C31.6329377 69.2658754 25.7946518 58.14356115 20 47 C19.67 65.81 19.34 84.62 19 104 C12.73 104 6.46 104 0 104 C0 69.68 0 35.36 0 0 Z " fill="#FDFBFE" transform="translate(303,668)"/>
<path d="M0 0 C40.33333333 0 40.33333333 0 52.25 8.25 C59.0520303 15.0520303 62.21086604 22.47831339 62.38012695 32.08129883 C62.36313965 40.71651011 62.22304924 48.22069877 58 56 C57.649375 56.66 57.29875 57.32 56.9375 58 C52.92827762 64.45930273 46.36686756 68.39204826 39.3125 70.875 C34 72 34 72 20 72 C20 82.89 20 93.78 20 105 C13.4 105 6.8 105 0 105 C0 70.35 0 35.7 0 0 Z " fill="#FDFAFE" transform="translate(152,668)"/>
<path d="M0 0 C6.6 0 13.2 0 20 0 C20.33 14.19 20.66 28.38 21 43 C24.4340625 36.8125 24.4340625 36.8125 27.9375 30.5 C33.59299999 20.31506801 39.27424878 10.14562935 45 0 C52.59 0 60.18 0 68 0 C66.50873567 3.72816083 65.1276531 6.63426387 63.05859375 9.9921875 C62.47859619 10.93779541 61.89859863 11.88340332 61.30102539 12.85766602 C60.68606201 13.85338623 60.07109863 14.84910645 59.4375 15.875 C58.81286865 16.89843506 58.1882373 17.92187012 57.54467773 18.97631836 C54.74866312 23.55570575 51.93600719 28.12042018 49.0390625 32.63671875 C48.40206421 33.64726318 48.40206421 33.64726318 47.75219727 34.67822266 C46.98295759 35.89656697 46.2003786 37.10663445 45.40209961 38.30615234 C43.77531755 40.90605362 42.97181576 42.57054468 43.17480469 45.66357422 C44.2198057 49.88871736 45.92447618 53.5393393 47.82421875 57.44140625 C48.40004448 58.64759865 48.40004448 58.64759865 48.98750305 59.87815857 C50.21376247 62.4430668 51.45028817 65.00285959 52.6875 67.5625 C53.50006368 69.25551653 54.31191929 70.94887309 55.12304688 72.64257812 C55.51952423 73.4701059 55.91600159 74.29763367 56.32449341 75.15023804 C59.45095608 81.67761189 59.45095608 81.67761189 60.9418335 84.79327393 C61.62283465 86.21345023 62.30597375 87.63260436 62.99176025 89.05047607 C63.86227074 90.85185778 64.72252393 92.65818613 65.58203125 94.46484375 C66.05487549 95.44960693 66.52771973 96.43437012 67.01489258 97.44897461 C68 100 68 100 68 104 C60.74 104 53.48 104 46 104 C44.79601562 101.44765625 43.59203125 98.8953125 42.3515625 96.265625 C41.18337817 93.78998716 40.01503654 91.31442361 38.84667969 88.83886719 C38.03564269 87.12019485 37.22476889 85.4014455 36.4140625 83.68261719 C35.24782667 81.2100829 34.08100156 78.73782746 32.9140625 76.265625 C32.55253082 75.49881409 32.19099915 74.73200317 31.81851196 73.94195557 C31.30820938 72.86128815 31.30820938 72.86128815 30.78759766 71.75878906 C30.49003571 71.12813538 30.19247375 70.49748169 29.88589478 69.84771729 C28.94587287 67.88710664 27.97741471 65.94220332 27 64 C20.44818049 72.28399579 20.10185637 80.04826318 20.125 90.125 C20.10683572 91.57295261 20.08602144 93.02087451 20.0625 94.46875 C20.00624741 97.98051913 20.00426942 101.48626836 20 105 C13.4 105 6.8 105 0 105 C0 70.35 0 35.7 0 0 Z " fill="#FDFAFE" transform="translate(379,668)"/>
<path d="M0 0 C15.37306201 11.45549787 27.03522427 27.24509066 30.9609375 46.23828125 C33.19380743 61.56011617 32.72328112 77.0929615 26.47265625 91.34375 C25.97636719 92.478125 25.48007813 93.6125 24.96875 94.78125 C20.79741474 103.30484591 15.156215 109.74762152 8.47265625 116.34375 C7.79203125 117.02308594 7.11140625 117.70242188 6.41015625 118.40234375 C-9.35687318 133.15108587 -28.67861929 136.93940444 -49.44921875 136.6171875 C-66.03496455 135.99072515 -81.3657176 128.34909251 -93.52734375 117.34375 C-94.29691406 116.66699219 -95.06648438 115.99023438 -95.859375 115.29296875 C-107.67899241 104.27877672 -116.56904654 87.14190806 -117.7043457 70.79516602 C-118.20916513 48.57305492 -114.89296274 29.52089459 -99.52734375 12.34375 C-98.88410156 11.60769531 -98.24085937 10.87164062 -97.578125 10.11328125 C-72.06239334 -17.28901098 -30.69448041 -20.11508453 0 0 Z M-90.52734375 16.34375 C-102.64153881 30.30715241 -109.75380258 46.62125782 -108.90625 65.296875 C-107.51340059 83.33842281 -99.31829665 99.86660669 -85.671875 111.8515625 C-72.87582148 121.88313874 -59.15951217 126.92792728 -42.90234375 126.65625 C-41.93039063 126.65947266 -40.9584375 126.66269531 -39.95703125 126.66601562 C-30.62949651 126.59706208 -22.88359236 124.9918492 -14.58984375 120.71875 C-13.89818115 120.36466064 -13.20651855 120.01057129 -12.49389648 119.64575195 C2.80917585 111.57711909 13.91765231 98.86585975 19.46875 82.38671875 C24.64876252 64.26906732 23.30967723 46.13629361 14.47265625 29.34375 C4.59860811 13.81900897 -8.68499913 3.71054077 -26.21484375 -1.65625 C-49.91658796 -6.64268252 -73.13802593 -0.67558233 -90.52734375 16.34375 Z " fill="#E6E6E6" transform="translate(125.52734375,249.65625)"/>
<path d="M0 0 C6.6 0 13.2 0 20 0 C20 28.38 20 56.76 20 86 C30.23 86 40.46 86 51 86 C51 92.27 51 98.54 51 105 C34.17 105 17.34 105 0 105 C0 70.35 0 35.7 0 0 Z " fill="#FDFBFE" transform="translate(218,668)"/>
<path d="M0 0 C6.5717739 4.66065766 12.49008646 10.83136774 14 19 C14.8720319 28.74960252 13.38305899 36.79568652 7.5 44.75 C1.79096784 50.78895111 -5.91074812 54.32994758 -14.1875 54.5625 C-24.39446708 53.93785488 -31.16040846 50.72596027 -38 43 C-43.74533896 35.39311765 -44.09662378 27.26037859 -43 18 C-40.7118569 9.43163437 -35.42526613 3.54536086 -27.96484375 -1.01953125 C-20.01635395 -4.98587506 -7.59946769 -4.64869824 0 0 Z " fill="#FEFEFE" transform="translate(80,85)"/>
<path d="M0 0 C4.10264263 3.33936028 5.96273434 5.1905914 7.35742188 10.38647461 C7.79302429 11.97974831 7.79302429 11.97974831 8.23742676 13.60520935 C8.54063843 14.7551387 8.8438501 15.90506805 9.15625 17.08984375 C9.63862122 18.87196007 9.63862122 18.87196007 10.1307373 20.69007874 C10.98519215 23.85479401 11.83068273 27.0217293 12.67205811 30.18994141 C13.51955663 33.37159839 14.37971021 36.54983187 15.23828125 39.72851562 C17.65977045 48.71900317 20.07037173 57.71188162 22.37695312 66.73266602 C22.74004578 68.14987694 22.74004578 68.14987694 23.11047363 69.59571838 C24.27468034 74.8248894 24.52293654 78.60613797 21.9375 83.5 C17.8991601 88.32357266 14.07027429 89.89313996 8.0625 91.4375 C7.2876123 91.64439453 6.51272461 91.85128906 5.71435547 92.06445312 C3.9882214 92.52493455 2.26111071 92.98176573 0.53320312 93.43554688 C-2.50804719 94.2391717 -5.5433334 95.06295456 -8.578125 95.890625 C-14.09762985 97.39452464 -19.622924 98.87539728 -25.15185547 100.34423828 C-27.18610408 100.88697694 -29.21909784 101.43445261 -31.25048828 101.98779297 C-54.24503255 108.24950211 -54.24503255 108.24950211 -61.34765625 105.359375 C-72.2745641 98.02837101 -74.57754583 73.49327676 -77.67114258 61.74145508 C-78.63178607 58.09927128 -79.60556436 54.46075963 -80.58007812 50.82226562 C-81.19610652 48.4950017 -81.81136885 46.16753483 -82.42578125 43.83984375 C-82.71632889 42.75855698 -83.00687653 41.6772702 -83.30622864 40.56321716 C-83.57038071 39.55098587 -83.83453278 38.53875458 -84.10668945 37.49584961 C-84.34031693 36.61287704 -84.5739444 35.72990448 -84.81465149 34.82017517 C-85.70094568 30.13335847 -85.87011774 26.2126285 -83.375 22.0625 C-82.83552734 21.09957031 -82.83552734 21.09957031 -82.28515625 20.1171875 C-77.00560741 14.95263874 -69.05919176 13.4077033 -62.0625 11.8125 C-54.90420858 10.10337814 -47.81694212 8.24209568 -40.75 6.1875 C-33.84256196 4.19537814 -26.93517618 2.2062129 -20 0.3125 C-19.24195068 0.09722656 -18.48390137 -0.11804688 -17.70288086 -0.33984375 C-11.55806543 -1.99398014 -5.81183033 -3.18005811 0 0 Z M-18.140625 7.98046875 C-18.88315521 8.16683395 -19.62568542 8.35319916 -20.39071655 8.54521179 C-22.78320364 9.14793144 -25.17286899 9.76106365 -27.5625 10.375 C-29.20352234 10.79153683 -30.84463584 11.20771468 -32.48583984 11.62353516 C-41.9925743 14.04051964 -51.49472539 16.47966131 -60.91796875 19.20703125 C-63.09999038 19.83728146 -65.28989479 20.44116581 -67.48828125 21.01171875 C-68.85533203 21.37716797 -68.85533203 21.37716797 -70.25 21.75 C-71.34634766 22.03037109 -71.34634766 22.03037109 -72.46484375 22.31640625 C-75.14863267 23.58170208 -76.01689199 24.48083377 -77.3125 27.1875 C-77.24199725 33.42207301 -75.63087747 39.46596707 -73.984375 45.4375 C-73.75349182 46.29448486 -73.52260864 47.15146973 -73.284729 48.03442383 C-72.79691717 49.84035679 -72.30596314 51.64544367 -71.81201172 53.44970703 C-71.07251181 56.15092919 -70.3419863 58.85444182 -69.61328125 61.55859375 C-68.43130941 65.93327116 -67.22386512 70.30042026 -66.00708008 74.66552734 C-65.32457677 77.14365006 -64.66745705 79.62744973 -64.01367188 82.11328125 C-63.59835598 83.63821158 -63.18237514 85.16296101 -62.765625 86.6875 C-62.59125916 87.37545654 -62.41689331 88.06341309 -62.23724365 88.7722168 C-60.93056368 93.44037379 -59.12455463 96.19077354 -55.3125 99.1875 C-43.12199245 99.38412109 -30.03921424 93.84543951 -18.38745117 90.4765625 C-13.92412882 89.19240982 -9.45605219 87.95034299 -4.95703125 86.796875 C-4.10206055 86.57765381 -3.24708984 86.35843262 -2.36621094 86.13256836 C-0.75515422 85.72348879 0.85740233 85.32025207 2.47167969 84.92407227 C9.64698223 83.19192236 9.64698223 83.19192236 15.6875 79.1875 C15.95053408 73.63812244 15.38619553 69.03775763 13.96484375 63.62890625 C13.78399231 62.93036026 13.60314087 62.23181427 13.41680908 61.51210022 C12.82955131 59.2553021 12.22803783 57.00262824 11.625 54.75 C11.21281786 53.18746369 10.80111952 51.62479969 10.38989258 50.06201172 C9.36111617 46.16479485 8.31866524 42.2713666 7.27319336 38.37860107 C6.72235308 36.31788671 6.17865544 34.25547699 5.63867188 32.19189453 C4.73072076 28.72838203 3.80645196 25.2697553 2.875 21.8125 C2.47752563 20.29184937 2.47752563 20.29184937 2.07202148 18.74047852 C0.20398766 11.71657896 0.20398766 11.71657896 -4.3125 6.1875 C-9.14189425 5.77365374 -13.49903752 6.7792539 -18.140625 7.98046875 Z " fill="#E6E6E6" transform="translate(408.3125,366.8125)"/>
<path d="M0 0 C0.78246094 0.24492187 1.56492187 0.48984375 2.37109375 0.7421875 C15.63948352 5.42027812 25.75063209 14.81010749 31.8125 27.4375 C38.01873616 42.38698103 38.93328498 55.85652929 32.78125 71 C26.40497456 84.88611097 16.14570028 94.46034069 2.00390625 99.96484375 C-12.52333788 104.97098119 -25.88680268 103.77345388 -39.91015625 97.75 C-53.9271992 90.81047944 -62.18479972 78.9784413 -67.23828125 64.54296875 C-71.25296266 51.14010927 -68.88029259 38.35498215 -63.25 25.8125 C-55.44372522 11.49597289 -43.33172175 3.48172774 -28.1640625 -1.6171875 C-19.3145646 -3.18262215 -8.53441443 -2.86124877 0 0 Z M-53.36328125 22.62890625 C-60.87657022 33.51331295 -63.04632229 44.98076122 -62 58 C-59.39881169 70.52017749 -52.51114768 81.64720989 -42 89 C-38.43336089 90.99446866 -34.83041895 92.58366246 -31 94 C-30.34515625 94.24621094 -29.6903125 94.49242187 -29.015625 94.74609375 C-16.94575344 98.48569071 -4.13870455 95.97748111 6.94140625 90.5625 C18.67649717 83.7727951 25.22967719 73.84639401 29 61 C29.88527109 57.31558496 29.88527109 57.31558496 30 54 C30.0825 52.80375 30.165 51.6075 30.25 50.375 C29.98348405 37.82452145 25.21528171 26.31806965 16.6875 17.125 C7.23739354 8.45711712 -3.61645958 4.40805031 -16.3125 4.5 C-17.69453613 4.50858032 -17.69453613 4.50858032 -19.10449219 4.51733398 C-33.30406264 4.88844208 -44.35690806 11.8590474 -53.36328125 22.62890625 Z " fill="#E7E7E7" transform="translate(296,153)"/>
<path d="M0 0 C6.91811039 3.11993214 9.52650466 9.16788886 12.125 15.92578125 C13.70199875 21.75017377 13.28742629 27.89303135 13.25 33.875 C13.26160156 35.71771484 13.26160156 35.71771484 13.2734375 37.59765625 C13.25211753 47.54342282 12.84395509 58.9612464 5.4765625 66.57421875 C2.21914124 69.34699929 0.01023758 70.90286177 -4.25 71.3125 C-8.92345502 70.92304542 -10.53008153 70.17460626 -14 67 C-23.2198131 53.68738204 -23.69631754 37.52762925 -21.5 21.875 C-19.91010949 13.49194093 -17.6169618 7.21507716 -11.1875 1.5 C-7.22128579 -0.36645374 -4.30121939 -0.81886942 0 0 Z " fill="#9F13C8" transform="translate(484,685)"/>
<path d="M0 0 C6.27 0 12.54 0 19 0 C19 34.32 19 68.64 19 104 C12.73 104 6.46 104 0 104 C0 69.68 0 35.36 0 0 Z " fill="#FEFEFE" transform="translate(274,668)"/>
<path d="M0 0 C2.76370426 1.73737719 4.21277118 3.19806301 6.046875 5.94921875 C1.75 9.953125 1.75 9.953125 0.046875 10.94921875 C-2.89494908 10.61717128 -5.09656354 9.39992046 -7.640625 7.94921875 C-11.99732461 5.68471952 -16.09433992 5.1741625 -20.953125 4.94921875 C-20.953125 6.26921875 -20.953125 7.58921875 -20.953125 8.94921875 C-20.43927246 9.15490479 -19.92541992 9.36059082 -19.39599609 9.57250977 C-17.03139952 10.53234544 -14.68021545 11.52165277 -12.328125 12.51171875 C-11.11576172 12.99608398 -11.11576172 12.99608398 -9.87890625 13.49023438 C-4.24971498 15.89293797 -0.24749728 18.69629963 3.046875 23.94921875 C3.734375 27.01171875 3.734375 27.01171875 3.046875 29.94921875 C-0.19187418 34.95455839 -3.11073879 37.22523593 -8.953125 38.94921875 C-19.16250266 40.18671907 -28.87323985 37.26586757 -36.953125 30.94921875 C-38.953125 28.63671875 -38.953125 28.63671875 -39.953125 26.94921875 C-36.488125 24.47421875 -36.488125 24.47421875 -32.953125 21.94921875 C-30.42377099 23.16330867 -28.18214422 24.45806607 -25.828125 26.01171875 C-20.93169467 28.86885489 -15.51096077 28.94921875 -9.953125 28.94921875 C-9.953125 27.62921875 -9.953125 26.30921875 -9.953125 24.94921875 C-10.48679687 24.7790625 -11.02046875 24.60890625 -11.5703125 24.43359375 C-14.04012993 23.63026213 -16.49621479 22.79117321 -18.953125 21.94921875 C-19.81550781 21.67078125 -20.67789062 21.39234375 -21.56640625 21.10546875 C-27.45239831 19.03331373 -31.99249384 16.6623117 -34.953125 10.94921875 C-35.94270322 6.88267075 -35.44363793 3.83214202 -33.390625 0.13671875 C-23.58985102 -8.65884764 -10.69649238 -5.7547129 0 0 Z " fill="#E6E6E6" transform="translate(392.953125,402.05078125)"/>
<path d="M0 0 C7.64064767 5.45760548 14.24890335 12.48683073 16 22 C16.94190947 32.58753933 16.45405045 41.05748061 10 50 C3.92218578 57.0386877 -3.07000304 61.33804685 -12.359375 62.375 C-23.01424296 62.74722246 -31.1268321 60.74847325 -39.375 53.875 C-46.65687255 46.85939624 -50.03059408 38.85725304 -50.3125 28.8125 C-50.20171663 19.65440797 -46.35433283 11.55158485 -40 5 C-28.13277927 -4.70954424 -13.95009579 -7.5868942 0 0 Z M-40 11 C-45.23975375 19.22958442 -45.81966962 27.45325973 -45 37 C-42.84374243 44.88874721 -37.64914677 50.44713595 -31 55 C-24.53800352 58.47054784 -17.18346859 59.09411132 -10 58 C-1.28969363 55.02265891 4.80353512 50.7797714 9.2421875 42.75390625 C12.74837908 35.19745888 13.42983885 26.91746623 11.0625 18.875 C7.75440087 11.36088912 1.46186016 5.20357272 -6 2 C-18.58915922 -2.33067077 -31.38386792 1.35222461 -40 11 Z " fill="#E7E7E7" transform="translate(82,81)"/>
<path d="M0 0 C1.010625 0.804375 2.02125 1.60875 3.0625 2.4375 C5.04045664 3.48042259 7.03369181 4.49732059 9.0625 5.4375 C9.0625 6.0975 9.0625 6.7575 9.0625 7.4375 C8.0725 7.4375 7.0825 7.4375 6.0625 7.4375 C6.0625 6.7775 6.0625 6.1175 6.0625 5.4375 C5.505625 5.334375 4.94875 5.23125 4.375 5.125 C2.0625 4.4375 2.0625 4.4375 0 3.0625 C-8.88785648 -1.85418656 -19.52612736 -3.05170104 -29.4453125 -1.05859375 C-40.64578565 2.35618465 -49.571377 8.560273 -55.54296875 18.64453125 C-58.84338889 25.25461641 -60.47649872 30.82780597 -60.375 38.25 C-60.36670166 39.03753662 -60.35840332 39.82507324 -60.34985352 40.63647461 C-60.03960612 51.3957658 -56.42435562 59.66268839 -48.9375 67.4375 C-44.92186053 70.92637308 -40.57313762 73.82995384 -35.9375 76.4375 C-40.61892302 77.99797434 -44.48507966 76.29446758 -48.9375 74.4375 C-51.625 72.125 -51.625 72.125 -53.9375 69.4375 C-55.10343168 68.60313864 -56.27015813 67.76988724 -57.4375 66.9375 C-63.5204546 61.78425462 -65.84281745 53.06741098 -66.75 45.375 C-66.83516847 43.73018392 -66.89671945 42.08401467 -66.9375 40.4375 C-66.999375 39.48101562 -67.06125 38.52453125 -67.125 37.5390625 C-67.59018236 26.22931639 -63.8437154 17.27611144 -56.9375 8.4375 C-56.45925781 7.82132813 -55.98101562 7.20515625 -55.48828125 6.5703125 C-42.25932157 -8.42472996 -16.32609201 -11.81493501 0 0 Z " fill="#F4DCF4" transform="translate(88.9375,73.5625)"/>
<path d="M0 0 C11.97590361 0 11.97590361 0 18 4 C22.92959953 9.41053607 22.65325969 15.33279962 22.44921875 22.453125 C21.80543746 27.53619813 20.69120163 29.46928539 17 33 C11.21863084 37.26720105 8.05882088 36 0 36 C0 24.12 0 12.24 0 0 Z " fill="#9418D2" transform="translate(172,686)"/>
<path d="M0 0 C8.42949866 -0.42621061 14.80840096 -0.60529312 22 4 C23.7015625 4.7734375 23.7015625 4.7734375 25.4375 5.5625 C28 7 28 7 29 10 C29.804375 10.12375 30.60875 10.2475 31.4375 10.375 C32.283125 10.58125 33.12875 10.7875 34 11 C34.495 11.99 34.495 11.99 35 13 C35.99 13.33 36.98 13.66 38 14 C39.1875 16.0625 39.1875 16.0625 40 18 C37.88609666 16.95274513 35.78715021 15.8870593 33.703125 14.78125 C22.59008568 8.97698742 11.1472702 6.82036488 -1.25 10.125 C-14.03204111 14.61655468 -21.88845498 22.06106058 -27.7800293 34.02539062 C-29.98210719 38.67486392 -31.13232676 42.41563929 -31.09765625 47.546875 C-31.09443359 48.39121094 -31.09121094 49.23554687 -31.08789062 50.10546875 C-31.07951172 50.97816406 -31.07113281 51.85085937 -31.0625 52.75 C-31.05798828 53.63816406 -31.05347656 54.52632812 -31.04882812 55.44140625 C-31.037074 57.62767329 -31.02064249 59.81380179 -31 62 C-31.66 61.01 -32.32 60.02 -33 59 C-33.99 59.495 -33.99 59.495 -35 60 C-34.67 54.72 -34.34 49.44 -34 44 C-34.99 46.97 -35.98 49.94 -37 53 C-37.33 53 -37.66 53 -38 53 C-38.44948768 46.93191628 -37.43983609 42.85024037 -34.97265625 37.296875 C-33.95078147 35.05602247 -33.95078147 35.05602247 -33.46484375 32.796875 C-32.87046013 30.49925764 -31.65684866 29.65684866 -30 28 C-29.87625 27.38125 -29.7525 26.7625 -29.625 26.125 C-28.66408295 22.85788203 -26.50929681 21.203285 -24 19 C-23.34 19 -22.68 19 -22 19 C-21.67 18.01 -21.34 17.02 -21 16 C-17.48031629 12.3667781 -13.42727617 9.42446076 -9 7 C-7.39578832 6.10424728 -5.79162516 5.20840766 -4.1875 4.3125 C-2.79212699 3.54083369 -1.3964478 2.7697196 0 2 C0 1.34 0 0.68 0 0 Z " fill="#D164CC" transform="translate(54,59)"/>
<path d="M0 0 C0 3 0 3 -2.125 5.4375 C-6.38842262 9.23750712 -11.09062228 12.11213075 -16 15 C-16.99 14.34 -17.98 13.68 -19 13 C-19.68449219 13.65355469 -20.36898437 14.30710938 -21.07421875 14.98046875 C-24.64721482 17.44674241 -26.51842611 17.44979674 -30.8125 17.3125 C-32.04226562 17.27640625 -33.27203125 17.2403125 -34.5390625 17.203125 C-39.53250745 16.910056 -44.22531663 16.59156112 -49 15 C-50.6875 11.9375 -50.6875 11.9375 -52 9 C-50.09154297 9.48146484 -50.09154297 9.48146484 -48.14453125 9.97265625 C-35.50423914 12.76266403 -21.28975393 12.87454999 -10 6 C-9.28199219 5.46117187 -8.56398437 4.92234375 -7.82421875 4.3671875 C-5.85325865 2.89002255 -4.36584928 2.5520315 -2 2 C-1.34 1.34 -0.68 0.68 0 0 Z " fill="#CB57CA" transform="translate(100,141)"/>
<path d="M0 0 C14.93520454 -0.75515079 14.93520454 -0.75515079 22 4 C22.66 4.99 23.32 5.98 24 7 C22.74445313 6.91621094 21.48890625 6.83242187 20.1953125 6.74609375 C4.74522554 5.25451499 4.74522554 5.25451499 -10 9 C-7.0094833 5.66442368 -4.06815373 3.84916079 0 2 C0 1.34 0 0.68 0 0 Z " fill="#CC51C6" transform="translate(54,59)"/>
<path d="M0 0 C1.85431641 0.49113281 1.85431641 0.49113281 3.74609375 0.9921875 C9.53199757 2.2779439 15.16126682 2.22180256 21.0625 2.125 C22.11888672 2.11597656 23.17527344 2.10695312 24.26367188 2.09765625 C26.84269253 2.0743167 29.4212199 2.04157775 32 2 C31.01 3.32 30.02 4.64 29 6 C28.34 5.67 27.68 5.34 27 5 C25.5534758 4.84932786 24.1012066 4.75138964 22.6484375 4.68359375 C21.79765625 4.64169922 20.946875 4.59980469 20.0703125 4.55664062 C19.18085937 4.51732422 18.29140625 4.47800781 17.375 4.4375 C16.4778125 4.39431641 15.580625 4.35113281 14.65625 4.30664062 C12.43765717 4.20043139 10.2189512 4.09838806 8 4 C8 4.66 8 5.32 8 6 C8.66 6.33 9.32 6.66 10 7 C8.02 7 6.04 7 4 7 C2.02 3.535 2.02 3.535 0 0 Z " fill="#D372D2" transform="translate(48,150)"/>
<path d="M0 0 C0.66 0.33 1.32 0.66 2 1 C1.29101562 1.70640625 0.58203125 2.4128125 -0.1484375 3.140625 C-2.04302615 5.0338785 -3.91863248 6.94179128 -5.7890625 8.859375 C-6.73434983 9.82294136 -7.67966246 10.7864829 -8.625 11.75 C-9.34042969 12.49056641 -9.34042969 12.49056641 -10.0703125 13.24609375 C-12.37606524 15.58387083 -13.83592819 16.9453094 -17 18 C-15.66938508 15.12333727 -14.17712023 12.78863364 -12.125 10.375 C-11.63257813 9.78460938 -11.14015625 9.19421875 -10.6328125 8.5859375 C-8.86617928 6.87002102 -7.20513904 6.06334768 -5 5 C-3.29503463 3.37253306 -1.62102968 1.71108689 0 0 Z " fill="#E6AFE4" transform="translate(241,144)"/>
<path d="M0 0 C14.93520454 -0.75515079 14.93520454 -0.75515079 22 4 C22.99 5.485 22.99 5.485 24 7 C23.175 6.71125 22.35 6.4225 21.5 6.125 C14.4469984 3.85796377 7.26508787 2.39942266 0 1 C0 0.67 0 0.34 0 0 Z " fill="#C844C2" transform="translate(54,59)"/>
<path d="M0 0 C0.33 0 0.66 0 1 0 C1.33 6.27 1.66 12.54 2 19 C1.34 18.01 0.68 17.02 0 16 C-0.66 16.33 -1.32 16.66 -2 17 C-1.85899143 14.72886197 -1.71203245 12.45809275 -1.5625 10.1875 C-1.48128906 8.92292969 -1.40007813 7.65835938 -1.31640625 6.35546875 C-1 3 -1 3 0 0 Z " fill="#D474D3" transform="translate(21,102)"/>
<path d="M0 0 C0.66 0.33 1.32 0.66 2 1 C-0.09814671 3.15202209 -2.20302055 5.29663616 -4.3125 7.4375 C-5.20485352 8.35499023 -5.20485352 8.35499023 -6.11523438 9.29101562 C-6.69208984 9.87431641 -7.26894531 10.45761719 -7.86328125 11.05859375 C-8.65665894 11.86768188 -8.65665894 11.86768188 -9.46606445 12.69311523 C-11 14 -11 14 -14 15 C-12.40153531 10.75091664 -9.1869608 8.17774261 -5.875 5.25 C-5.31167969 4.74339844 -4.74835938 4.23679687 -4.16796875 3.71484375 C-2.78348469 2.47115468 -1.39238512 1.23483695 0 0 Z " fill="#E6B7E7" transform="translate(295,314)"/>
<path d="M0 0 C0.66 0.33 1.32 0.66 2 1 C1.20928784 2.75043149 0.41739082 4.50032778 -0.375 6.25 C-0.81585937 7.22453125 -1.25671875 8.1990625 -1.7109375 9.203125 C-2.76638138 11.49311839 -3.85543935 13.75366601 -5 16 C-5.50212051 9.97455391 -4.12689062 6.14869539 -1 1 C-0.67 0.67 -0.34 0.34 0 0 Z " fill="#D572D1" transform="translate(27,86)"/>
<path d="M0 0 C3.33333333 1.66666667 6.66666667 3.33333333 10 5 C10 5.66 10 6.32 10 7 C9.01 7 8.02 7 7 7 C7 6.34 7 5.68 7 5 C6.401875 4.87625 5.80375 4.7525 5.1875 4.625 C3 4 3 4 0 2 C0 1.34 0 0.68 0 0 Z " fill="#EDC4EB" transform="translate(88,74)"/>
<path d="M0 0 C0.66 0.33 1.32 0.66 2 1 C-1.465 3.97 -1.465 3.97 -5 7 C-5.99 6.34 -6.98 5.68 -8 5 C-6.71475739 4.13619741 -5.42157581 3.28419631 -4.125 2.4375 C-3.04605469 1.72400391 -3.04605469 1.72400391 -1.9453125 0.99609375 C-1.30335937 0.66738281 -0.66140625 0.33867187 0 0 Z " fill="#D169CE" transform="translate(94,144)"/>
</svg>
