<?xml version="1.0" encoding="UTF-8"?>
<svg version="1.1" xmlns="http://www.w3.org/2000/svg" width="174" height="235">
<path d="M0 0 C57.42 0 114.84 0 174 0 C174 77.55 174 155.1 174 235 C116.58 235 59.16 235 0 235 C0 157.45 0 79.9 0 0 Z " fill="#7D7432" transform="translate(0,0)"/>
<path d="M0 0 C0.66 0.33 1.32 0.66 2 1 C2 1.99 2 2.98 2 4 C2.495 4.99 2.495 4.99 3 6 C-2.14272289 13.07124397 -7.92366045 17.83280802 -16 21 C-16.53625 21.5775 -17.0725 22.155 -17.625 22.75 C-18.07875 23.1625 -18.5325 23.575 -19 24 C-21.6875 23.6875 -21.6875 23.6875 -24 23 C-24 22.34 -24 21.68 -24 21 C-25.093125 21.495 -26.18625 21.99 -27.3125 22.5 C-31 24 -31 24 -34 24 C-33.443125 23.57589844 -32.88625 23.15179688 -32.3125 22.71484375 C-26.2167976 18.02980221 -20.17991943 13.27077427 -14.8125 7.75 C-11.28832906 4.34735219 -8.94346526 3 -4 3 C-1.77256213 1.58022091 -1.77256213 1.58022091 0 0 Z " fill="#AD8360" transform="translate(102,67)"/>
<path d="M0 0 C1.485 0.495 1.485 0.495 3 1 C1.28001336 2.801317 -0.45002291 4.59068463 -2.1875 6.375 C-2.91163086 7.13683594 -2.91163086 7.13683594 -3.65039062 7.9140625 C-6.61874162 10.94217895 -9.05981595 12.55376605 -13 14 C-15.15764696 15.78223219 -17.12560649 17.68808879 -19.1328125 19.63671875 C-19.74898437 20.08660156 -20.36515625 20.53648437 -21 21 C-21.99 20.67 -22.98 20.34 -24 20 C-25.90801574 21.20129367 -25.90801574 21.20129367 -27.6875 22.9375 C-28.62142578 23.78634766 -28.62142578 23.78634766 -29.57421875 24.65234375 C-30.04472656 25.09707031 -30.51523437 25.54179687 -31 26 C-31.37890625 23.26171875 -31.37890625 23.26171875 -31 20 C-28.40234375 17.76953125 -28.40234375 17.76953125 -24.9375 15.8125 C-23.81214844 15.15894531 -22.68679687 14.50539062 -21.52734375 13.83203125 C-18 12 -18 12 -14.42578125 10.55859375 C-9.6877472 8.40297735 -6.31605317 5.19694109 -2.453125 1.765625 C-1.64359375 1.18296875 -0.8340625 0.6003125 0 0 Z " fill="#68732D" transform="translate(31,188)"/>
<path d="M0 0 C0.66 0.33 1.32 0.66 2 1 C-1.4290578 4.73162172 -4.48403083 6.78809673 -9 9 C-10.10509241 9.86884938 -11.18871436 10.76565335 -12.25 11.6875 C-15 14 -15 14 -17 14 C-17.25136719 14.61746094 -17.50273438 15.23492187 -17.76171875 15.87109375 C-19.21234621 18.36507471 -20.20943378 18.91277094 -22.8125 20.0625 C-25.32088839 21.20971211 -27.52779663 22.33274135 -29.875 23.8125 C-30.57625 24.204375 -31.2775 24.59625 -32 25 C-32.66 24.67 -33.32 24.34 -34 24 C-33.443125 23.57589844 -32.88625 23.15179688 -32.3125 22.71484375 C-26.2167976 18.02980221 -20.17991943 13.27077427 -14.8125 7.75 C-11.28832906 4.34735219 -8.94346526 3 -4 3 C-1.77256213 1.58022091 -1.77256213 1.58022091 0 0 Z " fill="#AD794D" transform="translate(102,67)"/>
<path d="M0 0 C0.99 0.33 1.98 0.66 3 1 C0.49613068 3.62093568 -2.03085804 6.21840344 -4.5625 8.8125 C-5.26697266 9.55048828 -5.97144531 10.28847656 -6.69726562 11.04882812 C-10.95638349 15.38645507 -14.31646696 17.90316257 -20 20 C-22.19466221 21.52586291 -22.19466221 21.52586291 -23.9375 23.1875 C-24.52402344 23.71730469 -25.11054688 24.24710938 -25.71484375 24.79296875 C-26.13894531 25.19128906 -26.56304688 25.58960938 -27 26 C-27 22.25513946 -25.6826901 21.29631282 -23.1394043 18.72314453 C-22.59840088 18.19575684 -22.05739746 17.66836914 -21.5 17.125 C-20.95190674 16.58343262 -20.40381348 16.04186523 -19.83911133 15.48388672 C-16.40595555 12.16310342 -13.01369603 9.40440781 -8.8125 7.09375 C-6.06709179 5.43703815 -3.84385077 3.25796535 -1.54296875 1.0390625 C-1.03378906 0.69617188 -0.52460937 0.35328125 0 0 Z " fill="#75762F" transform="translate(48,171)"/>
<path d="M0 0 C0.66 0.33 1.32 0.66 2 1 C0.02 1.99 0.02 1.99 -2 3 C-1.34 2.01 -0.68 1.02 0 0 Z M-3.87890625 2.4296875 C-3.25886719 2.61789063 -2.63882813 2.80609375 -2 3 C-5.8991706 8.21317682 -8.93014646 10.70948923 -15 13 C-16.88029239 14.53951047 -16.88029239 14.53951047 -18 16 C-18.99 15.67 -19.98 15.34 -21 15 C-20.113125 14.278125 -19.22625 13.55625 -18.3125 12.8125 C-16.21414196 11.0696285 -14.31164463 9.31164463 -12.375 7.375 C-6.83154671 1.83154671 -6.83154671 1.83154671 -3.87890625 2.4296875 Z " fill="#AE8E74" transform="translate(101,75)"/>
<path d="M0 0 C0.99 0.33 1.98 0.66 3 1 C-2.28 6.28 -7.56 11.56 -13 17 C-13.66 16.67 -14.32 16.34 -15 16 C-14.62488281 15.56429687 -14.24976563 15.12859375 -13.86328125 14.6796875 C-13.35152344 14.08414063 -12.83976562 13.48859375 -12.3125 12.875 C-11.76464844 12.23820313 -11.21679688 11.60140625 -10.65234375 10.9453125 C-9.19863938 9.23385913 -7.78456674 7.49768711 -6.375 5.75 C-4.34301264 3.39717253 -2.69809259 1.52891913 0 0 Z " fill="#6D7B35" transform="translate(48,171)"/>
<path d="M0 0 C0.515625 0.7425 1.03125 1.485 1.5625 2.25 C4.47534392 5.53628545 7.12433906 6.98763759 11 9 C11 9.33 11 9.66 11 10 C7.37 10 3.74 10 0 10 C0 6.7 0 3.4 0 0 Z " fill="#020601" transform="translate(0,225)"/>
<path d="M0 0 C0.33 0 0.66 0 1 0 C1 3.3 1 6.6 1 10 C-2.3 10 -5.6 10 -9 10 C-8.2575 9.46375 -7.515 8.9275 -6.75 8.375 C-3.82649095 5.85015128 -2.06298806 3.24183838 0 0 Z " fill="#000000" transform="translate(173,225)"/>
<path d="M0 0 C3.3 0 6.6 0 10 0 C10 3.3 10 6.6 10 10 C9.46375 9.2575 8.9275 8.515 8.375 7.75 C5.85015128 4.82649095 3.24183838 3.06298806 0 1 C0 0.67 0 0.34 0 0 Z " fill="#000000" transform="translate(164,0)"/>
<path d="M0 0 C3.3 0 6.6 0 10 0 C9.2575 0.53625 8.515 1.0725 7.75 1.625 C4.82649095 4.14984872 3.06298806 6.75816162 1 10 C0.67 10 0.34 10 0 10 C0 6.7 0 3.4 0 0 Z " fill="#000000" transform="translate(0,0)"/>
<path d="M0 0 C0.66 0.33 1.32 0.66 2 1 C-1.96570677 5.38808974 -5.01191871 8.68554313 -11 10 C-7.92456281 6.04586646 -5.49402334 3.37184565 -1 1 C-0.67 0.67 -0.34 0.34 0 0 Z " fill="#AB7242" transform="translate(95,69)"/>
<path d="M0 0 C0 0.99 0 1.98 0 3 C-2.5 5.1875 -2.5 5.1875 -5 7 C-5 5.68 -5 4.36 -5 3 C-2.5 1.25 -2.5 1.25 0 0 Z " fill="#5B712D" transform="translate(5,207)"/>
</svg>
