<svg width="26" height="24" viewBox="0 0 26 24" fill="none" xmlns="http://www.w3.org/2000/svg">
    <path
        d="M4.83464 11.9999L7.16797 7.33325V6.16659H3.66797V7.33325H6.0013L3.66797 11.9999M9.5013 11.9999L11.8346 7.33325V6.16659H8.33463V7.33325H10.668L8.33463 11.9999M14.168 11.9999L16.5013 7.33325V6.16659H13.0013V7.33325H15.3346L13.0013 11.9999M23.5013 0.333252C22.218 0.333252 21.168 1.38325 21.168 2.66659C21.168 3.48325 21.6346 4.29992 22.3346 4.64992V17.8333H18.8346V15.4999C19.5346 15.4999 20.0013 15.0333 20.0013 14.3333V3.83325C20.0013 3.13325 19.5346 2.66659 18.8346 2.66659H14.4013C13.468 1.26659 11.8346 0.333252 10.0846 0.333252C8.33463 0.333252 6.7013 1.26659 5.76797 2.66659H1.33464C0.634635 2.66659 0.167969 3.13325 0.167969 3.83325V14.3333C0.167969 15.0333 0.634635 15.4999 1.33464 15.4999V23.6666H18.8346V20.1666H22.3346C23.618 20.1666 24.668 19.1166 24.668 17.8333V4.64992C25.368 4.29992 25.8346 3.48325 25.8346 2.66659C25.8346 1.38325 24.7846 0.333252 23.5013 0.333252ZM14.168 20.1666H6.0013V17.8333H14.168V20.1666ZM17.668 13.1666H2.5013V4.99992H17.668V13.1666Z"
        fill="white" />
</svg>
    