<svg width="68" height="67" viewBox="0 0 68 67" fill="none" xmlns="http://www.w3.org/2000/svg">
    <g clip-path="url(#clip0_68_2445)">
        <path
            d="M65.6342 29.3915C66.0741 28.8231 66.3135 28.1247 66.3148 27.4056V13.0781C66.3148 11.3613 65.9771 9.66146 65.3209 8.07542C64.6648 6.48941 63.703 5.04839 62.4906 3.83465C61.2783 2.62092 59.839 1.65826 58.255 1.00164C56.671 0.345028 54.9734 0.00732673 53.2591 0.00784119H48.4561C48.0332 0.0069315 47.6143 0.089887 47.2237 0.251899C46.833 0.413909 46.4782 0.651783 46.1798 0.951794C46.1057 1.02273 46.0363 1.09861 45.9725 1.17895H36.8437C36.5415 0.812167 36.1623 0.516688 35.733 0.313576C35.3036 0.110464 34.8349 0.0047258 34.3601 0.00392059H23.3421C22.9194 0.00386801 22.5008 0.0872106 22.1102 0.249173C21.7196 0.411135 21.3647 0.648558 21.0658 0.947872C20.9916 1.0188 20.9223 1.09469 20.8585 1.17503H15.7309C15.4289 0.808039 15.0497 0.512404 14.6203 0.309273C14.191 0.106141 13.7221 0.000533789 13.2472 0H13.1338C9.67227 0 6.3525 1.37705 3.90482 3.8282C1.45714 6.27935 0.0820365 9.60384 0.0820365 13.0703V24.707C0.0826074 25.563 0.421484 26.384 1.02463 26.9905L1.25149 27.2177V41.9799L1.02463 42.2071C0.421484 42.8136 0.0826074 43.6346 0.0820365 44.4906V53.2485C0.0804938 54.9661 0.4171 56.667 1.07261 58.2542C1.72813 59.8414 2.68968 61.2835 3.90227 62.4981C5.11486 63.7128 6.55469 64.6762 8.1394 65.3331C9.72409 65.99 11.4226 66.3277 13.1377 66.3266H32.6C33.0234 66.3272 33.4427 66.2441 33.834 66.0821C34.2253 65.9201 34.5808 65.6824 34.8802 65.3827C34.9506 65.3121 35.0211 65.2338 35.0876 65.1555H36.1397C36.442 65.523 36.8219 65.8189 37.2519 66.022C37.682 66.2253 38.1517 66.3306 38.6272 66.3305H44.6818C45.5365 66.33 46.3564 65.9905 46.9621 65.3866L47.0754 65.269C47.3776 65.6033 47.7464 65.8706 48.158 66.0534C48.5697 66.2362 49.0149 66.3306 49.4652 66.3305H53.2591C56.5559 66.3395 59.7321 65.0902 62.1415 62.8368C62.2588 62.7311 62.3762 62.6174 62.4896 62.5038C63.7062 61.2932 64.6707 59.8527 65.3273 58.266C65.984 56.6792 66.3196 54.9778 66.3148 53.2603V36.4377C66.3143 35.9616 66.2089 35.4915 66.0061 35.0609C65.8032 34.6303 65.508 34.2499 65.1414 33.9467V30.0299L65.6342 29.3915Z"
            fill="#8d24d5" />
        <path
            d="M64.9924 34.1853V30.4134L65.544 29.8103C66.0353 29.299 66.3148 28.6201 66.3262 27.9106V14.151C66.3262 10.8022 64.789 7.6492 62.0238 5.27956C59.0943 2.85552 55.4003 1.55211 51.6004 1.60171H49.4922C53.2921 1.55211 56.9861 2.85552 59.9157 5.27956C62.7044 7.6492 64.218 10.8022 64.218 14.151V27.9067C64.2062 28.6161 63.9268 29.2949 63.4357 29.8064L62.8765 30.4134V34.1853C63.2731 34.4462 63.6005 34.7996 63.8307 35.215C64.061 35.6304 64.1872 36.0957 64.1985 36.5707V52.7195C64.1985 56.0683 62.6653 59.2252 59.8961 61.5949C56.966 64.0175 53.2721 65.3195 49.4727 65.2688H51.5808C55.3802 65.3195 59.0742 64.0175 62.0042 61.5949C64.7852 59.2448 66.3066 56.0683 66.3066 52.7195V36.5589C66.2943 36.0865 66.1685 35.6242 65.9396 35.211C65.7109 34.7978 65.3859 34.4459 64.9924 34.1853Z"
            fill="#101221" />
        <path
            d="M35.1774 2.017C35.5267 2.01545 35.8719 2.092 36.188 2.24108C36.504 2.39015 36.7827 2.60799 37.0039 2.8787L37.2387 3.16069H46.8955L47.1301 2.8787L47.2827 2.71028C47.5019 2.48941 47.7628 2.31438 48.0502 2.19537C48.3376 2.07635 48.6457 2.01572 48.9567 2.017H53.6502C56.8241 2.02115 59.8667 3.28643 62.1099 5.53502C64.3531 7.78361 65.6135 10.8317 65.6146 14.0102V28.0165C65.6124 28.5442 65.4364 29.0563 65.114 29.4736L64.6485 30.0729L64.4804 30.2844V34.7612L64.7658 34.9962C65.0362 35.2178 65.2537 35.497 65.4026 35.8134C65.5514 36.1298 65.6279 36.4756 65.6263 36.8253V53.2758C65.6253 56.4569 64.3626 59.5074 62.1161 61.7565C59.8695 64.0055 56.8229 65.2689 53.6463 65.2689H49.9423C49.611 65.2699 49.2831 65.2006 48.9805 65.0656C48.6778 64.9306 48.4071 64.7329 48.1862 64.4856L47.623 63.8864L47.0402 64.4699L46.9267 64.5835C46.4807 65.0249 45.8798 65.2738 45.2527 65.2768H39.3468C38.9982 65.2777 38.6537 65.2009 38.3384 65.0519C38.0231 64.9028 37.7449 64.6852 37.5241 64.4151L37.2895 64.1291H35.5216L35.287 64.4151L35.1344 64.5835C34.9152 64.8044 34.6543 64.9794 34.3669 65.0984C34.0795 65.2174 33.7714 65.2781 33.4604 65.2768H14.4362C11.2589 65.2768 8.21167 64.0128 5.96496 61.7629C3.71826 59.513 2.45607 56.4616 2.45607 53.2797V44.7215C2.45713 44.0925 2.70752 43.4895 3.15226 43.0452L3.37129 42.8219L3.60207 42.5908V27.5112L3.37129 27.2841L3.15226 27.0609C2.71004 26.6151 2.46128 26.0128 2.45999 25.3844V14.0258C2.46103 10.8454 3.72314 7.79545 5.96888 5.54652C8.21463 3.29759 11.2602 2.0337 14.4362 2.03266H14.5417C14.8911 2.03111 15.2363 2.10766 15.5523 2.25673C15.8684 2.40581 16.1471 2.62365 16.3683 2.89436L16.603 3.18029H22.3525L22.5871 2.89828C22.6341 2.83953 22.685 2.78469 22.7358 2.72986C22.9561 2.5094 23.2178 2.33468 23.5057 2.21571C23.7937 2.09674 24.1022 2.03586 24.4137 2.03658H35.1774M35.1774 1.25322H24.4137C23.9995 1.25187 23.5892 1.33287 23.2064 1.49155C22.8238 1.65022 22.4764 1.88341 22.1844 2.17758C22.114 2.24808 22.0474 2.32252 21.981 2.39695H16.9706C16.6763 2.03709 16.3056 1.7474 15.8854 1.5489C15.4653 1.3504 15.0063 1.24805 14.5417 1.24931H14.4362C12.7606 1.2488 11.1013 1.57893 9.5531 2.22083C8.00495 2.86273 6.59828 3.80381 5.41345 4.99032C4.22861 6.17684 3.28885 7.5855 2.64787 9.13586C2.00687 10.6862 1.67723 12.3478 1.67774 14.0258V25.3844C1.67639 25.7983 1.7569 26.2084 1.91466 26.5908C2.07242 26.9734 2.30429 27.3208 2.59688 27.6131L2.81982 27.8364V42.2696L2.59688 42.489C2.30416 42.7822 2.07198 43.1303 1.9136 43.5133C1.75522 43.8964 1.67375 44.307 1.67383 44.7215V53.2797C1.67486 56.6689 3.01978 59.9191 5.41297 62.3156C7.80615 64.7123 11.0517 66.0591 14.4362 66.0601H33.4604C33.874 66.061 34.2835 65.9797 34.6655 65.8211C35.0475 65.6624 35.3943 65.4295 35.6859 65.1358C35.7576 65.065 35.8255 64.9905 35.8892 64.9125H36.9179C37.2136 65.2709 37.5846 65.5595 38.0044 65.7579C38.4242 65.9563 38.8826 66.0595 39.3468 66.0601H45.2762C45.6898 66.061 46.0993 65.9797 46.4813 65.8211C46.8634 65.6624 47.2101 65.4295 47.5017 65.1358L47.6191 65.0222C47.9147 65.3514 48.2768 65.6142 48.6813 65.793C49.0858 65.972 49.5236 66.063 49.9658 66.0601H53.6697C57.048 66.0518 60.2851 64.7021 62.671 62.3069C65.0569 59.9117 66.3968 56.6668 66.3968 53.2836V36.8332C66.3981 36.368 66.2959 35.9084 66.0977 35.4877C65.8995 35.0669 65.6102 34.6957 65.2509 34.4008V30.5625L65.7319 29.9475C66.1619 29.3929 66.3958 28.7108 66.3968 28.0086V14.0102C66.3968 10.6216 65.0526 7.37187 62.66 4.97581C60.2673 2.57975 57.0222 1.23365 53.6384 1.23365H48.9449C48.5314 1.2328 48.1218 1.31407 47.7398 1.47274C47.3578 1.63139 47.011 1.8643 46.7194 2.158C46.6491 2.2285 46.5787 2.30292 46.5161 2.37734H37.6063C37.3105 2.01947 36.9393 1.73142 36.5195 1.53372C36.0996 1.33602 35.6413 1.23356 35.1774 1.23365V1.25322Z"
            fill="#161828" />
        <g filter="url(#filter0_f_68_2445)">
            <path
                d="M66.3156 36.3636V52.6182C66.3175 54.2833 65.9866 55.9319 65.3425 57.4669C64.6982 59.002 63.7538 60.3924 62.5648 61.5563C60.1543 63.9407 56.8985 65.2716 53.5103 65.2576H49.7868C49.3459 65.2593 48.9095 65.1689 48.5054 64.9922C48.1013 64.8155 47.7385 64.5564 47.44 64.2315L47.3266 64.345C46.7305 64.9308 45.9285 65.2585 45.0933 65.2576H39.1483C38.6838 65.2588 38.2247 65.1576 37.8037 64.9613C37.3826 64.765 37.0097 64.4784 36.7115 64.1218H35.675C35.6144 64.2012 35.5463 64.2747 35.4717 64.3411C34.8783 64.9291 34.077 65.2586 33.2423 65.2576H14.1476C10.7598 65.2699 7.50466 63.9393 5.09316 61.5563C3.9005 60.442 2.96599 59.0796 2.3553 57.5651C1.56267 55.4409 1.45866 53.1207 2.05804 50.934C2.05705 52.5617 2.3815 54.173 3.01226 55.6731C3.64302 57.1732 4.56735 58.5317 5.73069 59.6683C8.08692 62.0025 11.2714 63.3054 14.5857 63.2914H33.254C34.0732 63.2911 34.8596 62.969 35.4443 62.3944C35.5108 62.3279 35.5773 62.2574 35.6438 62.179H36.6724C36.9652 62.5263 37.3298 62.8057 37.7411 62.9978C38.1524 63.1899 38.6005 63.2901 39.0543 63.2914H44.8469C45.6633 63.289 46.4465 62.9671 47.0293 62.3944L47.1428 62.2847C47.4351 62.6015 47.7895 62.8544 48.1839 63.0276C48.5783 63.2008 49.0041 63.2906 49.4347 63.2914H53.0722C56.3865 63.3054 59.571 62.0025 61.9273 59.6683C63.092 58.5343 64.0183 57.1784 64.6518 55.6804C65.2853 54.1824 65.6129 52.5725 65.6155 50.9457V35.0397C65.6168 34.775 65.5813 34.5113 65.5099 34.2563C66.0348 34.8315 66.3227 35.5845 66.3156 36.3636Z"
                fill="#182847" />
        </g>
        <path
            d="M30.0112 48.2232H35.9485V41.9564H30.0112V48.2232ZM22.7676 28.138L28.5562 28.0949C28.5562 26.9904 28.8221 25.4197 29.4636 24.3935C30.1051 23.3674 31.1885 22.8582 32.7217 22.8582C34.2549 22.8582 35.354 23.2734 35.9406 24.1037C36.5179 24.9094 36.8259 25.8773 36.8206 26.869C36.8263 27.7366 36.5519 28.5829 36.0384 29.2817C35.7213 29.7332 35.3329 30.13 34.8885 30.4567L33.4452 31.5926C32.0164 32.7076 31.1324 33.6946 30.7934 34.5536C30.4492 35.4115 30.2381 37.4756 30.1598 39.7238H35.5378C35.5248 38.7631 35.6112 37.8035 35.7959 36.8606C36.0758 36.021 36.6087 35.289 37.3213 34.7652L38.7254 33.6685C39.8073 32.8885 40.7795 31.9663 41.6158 30.9268C42.5046 29.6469 42.9559 28.1135 42.9026 26.5557C42.9026 23.7355 41.9131 21.6075 39.934 20.1713C37.9549 18.7351 35.4778 18.0171 32.5027 18.0171C30.2263 18.0171 28.3072 18.5224 26.7453 19.5328C24.2421 21.1113 22.924 24.3505 22.7676 28.138Z"
            fill="#6C6AA5" />
        <path opacity="0.6"
            d="M30.7944 48.501H36.7317V42.7355H30.7944V48.501ZM23.5508 28.3688H29.2885C29.2962 27.2349 29.6288 26.1269 30.2469 25.1766C30.8883 24.1556 31.9743 23.6439 33.5049 23.6412C35.0694 23.6412 36.1372 24.0565 36.7238 24.8868C37.3011 25.6925 37.6091 26.6604 37.6038 27.652C37.6095 28.5197 37.3351 29.366 36.8216 30.0648C36.5045 30.5163 36.1161 30.9131 35.6717 31.2398L34.2284 32.3757C32.7996 33.4907 31.9156 34.4777 31.5766 35.3367C31.2377 36.1958 31.0213 37.7508 30.9274 40.0016H36.3053C36.2864 39.2103 36.3732 38.4199 36.5634 37.6516C36.8433 36.8119 37.3763 36.0799 38.0889 35.5561L39.493 34.4594C40.5749 33.6795 41.547 32.7572 42.3834 31.7177C43.2721 30.4379 43.7235 28.9045 43.6702 27.3466C43.6702 24.5265 42.6806 22.3984 40.7015 20.9622C38.7225 19.526 36.2454 18.808 33.2702 18.808C30.9939 18.808 29.0748 19.3133 27.5129 20.3238C25.028 21.9009 23.7072 24.5826 23.5508 28.3688Z"
            fill="#101221" />
        <path
            d="M30.4018 48.2233H36.3391V42.4579H30.4018V48.2233ZM23.1582 28.0951H28.896C28.9036 26.9611 29.2362 25.8532 29.8543 24.9029C30.4957 23.8819 31.5817 23.3701 33.1123 23.3675C34.6768 23.3675 35.7446 23.7827 36.3312 24.6131C36.9085 25.4187 37.2165 26.3867 37.2112 27.3783C37.217 28.246 36.9425 29.0922 36.429 29.7911C36.1129 30.2434 35.7244 30.6404 35.2791 30.9661L33.8358 32.1058C32.407 33.2209 31.5231 34.2079 31.184 35.0669C30.8451 35.926 30.6287 37.4797 30.5348 39.7279H35.9127C35.8938 38.9365 35.9806 38.1462 36.1708 37.3778C36.4496 36.5376 36.9827 35.8052 37.6963 35.2823L39.1004 34.1856C40.1823 33.4057 41.1544 32.4835 41.9908 31.4439C42.8875 30.1572 43.3418 28.6134 43.2854 27.0454C43.2854 24.2253 42.2959 22.0972 40.3168 20.6611C38.3377 19.2249 35.8606 18.5068 32.8854 18.5068C30.6091 18.5068 28.69 19.0121 27.1281 20.0227C24.638 21.6128 23.3147 24.3036 23.1582 28.0951Z"
            fill="white" />
    </g>
    <defs>
        <filter id="filter0_f_68_2445" x="0.844696" y="33.4272" width="66.3008" height="32.6596"
            filterUnits="userSpaceOnUse" color-interpolation-filters="sRGB">
            <feFlood flood-opacity="0" result="BackgroundImageFix" />
            <feBlend mode="normal" in="SourceGraphic" in2="BackgroundImageFix" result="shape" />
            <feGaussianBlur stdDeviation="0.414566" result="effect1_foregroundBlur_68_2445" />
        </filter>
        <clipPath id="clip0_68_2445">
            <rect width="67.1597" height="66.3306" fill="white" transform="translate(0.00585938)" />
        </clipPath>
    </defs>
</svg>
    