<svg width="68" height="68" viewBox="0 0 68 68" fill="none" xmlns="http://www.w3.org/2000/svg">
    <g clip-path="url(#clip0_464_50238)">
        <path
            d="M66.4643 30.2216C66.9042 29.6532 67.1436 28.9548 67.1448 28.2357V13.9081C67.1448 12.1914 66.8071 10.4915 66.1509 8.9055C65.4949 7.31949 64.5331 5.87846 63.3207 4.66473C62.1084 3.451 60.6691 2.48833 59.0851 1.83172C57.5011 1.17511 55.8035 0.837405 54.0892 0.837919H49.2862C48.8633 0.83701 48.4444 0.919965 48.0537 1.08198C47.663 1.24399 47.3083 1.48186 47.0099 1.78187C46.9357 1.8528 46.8664 1.92869 46.8026 2.00903H37.6737C37.3716 1.64225 36.9924 1.34677 36.563 1.14365C36.1337 0.940543 35.6649 0.834804 35.1902 0.833999H24.1722C23.7495 0.833946 23.3308 0.917289 22.9402 1.07925C22.5497 1.24121 22.1948 1.47864 21.8959 1.77795C21.8217 1.84888 21.7524 1.92476 21.6886 2.00511H16.561C16.259 1.63812 15.8798 1.34248 15.4504 1.13935C15.021 0.936219 14.5522 0.830612 14.0773 0.830078H13.9639C10.5023 0.830078 7.18258 2.20713 4.7349 4.65828C2.28722 7.10943 0.912115 10.4339 0.912115 13.9003V25.5371C0.912686 26.393 1.25156 27.2141 1.85471 27.8206L2.08157 28.0477V42.81L1.85471 43.0372C1.25156 43.6437 0.912686 44.4647 0.912115 45.3206V54.0786C0.910572 55.7961 1.24718 57.4971 1.90269 59.0842C2.55821 60.6714 3.51976 62.1135 4.73235 63.3282C5.94493 64.5429 7.38477 65.5063 8.96948 66.1632C10.5542 66.8201 12.2526 67.1577 13.9678 67.1567H33.4301C33.8534 67.1572 34.2728 67.0742 34.6641 66.9121C35.0554 66.7502 35.4109 66.5125 35.7103 66.2128C35.7807 66.1422 35.8512 66.0639 35.9176 65.9856H36.9697C37.2721 66.3531 37.6519 66.649 38.082 66.8521C38.5121 67.0553 38.9818 67.1606 39.4573 67.1606H45.5119C46.3666 67.1601 47.1865 66.8206 47.7921 66.2167L47.9055 66.0991C48.2077 66.4334 48.5765 66.7006 48.9881 66.8835C49.3997 67.0663 49.845 67.1606 50.2953 67.1606H54.0892C57.3859 67.1696 60.5622 65.9203 62.9716 63.6668C63.0889 63.5611 63.2063 63.4475 63.3197 63.3339C64.5363 62.1232 65.5008 60.6828 66.1574 59.0961C66.8141 57.5093 67.1496 55.8079 67.1448 54.0904V37.2678C67.1443 36.7917 67.039 36.3216 66.8361 35.891C66.6333 35.4604 66.3381 35.0799 65.9715 34.7767V30.86L66.4643 30.2216Z"
            fill="url(#paint0_radial_464_50238)"
        />
        <g clip-path="url(#clip1_464_50238)">
            <path
                d="M34.9144 19.7281L45.562 19.7295L42.6034 27.4172L34.9144 19.7281ZM54.7134 28.2134L44.4405 28.2134L47.2944 20.7944L54.7134 28.2134ZM23.438 19.7295L26.3966 27.4172L34.0856 19.7281L23.438 19.7295ZM24.5595 28.2134L21.7056 20.7944L14.2866 28.2134L24.5595 28.2134ZM28.4288 28.2134H40.5712L34.5 22.1421L28.4288 28.2134ZM36.2946 48.6318L43.6627 30.2131L54.7134 30.2131L36.2946 48.6318ZM34.5 47.7337L41.5074 30.2131H27.4926L34.5 47.7337ZM25.3373 30.2131L32.7054 48.6318L14.2866 30.2131L25.3373 30.2131Z"
                fill="white"
            />
        </g>
        <path
            d="M65.8245 35.0147V31.2428L66.376 30.6396C66.8673 30.1284 67.1468 29.4495 67.1582 28.74V14.9804C67.1582 11.6315 65.6211 8.47855 62.8558 6.10891C59.9263 3.68487 56.2323 2.38145 52.4324 2.43105H50.3243C54.1242 2.38145 57.8181 3.68487 60.7477 6.10891C63.5364 8.47855 65.0501 11.6315 65.0501 14.9804V28.7361C65.0383 29.4455 64.7589 30.1242 64.2678 30.6357L63.7085 31.2428V35.0147C64.1051 35.2755 64.4325 35.6289 64.6628 36.0443C64.893 36.4598 65.0192 36.925 65.0305 37.4V53.5489C65.0305 56.8976 63.4973 60.0545 60.7281 62.4242C57.798 64.8468 54.1041 66.1488 50.3047 66.0982H52.4128C56.2123 66.1488 59.9062 64.8468 62.8363 62.4242C65.6172 60.0741 67.1386 56.8976 67.1386 53.5489V37.3882C67.1264 36.9159 67.0005 36.4536 66.7717 36.0403C66.5429 35.6272 66.218 35.2753 65.8245 35.0147Z"
            fill="#17752C"
            stroke="#28A745"
            stroke-width="0.727247"
        />
        <path
            d="M36.0075 2.84782C36.3568 2.84626 36.702 2.92281 37.0181 3.07189C37.334 3.22096 37.6128 3.4388 37.834 3.70951L38.0687 3.9915H47.7256L47.9602 3.70951L48.1128 3.54109C48.332 3.32022 48.5929 3.14519 48.8803 3.02618C49.1677 2.90716 49.4758 2.84653 49.7868 2.84782H54.4802C57.6542 2.85196 60.6967 4.11724 62.94 6.36583C65.1832 8.61442 66.4436 11.6625 66.4447 14.841V28.8473C66.4425 29.375 66.2665 29.8871 65.9441 30.3044L65.4786 30.9037L65.3105 31.1152V35.592L65.5959 35.827C65.8663 36.0486 66.0838 36.3278 66.2327 36.6442C66.3815 36.9606 66.458 37.3064 66.4564 37.6561V54.1066C66.4554 57.2877 65.1927 60.3382 62.9462 62.5873C60.6996 64.8363 57.653 66.0997 54.4763 66.0997H50.7724C50.441 66.1007 50.1132 66.0314 49.8106 65.8964C49.5079 65.7614 49.2371 65.5637 49.0163 65.3164L48.453 64.7172L47.8702 65.3007L47.7568 65.4143C47.3108 65.8557 46.7099 66.1046 46.0828 66.1076H40.1769C39.8282 66.1085 39.4837 66.0318 39.1685 65.8827C38.8532 65.7336 38.575 65.516 38.3542 65.2459L38.1196 64.9599H36.3517L36.117 65.2459L35.9645 65.4143C35.7453 65.6352 35.4843 65.8102 35.197 65.9292C34.9096 66.0483 34.6015 66.1089 34.2905 66.1076H15.2663C12.089 66.1076 9.04175 64.8436 6.79504 62.5938C4.54834 60.3438 3.28615 57.2924 3.28615 54.1105V45.5524C3.2872 44.9233 3.5376 44.3203 3.98234 43.876L4.20137 43.6527L4.43214 43.4217V28.3421L4.20137 28.1149L3.98234 27.8917C3.54011 27.4459 3.29136 26.8436 3.29007 26.2153V14.8566C3.29111 11.6762 4.55321 8.62626 6.79896 6.37733C9.04471 4.1284 12.0903 2.86451 15.2663 2.86347H15.3718C15.7211 2.86192 16.0664 2.93847 16.3824 3.08754C16.6984 3.23662 16.9772 3.45446 17.1984 3.72517L17.433 4.0111H23.1826L23.4172 3.72909C23.4642 3.67034 23.5151 3.6155 23.5659 3.56067C23.7862 3.34021 24.0479 3.16549 24.3358 3.04653C24.6238 2.92755 24.9323 2.86667 25.2438 2.86739H36.0075M36.0075 2.08404H25.2438C24.8296 2.08268 24.4192 2.16368 24.0365 2.32236C23.6539 2.48103 23.3065 2.71422 23.0144 3.00839C22.944 3.07889 22.8775 3.15333 22.811 3.22776H17.8007C17.5063 2.86791 17.1356 2.57821 16.7155 2.37971C16.2954 2.18121 15.8364 2.07886 15.3718 2.08012H15.2663C13.5907 2.07961 11.9313 2.40974 10.3832 3.05164C8.83503 3.69354 7.42835 4.63462 6.24352 5.82113C5.05869 7.00765 4.11893 8.41631 3.47795 9.96667C2.83695 11.517 2.50731 13.1786 2.50782 14.8566V26.2153C2.50647 26.6291 2.58698 27.0392 2.74474 27.4216C2.90249 27.8042 3.13437 28.1516 3.42695 28.4439L3.6499 28.6672V43.1004L3.42695 43.3198C3.13424 43.613 2.90206 43.9611 2.74368 44.3441C2.5853 44.7272 2.50383 45.1378 2.50391 45.5524V54.1105C2.50494 57.4997 3.84986 60.7499 6.24304 63.1465C8.63623 65.5431 11.8818 66.8899 15.2663 66.8909H34.2905C34.704 66.8918 35.1136 66.8105 35.4956 66.6519C35.8776 66.4932 36.2244 66.2603 36.5159 65.9666C36.5877 65.8959 36.6556 65.8213 36.7193 65.7433H37.748C38.0437 66.1017 38.4146 66.3904 38.8344 66.5887C39.2543 66.7871 39.7127 66.8903 40.1769 66.8909H46.1063C46.5198 66.8918 46.9294 66.8105 47.3114 66.6519C47.6935 66.4932 48.0402 66.2603 48.3318 65.9666L48.4491 65.853C48.7448 66.1822 49.1069 66.445 49.5113 66.6238C49.9159 66.8028 50.3537 66.8938 50.7958 66.8909H54.4998C57.8781 66.8826 61.1152 65.5329 63.5011 63.1378C65.887 60.7426 67.2269 57.4976 67.2269 54.1144V37.664C67.2281 37.1988 67.126 36.7392 66.9278 36.3185C66.7296 35.8977 66.4403 35.5265 66.081 35.2317V31.3933L66.562 30.7783C66.992 30.2237 67.2259 29.5417 67.2269 28.8395V14.841C67.2269 11.4524 65.8827 8.20268 63.4901 5.80662C61.0974 3.41056 57.8522 2.06446 54.4685 2.06446H49.775C49.3615 2.06361 48.9518 2.14489 48.5699 2.30355C48.1879 2.4622 47.841 2.69511 47.5495 2.98881C47.4791 3.05931 47.4087 3.13373 47.3461 3.20815H38.4364C38.1405 2.85028 37.7694 2.56223 37.3495 2.36453C36.9297 2.16683 36.4714 2.06437 36.0075 2.06446V2.08404Z"
            fill="#28A745"
        />
        <path
            d="M36.0075 2.84782C36.3568 2.84626 36.702 2.92281 37.0181 3.07189C37.334 3.22096 37.6128 3.4388 37.834 3.70951L38.0687 3.9915H47.7256L47.9602 3.70951L48.1128 3.54109C48.332 3.32022 48.5929 3.14519 48.8803 3.02618C49.1677 2.90716 49.4758 2.84653 49.7868 2.84782H54.4802C57.6542 2.85196 60.6967 4.11724 62.94 6.36583C65.1832 8.61442 66.4436 11.6625 66.4447 14.841V28.8473C66.4425 29.375 66.2665 29.8871 65.9441 30.3044L65.4786 30.9037L65.3105 31.1152V35.592L65.5959 35.8271C65.8663 36.0486 66.0838 36.3278 66.2327 36.6442C66.3815 36.9606 66.458 37.3064 66.4564 37.6561V54.1066C66.4554 57.2877 65.1927 60.3382 62.9462 62.5873C60.6996 64.8363 57.653 66.0997 54.4763 66.0997H50.7724C50.441 66.1007 50.1132 66.0314 49.8106 65.8964C49.5079 65.7614 49.2371 65.5637 49.0163 65.3164L48.453 64.7172L47.8702 65.3007L47.7568 65.4143C47.3108 65.8557 46.7099 66.1046 46.0828 66.1076H40.1769C39.8282 66.1085 39.4837 66.0318 39.1685 65.8827C38.8532 65.7336 38.575 65.516 38.3542 65.2459L38.1196 64.9599H36.3517L36.117 65.2459L35.9645 65.4143C35.7453 65.6352 35.4843 65.8102 35.197 65.9292C34.9096 66.0483 34.6015 66.1089 34.2905 66.1076H15.2663C12.089 66.1076 9.04175 64.8436 6.79504 62.5938C4.54834 60.3438 3.28615 57.2924 3.28615 54.1105V45.5524C3.2872 44.9233 3.5376 44.3203 3.98234 43.876L4.20137 43.6527L4.43214 43.4217V28.3421L4.20137 28.1149L3.98234 27.8917C3.54011 27.4459 3.29136 26.8436 3.29007 26.2153V14.8566C3.29111 11.6762 4.55321 8.62626 6.79896 6.37733C9.04471 4.1284 12.0903 2.86451 15.2663 2.86347H15.3718C15.7211 2.86192 16.0664 2.93847 16.3824 3.08754C16.6984 3.23662 16.9772 3.45446 17.1984 3.72517L17.433 4.0111H23.1826L23.4172 3.72909C23.4642 3.67034 23.5151 3.6155 23.5659 3.56067C23.7862 3.34021 24.0479 3.16549 24.3358 3.04653C24.6238 2.92755 24.9323 2.86667 25.2438 2.86739H36.0075M36.0075 2.08404H25.2438C24.8296 2.08268 24.4192 2.16368 24.0365 2.32236C23.6539 2.48103 23.3065 2.71422 23.0144 3.00839C22.944 3.07889 22.8775 3.15333 22.811 3.22776H17.8007C17.5063 2.86791 17.1356 2.57821 16.7155 2.37971C16.2954 2.18121 15.8364 2.07886 15.3718 2.08012H15.2663C13.5907 2.07961 11.9313 2.40974 10.3832 3.05164C8.83503 3.69354 7.42835 4.63462 6.24352 5.82113C5.05869 7.00765 4.11893 8.41631 3.47795 9.96667C2.83695 11.517 2.50731 13.1786 2.50782 14.8566V26.2153C2.50647 26.6291 2.58698 27.0392 2.74474 27.4216C2.90249 27.8042 3.13437 28.1516 3.42695 28.4439L3.6499 28.6672V43.1004L3.42695 43.3198C3.13424 43.613 2.90206 43.9611 2.74368 44.3441C2.5853 44.7272 2.50383 45.1378 2.50391 45.5524V54.1105C2.50494 57.4997 3.84986 60.7499 6.24304 63.1465C8.63623 65.5431 11.8818 66.8899 15.2663 66.8909H34.2905C34.704 66.8918 35.1136 66.8105 35.4956 66.6519C35.8776 66.4932 36.2244 66.2603 36.5159 65.9666C36.5877 65.8959 36.6556 65.8213 36.7193 65.7433H37.748C38.0437 66.1017 38.4146 66.3904 38.8344 66.5887C39.2543 66.7871 39.7127 66.8903 40.1769 66.8909H46.1063C46.5198 66.8918 46.9294 66.8105 47.3114 66.6519C47.6935 66.4932 48.0402 66.2603 48.3318 65.9666L48.4491 65.853C48.7448 66.1822 49.1069 66.445 49.5113 66.6238C49.9159 66.8028 50.3537 66.8938 50.7958 66.8909H54.4998C57.8781 66.8826 61.1152 65.5329 63.5011 63.1378C65.887 60.7426 67.2269 57.4976 67.2269 54.1144V37.664C67.2281 37.1988 67.126 36.7392 66.9278 36.3185C66.7296 35.8977 66.4403 35.5265 66.081 35.2317V31.3933L66.562 30.7783C66.992 30.2237 67.2259 29.5417 67.2269 28.8395V14.841C67.2269 11.4524 65.8827 8.20268 63.4901 5.80662C61.0974 3.41056 57.8522 2.06446 54.4685 2.06446H49.775C49.3615 2.06361 48.9518 2.14489 48.5699 2.30355C48.1879 2.4622 47.8411 2.69511 47.5495 2.98881C47.4791 3.05931 47.4087 3.13373 47.3461 3.20815H38.4364C38.1405 2.85028 37.7694 2.56223 37.3495 2.36453C36.9297 2.16683 36.4714 2.06437 36.0075 2.06446V2.08404Z"
            stroke="#28A745"
            stroke-width="0.727247"
        />
        <g filter="url(#filter0_f_464_50238)">
            <path
                d="M67.1437 37.1932V53.4478C67.1456 55.1129 66.8147 56.7614 66.1706 58.2965C65.5264 59.8315 64.582 61.222 63.3929 62.3859C60.9824 64.7703 57.7266 66.1012 54.3384 66.0872H50.6149C50.174 66.0888 49.7376 65.9985 49.3335 65.8218C48.9294 65.6451 48.5666 65.386 48.2681 65.0611L48.1547 65.1746C47.5586 65.7603 46.7566 66.0881 45.9214 66.0872H39.9764C39.5119 66.0883 39.0528 65.9872 38.6318 65.7909C38.2107 65.5946 37.8378 65.308 37.5397 64.9514H36.5032C36.4426 65.0308 36.3744 65.1042 36.2998 65.1707C35.7065 65.7587 34.9052 66.0882 34.0704 66.0872H14.9757C11.5879 66.0995 8.33278 64.7689 5.92128 62.3859C4.72863 61.2716 3.79411 59.9092 3.18342 58.3947C2.3908 56.2705 2.28678 53.9503 2.88616 51.7636C2.88518 53.3913 3.20962 55.0026 3.84039 56.5027C4.47115 58.0028 5.39547 59.3613 6.55881 60.4979C8.91505 62.8321 12.0996 64.135 15.4139 64.121H34.0821C34.9014 64.1207 35.6877 63.7986 36.2724 63.224C36.3389 63.1574 36.4054 63.087 36.4719 63.0086H37.5005C37.7933 63.3559 38.1579 63.6353 38.5692 63.8274C38.9805 64.0195 39.4287 64.1197 39.8825 64.121H45.675C46.4915 64.1186 47.2747 63.7967 47.8575 63.224L47.9709 63.1143C48.2632 63.4311 48.6176 63.6839 49.012 63.8571C49.4064 64.0304 49.8322 64.1202 50.2629 64.121H53.9003C57.2146 64.135 60.3991 62.8321 62.7554 60.4979C63.9202 59.3639 64.8465 58.008 65.4799 56.51C66.1134 55.012 66.4411 53.4021 66.4436 51.7753V35.8693C66.445 35.6046 66.4094 35.3409 66.3381 35.0859C66.8629 35.6611 67.1508 36.414 67.1437 37.1932Z"
                fill="#28A745"
                stroke="#28A745"
                stroke-width="0.727247"
            />
        </g>
    </g>
    <defs>
        <filter
            id="filter0_f_464_50238"
            x="1.30954"
            y="34.0127"
            width="67.0274"
            height="33.2676"
            filterUnits="userSpaceOnUse"
            color-interpolation-filters="sRGB"
        >
            <feFlood flood-opacity="0" result="BackgroundImageFix" />
            <feBlend mode="normal" in="SourceGraphic" in2="BackgroundImageFix" result="shape" />
            <feGaussianBlur stdDeviation="0.414566" result="effect1_foregroundBlur_464_50238" />
        </filter>
        <radialGradient
            id="paint0_radial_464_50238"
            cx="0"
            cy="0"
            r="1"
            gradientUnits="userSpaceOnUse"
            gradientTransform="translate(34.028 33.9957) rotate(-90) scale(33.1654 33.1161)"
        >
            <stop stop-color="#8DFF7B" />
            <stop offset="0.855" stop-color="#4BCD1D" />
        </radialGradient>
        <clipPath id="clip0_464_50238">
            <rect width="67.1597" height="66.3306" fill="white"
                transform="translate(0.835938 0.830078)" />
        </clipPath>
        <clipPath id="clip1_464_50238">
            <rect width="46" height="46" fill="white" transform="translate(11.5 8)" />
        </clipPath>
    </defs>
</svg>