<svg width="10" height="16" viewBox="0 0 10 16" fill="none" xmlns="http://www.w3.org/2000/svg">
    <path fill-rule="evenodd" clip-rule="evenodd"
        d="M9.62815 0.570082C9.73896 0.619021 9.83316 0.699107 9.89929 0.800598C9.96543 0.90209 10.0006 1.02061 10.0007 1.14175V14.8917C10.0007 15.0129 9.96559 15.1315 9.8995 15.233C9.83342 15.3346 9.73924 15.4148 9.62843 15.4638C9.51762 15.5128 9.39495 15.5285 9.27536 15.5091C9.15576 15.4896 9.0444 15.4358 8.95482 15.3542L4.55065 11.3501H2.29232C1.90554 11.3501 1.53461 11.1964 1.26112 10.9229C0.98763 10.6495 0.833984 10.2785 0.833984 9.89175V6.14175C0.833984 5.33675 1.48732 4.68341 2.29232 4.68341H4.55065L8.95482 0.679248C9.0445 0.597915 9.15587 0.54438 9.2754 0.525148C9.39494 0.505916 9.51748 0.521816 9.62815 0.570915V0.570082ZM8.75065 2.55425L5.21315 5.77092C5.09799 5.87558 4.94793 5.93353 4.79232 5.93341H2.29232C2.23706 5.93341 2.18407 5.95536 2.145 5.99443C2.10593 6.0335 2.08398 6.08649 2.08398 6.14175V9.89175C2.08398 10.0067 2.17732 10.1001 2.29232 10.1001H4.79232C4.94793 10.1 5.09799 10.1579 5.21315 10.2626L8.75065 13.4792V2.55425Z"
        fill="white" />
</svg>
    