<svg width="34" height="34" viewBox="0 0 34 34" fill="none" xmlns="http://www.w3.org/2000/svg">
	<path
		d="M17 34C26.3888 34 34 26.3888 34 17C34 7.61116 26.3888 0 17 0C7.61116 0 0 7.61116 0 17C0 26.3888 7.61116 34 17 34Z"
		fill="#4D76A1" />
	<path fill-rule="evenodd" clip-rule="evenodd"
		d="M16.3589 24.4556H17.6932C17.6932 24.4556 18.0963 24.4114 18.302 24.1896C18.4914 23.9859 18.4854 23.6035 18.4854 23.6035C18.4854 23.6035 18.4593 21.8131 19.2903 21.5495C20.1094 21.2898 21.1612 23.2798 22.2761 24.045C23.1192 24.6241 23.7598 24.4972 23.7598 24.4972L26.7408 24.4556C26.7408 24.4556 28.3003 24.3596 27.5609 23.1335C27.5002 23.0332 27.1302 22.2265 25.3444 20.5688C23.4753 18.8339 23.7256 19.1145 25.9772 16.1135C27.3484 14.2859 27.8966 13.1701 27.7254 12.6922C27.5621 12.237 26.5535 12.3573 26.5535 12.3573L23.1971 12.3782C23.1971 12.3782 22.9483 12.3443 22.7637 12.4546C22.5834 12.5628 22.4673 12.8149 22.4673 12.8149C22.4673 12.8149 21.9361 14.2292 21.2276 15.432C19.733 17.97 19.1354 18.1039 18.8912 17.9463C18.323 17.579 18.4648 16.4708 18.4648 15.6835C18.4648 13.224 18.8378 12.1985 17.7384 11.9331C17.3735 11.8449 17.105 11.7867 16.172 11.7773C14.9743 11.7649 13.9607 11.7809 13.3867 12.0622C13.0049 12.2491 12.7103 12.6658 12.8897 12.6898C13.1116 12.7195 13.614 12.8252 13.8804 13.188C14.2243 13.6559 14.2122 14.7068 14.2122 14.7068C14.2122 14.7068 14.4098 17.6021 13.7507 17.9618C13.2982 18.2084 12.6776 17.7048 11.3451 15.4023C10.6624 14.2228 10.1469 12.9192 10.1469 12.9192C10.1469 12.9192 10.0475 12.6755 9.87022 12.5452C9.65507 12.3873 9.35445 12.337 9.35445 12.337L6.16494 12.3579C6.16494 12.3579 5.68614 12.3713 5.51037 12.5795C5.354 12.7646 5.49795 13.1477 5.49795 13.1477C5.49795 13.1477 7.99501 18.9897 10.8224 21.9337C13.4149 24.6329 16.3589 24.4556 16.3589 24.4556Z"
		fill="white" />
</svg>
	