<svg width="68" height="68" viewBox="0 0 68 68" fill="none" xmlns="http://www.w3.org/2000/svg">
    <g clip-path="url(#clip0_464_41920)">
        <path
            d="M52.9138 48.7341C53.4374 48.6674 53.9244 48.429 54.2985 48.0562L61.7392 40.6156C62.6307 39.7241 63.3381 38.6659 63.821 37.5015C64.3039 36.3371 64.5528 35.0893 64.5535 33.8293C64.5542 32.5694 64.3067 31.322 63.8251 30.1584C63.3435 28.9948 62.6373 27.9378 61.7467 27.0478L59.2524 24.5535C59.0333 24.3335 58.7727 24.159 58.4856 24.0402C58.1986 23.9215 57.8908 23.8608 57.5801 23.8616C57.5047 23.86 57.4293 23.8634 57.3545 23.8719L52.6136 19.1311C52.6472 18.7837 52.6037 18.4333 52.4862 18.1049C52.3688 17.7765 52.1802 17.4781 51.9341 17.2311L46.2122 11.5092C45.9927 11.2897 45.732 11.1156 45.4451 10.9968C45.1581 10.8781 44.8505 10.8171 44.5398 10.8173C44.4645 10.8156 44.3891 10.8191 44.3142 10.8276L41.6514 8.16476C41.6851 7.81736 41.6417 7.46688 41.5242 7.13838C41.4067 6.80994 41.2181 6.51159 40.9718 6.26472L40.9128 6.20582C39.1152 4.40816 36.676 3.39926 34.132 3.40107C31.5879 3.40286 29.1473 4.41522 27.3471 6.21542L21.3039 12.2586C20.8596 12.7035 20.6093 13.3058 20.6075 13.934L20.6074 14.1698L12.941 21.8362L12.7052 21.8364C12.077 21.8381 11.4746 22.0885 11.0298 22.5327L6.48163 27.0809C5.58887 27.972 4.88032 29.0302 4.39652 30.1948C3.91267 31.3595 3.6631 32.6078 3.66202 33.8684C3.66093 35.1289 3.90838 36.3769 4.39019 37.541C4.87201 38.7052 5.57873 39.7626 6.47 40.6527L16.5772 50.7599C16.7968 50.9801 17.0577 51.1547 17.345 51.2738C17.6323 51.3929 17.9404 51.4541 18.2515 51.4539C18.3247 51.4538 18.402 51.4497 18.4772 51.4436L19.0236 51.99C18.9898 52.3378 19.0334 52.6888 19.1512 53.0176C19.269 53.3465 19.4583 53.6451 19.7052 53.892L22.8495 57.0363C23.2937 57.4799 23.8957 57.7294 24.5239 57.7303L24.6438 57.7281C24.6271 58.0587 24.6799 58.389 24.7987 58.6977C24.9175 59.0064 25.0998 59.2866 25.3337 59.5204L27.3039 61.4907C29.0113 63.2074 31.3096 64.2081 33.7311 64.2891C33.8469 64.2952 33.9669 64.2971 34.0848 64.297C35.3453 64.3001 36.5943 64.0529 37.7593 63.5699C38.9244 63.0869 39.9822 62.3776 40.8716 61.4831L49.608 52.7468C49.855 52.4993 50.0444 52.2004 50.1627 51.8715C50.2809 51.5425 50.3252 51.1916 50.2923 50.8438L52.3264 48.8097L52.9138 48.7341Z"
            fill="url(#paint0_radial_464_41920)" />
        <path
            d="M50.0927 50.8901L52.0516 48.9313L52.6512 48.9044C53.1719 48.8941 53.6696 48.6867 54.044 48.3241L61.1896 41.1785C62.9288 39.4393 63.7679 37.0037 63.5625 34.337C63.3 31.5568 62.0585 28.9615 60.0593 27.0139L58.9645 25.9191C60.9637 27.8667 62.2051 30.4619 62.4677 33.2422C62.6853 35.921 61.834 38.3445 60.0948 40.0836L52.9512 47.2273C52.5767 47.5896 52.0791 47.797 51.5584 47.8076L50.9527 47.8324L48.9939 49.7912C49.0644 50.1326 49.0509 50.4862 48.9547 50.8215C48.8585 51.1568 48.6825 51.464 48.4416 51.7165L40.0552 60.103C38.3161 61.8421 35.8804 62.6853 33.2117 62.4778C30.4319 62.2143 27.8374 60.9721 25.8906 58.9727L26.9854 60.0675C28.9322 62.0669 31.5267 63.3091 34.3065 63.5726C36.9712 63.7964 39.4109 62.9369 41.15 61.1978L49.5426 52.8052C49.7815 52.5535 49.9562 52.2481 50.052 51.9146C50.1478 51.5813 50.1618 51.2298 50.0927 50.8901Z"
            fill="#101221" />
        <path
            d="M51.3146 18.7025C51.4968 18.8831 51.6363 19.1021 51.7231 19.3436C51.8097 19.5851 51.8414 19.843 51.8157 20.0985L51.7911 20.3669L56.8061 25.3819L57.0744 25.3573L57.2411 25.349C57.4697 25.3482 57.6961 25.3928 57.9071 25.4802C58.1182 25.5676 58.3096 25.6962 58.4705 25.8583L60.9079 28.2958C62.5541 29.9462 63.477 32.1834 63.4743 34.5161C63.4715 36.8488 62.5431 39.0863 60.893 40.7375L53.6192 48.0113C53.344 48.2842 52.9867 48.4587 52.6025 48.508L52.0496 48.5775L51.8524 48.6L49.5275 50.9249L49.5537 51.1952C49.579 51.4507 49.547 51.7086 49.46 51.9503C49.373 52.1919 49.2331 52.4112 49.0507 52.592L40.5076 61.1351C38.855 62.7866 36.6151 63.715 34.2804 63.7164C31.9457 63.7176 29.7075 62.7916 28.0578 61.1419L26.1342 59.2183C25.9616 59.0468 25.8274 58.8405 25.7403 58.6133C25.6532 58.3859 25.6153 58.1427 25.629 57.8995L25.6477 57.2958L25.042 57.2962L24.9241 57.2963C24.4633 57.2939 24.0219 57.1111 23.6947 56.787L20.6276 53.7199C20.4461 53.5394 20.3071 53.3206 20.2208 53.0795C20.1344 52.8383 20.103 52.5808 20.1286 52.3259L20.1552 52.0555L19.2371 51.1374L18.9668 51.1641L18.8001 51.1723C18.5715 51.1732 18.3451 51.1285 18.1341 51.0411C17.923 50.9537 17.7316 50.8252 17.5707 50.663L7.691 40.7833C6.04095 39.1333 5.1149 36.8943 5.11653 34.5592C5.11821 32.224 6.04741 29.9838 7.69983 28.3314L12.1443 23.887C12.4715 23.5608 12.9147 23.3777 13.3764 23.3779L13.6061 23.3757L13.8459 23.3756L21.6771 15.5444L21.6752 15.3066L21.6774 15.0769C21.6792 14.6158 21.8629 14.1738 22.1885 13.8468L28.0873 7.94803C29.7395 6.29688 31.9788 5.36843 34.313 5.36678C36.6472 5.36512 38.8852 6.29039 40.5351 7.93921L40.5899 7.99403C40.7721 8.17463 40.9117 8.39368 40.9983 8.63519C41.0851 8.87675 41.1167 9.13464 41.091 9.39011L41.0644 9.66046L44.0502 12.6463L44.3185 12.6217C44.3734 12.6156 44.4283 12.6135 44.4832 12.6115C44.7121 12.6114 44.9387 12.6565 45.1501 12.7443C45.3614 12.8321 45.5532 12.9607 45.7146 13.1228L51.3044 18.7126M51.7113 18.3058L46.1214 12.716C45.907 12.5002 45.6518 12.3291 45.3707 12.2128C45.0896 12.0965 44.7881 12.0371 44.4836 12.0383C44.4105 12.0383 44.3372 12.0424 44.2641 12.0466L41.6621 9.44457C41.6961 9.10483 41.654 8.76187 41.5389 8.44061C41.4239 8.11934 41.2386 7.82782 40.9967 7.58722L40.9419 7.5324C40.072 6.66196 39.0388 5.97168 37.9015 5.50104C36.7641 5.0304 35.5449 4.7886 34.3134 4.78948C33.0819 4.79035 31.8623 5.03386 30.7243 5.50612C29.5863 5.97835 28.5522 6.6701 27.681 7.54179L21.7822 13.4406C21.5666 13.6548 21.3955 13.9095 21.2788 14.1901C21.162 14.4707 21.102 14.7715 21.1022 15.0753L21.102 15.307L13.6065 22.8025L13.3768 22.8007C13.0725 22.8009 12.7712 22.8611 12.49 22.9778C12.2088 23.0945 11.9533 23.2654 11.738 23.4807L7.2936 27.9252C5.53403 29.6858 4.54457 32.0721 4.54284 34.5595C4.54106 37.047 5.52709 39.4319 7.28423 41.1901L17.1639 51.0698C17.3782 51.285 17.6332 51.4555 17.9139 51.5715C18.1947 51.6874 18.4958 51.7466 18.7997 51.7455C18.8736 51.746 18.9476 51.7426 19.0212 51.7352L19.5555 52.2694C19.5229 52.6091 19.5656 52.9516 19.6806 53.2726C19.7957 53.5937 19.9801 53.8853 20.2209 54.1267L23.3001 57.206C23.5144 57.4212 23.7694 57.5917 24.0501 57.7077C24.3309 57.8237 24.632 57.8828 24.9359 57.8817L25.0558 57.8837C25.0384 58.2082 25.09 58.5327 25.2071 58.8356C25.3243 59.1386 25.5044 59.4133 25.7355 59.6414L27.6591 61.5649C29.4178 63.3151 31.7999 64.2952 34.2827 64.2904C36.7657 64.2856 39.1467 63.2962 40.9037 61.5393L49.4467 52.9962C49.689 52.7553 49.8746 52.4635 49.9901 52.1421C50.1057 51.8207 50.1483 51.4777 50.1148 51.1379L52.1081 49.1446L52.6773 49.075C53.1887 49.0103 53.6643 48.7776 54.0295 48.4134L61.2992 41.1437C63.059 39.3839 64.0486 36.9982 64.0504 34.5114C64.0521 32.0244 63.0659 29.6401 61.3086 27.8828L58.8712 25.4454C58.6569 25.2302 58.4019 25.0597 58.1212 24.9437C57.8404 24.8277 57.5393 24.7686 57.2354 24.7697C57.1623 24.7698 57.087 24.7719 57.0159 24.778L52.3888 20.151C52.4211 19.8115 52.3779 19.4692 52.2625 19.1484C52.1472 18.8277 51.9624 18.5365 51.7214 18.2957L51.7113 18.3058Z"
            fill="#971335" />
        <path
            d="M51.3146 18.7025C51.4968 18.8831 51.6363 19.1021 51.7231 19.3436C51.8097 19.5851 51.8414 19.843 51.8157 20.0985L51.7911 20.3669L56.8061 25.3819L57.0744 25.3573L57.2411 25.349C57.4697 25.3482 57.6961 25.3928 57.9071 25.4802C58.1182 25.5677 58.3096 25.6962 58.4705 25.8583L60.9079 28.2958C62.5541 29.9462 63.477 32.1834 63.4743 34.5161C63.4715 36.8488 62.5431 39.0863 60.893 40.7375L53.6192 48.0113C53.344 48.2842 52.9867 48.4587 52.6025 48.508L52.0496 48.5775L51.8524 48.6L49.5275 50.9249L49.5537 51.1952C49.579 51.4507 49.547 51.7086 49.46 51.9503C49.373 52.1919 49.2331 52.4112 49.0507 52.592L40.5076 61.1351C38.855 62.7866 36.6151 63.715 34.2804 63.7164C31.9457 63.7176 29.7075 62.7916 28.0578 61.1419L26.1342 59.2183C25.9616 59.0468 25.8274 58.8405 25.7403 58.6133C25.6532 58.3859 25.6153 58.1427 25.629 57.8995L25.6477 57.2958L25.042 57.2962L24.9241 57.2963C24.4633 57.2939 24.0219 57.1111 23.6947 56.787L20.6276 53.7199C20.4461 53.5394 20.3071 53.3206 20.2208 53.0794C20.1344 52.8383 20.103 52.5808 20.1286 52.3259L20.1552 52.0555L19.2371 51.1374L18.9668 51.1641L18.8001 51.1723C18.5715 51.1732 18.3451 51.1285 18.1341 51.0411C17.923 50.9537 17.7316 50.8252 17.5707 50.663L7.691 40.7833C6.04095 39.1333 5.1149 36.8943 5.11653 34.5592C5.11821 32.224 6.04741 29.9838 7.69983 28.3314L12.1443 23.887C12.4715 23.5608 12.9147 23.3777 13.3764 23.3779L13.6061 23.3757L13.8459 23.3756L21.6771 15.5444L21.6752 15.3066L21.6774 15.0769C21.6792 14.6158 21.8629 14.1738 22.1885 13.8468L28.0873 7.94803C29.7395 6.29688 31.9788 5.36843 34.313 5.36678C36.6472 5.36512 38.8852 6.29039 40.5351 7.93921L40.5899 7.99403C40.7721 8.17463 40.9117 8.39368 40.9983 8.63519C41.0851 8.87675 41.1167 9.13464 41.091 9.39011L41.0644 9.66046L44.0502 12.6463L44.3185 12.6217C44.3734 12.6156 44.4283 12.6135 44.4832 12.6115C44.7121 12.6114 44.9387 12.6565 45.1501 12.7443C45.3614 12.8321 45.5532 12.9607 45.7146 13.1228L51.3044 18.7126M51.7113 18.3058L46.1214 12.716C45.907 12.5002 45.6518 12.3291 45.3707 12.2128C45.0896 12.0965 44.7881 12.0371 44.4836 12.0383C44.4105 12.0383 44.3372 12.0424 44.2641 12.0466L41.6621 9.44457C41.6961 9.10483 41.654 8.76187 41.5389 8.44061C41.4239 8.11934 41.2386 7.82782 40.9967 7.58722L40.9419 7.5324C40.072 6.66196 39.0388 5.97168 37.9015 5.50104C36.7641 5.0304 35.5449 4.7886 34.3134 4.78948C33.0819 4.79035 31.8623 5.03386 30.7243 5.50612C29.5863 5.97835 28.5522 6.6701 27.681 7.54179L21.7822 13.4406C21.5666 13.6548 21.3955 13.9095 21.2788 14.1901C21.162 14.4707 21.102 14.7715 21.1022 15.0753L21.102 15.307L13.6065 22.8025L13.3768 22.8007C13.0725 22.8009 12.7712 22.8611 12.49 22.9778C12.2088 23.0945 11.9533 23.2654 11.738 23.4807L7.2936 27.9252C5.53402 29.6858 4.54457 32.0721 4.54283 34.5595C4.54106 37.047 5.52709 39.4319 7.28423 41.1901L17.1639 51.0698C17.3782 51.285 17.6332 51.4555 17.9139 51.5715C18.1947 51.6874 18.4958 51.7466 18.7997 51.7455C18.8736 51.746 18.9476 51.7426 19.0212 51.7352L19.5555 52.2694C19.5229 52.6091 19.5656 52.9516 19.6806 53.2726C19.7957 53.5937 19.9801 53.8853 20.2209 54.1267L23.3001 57.206C23.5144 57.4212 23.7694 57.5917 24.0501 57.7077C24.3309 57.8237 24.632 57.8828 24.9359 57.8817L25.0558 57.8837C25.0384 58.2082 25.09 58.5327 25.2071 58.8356C25.3243 59.1386 25.5044 59.4133 25.7355 59.6414L27.6591 61.5649C29.4178 63.3151 31.7999 64.2952 34.2827 64.2904C36.7657 64.2856 39.1467 63.2962 40.9037 61.5393L49.4467 52.9962C49.689 52.7553 49.8746 52.4635 49.9901 52.1421C50.1057 51.8207 50.1483 51.4777 50.1148 51.1379L52.1081 49.1446L52.6773 49.075C53.1887 49.0103 53.6643 48.7776 54.0295 48.4134L61.2992 41.1437C63.059 39.3839 64.0486 36.9982 64.0504 34.5114C64.0521 32.0244 63.0659 29.6401 61.3086 27.8828L58.8712 25.4454C58.6569 25.2302 58.4019 25.0597 58.1212 24.9437C57.8404 24.8277 57.5393 24.7686 57.2354 24.7697C57.1623 24.7698 57.087 24.7719 57.0159 24.778L52.3888 20.151C52.4211 19.8115 52.3779 19.4692 52.2625 19.1484C52.1472 18.8277 51.9624 18.5365 51.7214 18.2957L51.7113 18.3058Z"
            stroke="#971335" stroke-width="0.693136" />
        <g filter="url(#filter0_f_464_41920)">
            <path
                d="M49.6455 52.7092L41.2041 61.1506C40.3404 62.0163 39.3124 62.7006 38.1807 63.1632C37.049 63.6258 35.8364 63.8575 34.6145 63.8444C32.1244 63.8308 29.7424 62.8312 27.9901 61.0644L26.0564 59.1307C25.8266 58.9026 25.6469 58.629 25.5288 58.3274C25.4107 58.0258 25.3568 57.7028 25.3706 57.3791L25.2527 57.3791C24.639 57.3738 24.0522 57.1275 23.619 56.6933L20.5316 53.6059C20.2898 53.3653 20.1039 53.0743 19.9872 52.7537C19.8704 52.4331 19.8257 52.0906 19.856 51.7506L19.3177 51.2123C19.245 51.2221 19.1715 51.2248 19.0982 51.2206C18.4847 51.2178 17.8975 50.9728 17.4645 50.5388L7.5482 40.6225C5.78245 38.8695 4.783 36.488 4.7682 33.9981C4.72749 32.8001 4.94968 31.6073 5.41908 30.5036C6.11058 28.9888 7.26151 27.7298 8.70837 26.9055C7.86257 27.7503 7.19426 28.7556 6.74281 29.8622C6.29132 30.9688 6.06587 32.1543 6.07973 33.3487C6.09119 35.7846 7.06836 38.115 8.79682 39.8289L18.4916 49.5237C18.9173 49.949 19.4929 50.1902 20.0949 50.1954C20.164 50.1954 20.2352 50.1933 20.3104 50.1871L20.8446 50.7213C20.8163 51.0537 20.8606 51.3882 20.9744 51.7015C21.0882 52.0149 21.2689 52.2996 21.5039 52.536L24.5121 55.5442C24.9374 55.967 25.5112 56.2065 26.1113 56.2118L26.2272 56.2137C26.2145 56.53 26.2672 56.8454 26.3821 57.1402C26.497 57.435 26.6715 57.7027 26.8947 57.9268L28.7837 59.8158C30.4976 61.5443 32.828 62.5214 35.2639 62.5329C36.4577 62.5489 37.6429 62.3258 38.7498 61.8768C39.8567 61.4278 40.8629 60.7619 41.7091 59.9184L49.9694 51.6581C50.1076 51.5213 50.2261 51.3659 50.3214 51.1964C50.2953 51.7677 50.0538 52.3082 49.6455 52.7092Z"
                fill="#971335" stroke="#971335" stroke-width="0.693136" />
        </g>
        <path
            d="M26.0194 38.7423C26.1745 39.0794 26.3485 39.4075 26.5404 39.7252L25.2931 39.8468L26.0194 38.7423ZM28.748 24.7382L29.0015 26.7692C29.47 26.4092 29.9697 26.0917 30.4946 25.8207L28.748 24.7382ZM46.037 38.3501L44.5911 37.1321C44.446 37.6848 44.253 38.2237 44.0142 38.7428L46.037 38.3501ZM26.3033 30.4001L23.2637 31.0103L25.307 32.7113C25.4602 31.9315 25.7075 31.1731 26.0435 30.4529L26.3033 30.4001ZM34.4838 26.8133C35.1664 26.762 35.7757 26.5613 36.1119 26.2898L34.1963 22.9453L32.7961 26.5382C33.1688 26.7553 33.8006 26.8641 34.4838 26.8133ZM40.9233 28.388C40.9905 28.8151 41.3072 29.373 41.7794 29.8683C42.2516 30.3636 42.7936 30.7075 43.2166 30.7948L44.587 27.1926L40.9233 28.388ZM38.5566 41.4498C37.9504 41.7685 37.472 42.1955 37.2734 42.579L40.3638 44.882L40.216 41.0325C39.7853 40.9786 39.1628 41.131 38.5566 41.4498ZM31.4221 40.4135C30.7882 40.1568 30.1533 40.0639 29.7314 40.1568L29.9572 44.0064L32.81 41.4143C32.5734 41.0504 32.056 40.6716 31.4216 40.4129L31.4221 40.4135ZM30.0743 34.575C30.4895 34.7724 30.966 34.7968 31.3992 34.6427C31.8324 34.4887 32.1866 34.169 32.384 33.7538C32.5814 33.3386 32.6057 32.862 32.4517 32.4288C32.2977 31.9957 31.9779 31.6414 31.5627 31.4441C31.5627 31.4441 29.6282 31.5636 28.6186 31.9773C28.9415 33.0121 30.0743 34.575 30.0743 34.575ZM43.9459 34.6217C43.9465 35.829 43.7017 37.0238 43.2263 38.1335C42.7509 39.2432 42.0548 40.2447 41.1804 41.0771L41.1527 40.3493L40.8832 40.2256C40.1903 39.9069 39.152 40.0454 38.1054 40.5962C37.0589 41.1469 36.3567 41.9245 36.2268 42.676L36.1755 42.968L36.736 43.3858C35.2728 43.6726 33.7611 43.5892 32.3383 43.143L33.9335 41.6936L33.855 41.4077C33.6528 40.6721 32.8798 39.9664 31.7835 39.5199C30.6871 39.0733 29.6416 39.0358 28.9825 39.4203L28.7259 39.5696L28.8126 41.0422C27.9495 40.2106 27.2631 39.2133 26.7946 38.11C26.3261 37.0068 26.0851 35.8203 26.0861 34.6217C26.0861 30.8061 28.4918 27.5422 31.8661 26.2657L31.6608 26.7877L31.8584 27.0084C32.3065 27.5093 33.1416 27.7916 34.1414 27.7916C34.2759 27.7916 34.414 27.7865 34.552 27.7762C35.7326 27.6884 36.6852 27.2558 37.104 26.6183L37.2667 26.3704L37.006 25.9151C38.2522 26.2011 39.4221 26.7521 40.4362 27.5309L40.0066 27.671L39.9609 27.9636C39.8439 28.717 40.2611 29.6784 41.0767 30.5345C41.8312 31.3265 42.692 31.7818 43.4173 31.7818H43.4804C43.7892 32.6968 43.947 33.656 43.9475 34.6217H43.9459ZM31.979 30.573C30.7056 29.9679 28.1238 31.1325 27.8364 31.267L27.4715 31.4369L27.5741 31.8264C27.6542 32.1344 28.3912 34.8419 29.6626 35.4465C29.9833 35.6046 30.3323 35.6973 30.6891 35.7193C31.046 35.7413 31.4037 35.6921 31.7414 35.5747C32.0791 35.4573 32.3901 35.2739 32.6563 35.0352C32.9226 34.7966 33.1387 34.5074 33.2922 34.1844C33.4457 33.8615 33.5335 33.5113 33.5504 33.1542C33.5674 32.797 33.5132 32.4401 33.391 32.104C33.2688 31.768 33.0811 31.4596 32.8387 31.1968C32.5963 30.934 32.3041 30.7219 31.979 30.573ZM41.995 36.877L41.8754 36.4926C41.7809 36.1898 40.9171 33.5187 39.617 32.9746C38.9572 32.7005 38.2157 32.6991 37.5549 32.9709C36.8941 33.2426 36.3681 33.7653 36.092 34.4243C35.816 35.0832 35.8125 35.8248 36.0824 36.4863C36.3522 37.1479 36.8734 37.6754 37.5316 37.9534C38.8317 38.4984 41.3534 37.2137 41.6377 37.0654L41.995 36.877ZM39.2459 33.8652C39.0359 33.7766 38.8105 33.7303 38.5826 33.729C38.3547 33.7277 38.1288 33.7713 37.9178 33.8574C37.7068 33.9436 37.5148 34.0704 37.3529 34.2308C37.191 34.3912 37.0623 34.582 36.9742 34.7922C36.8861 35.0024 36.8404 35.2279 36.8395 35.4558C36.8387 35.6837 36.8829 35.9095 36.9694 36.1203C37.056 36.3311 37.1833 36.5228 37.3441 36.6844C37.5048 36.8459 37.6959 36.9742 37.9063 37.0618C37.9063 37.0618 39.8326 36.8514 40.8222 36.3904C40.4526 35.3731 39.2459 33.8652 39.2459 33.8652Z"
            fill="white" />
    </g>
    <defs>
        <filter id="filter0_f_464_41920" x="3.80707" y="25.9946" width="47.4698" height="38.8058"
            filterUnits="userSpaceOnUse" color-interpolation-filters="sRGB">
            <feFlood flood-opacity="0" result="BackgroundImageFix" />
            <feBlend mode="normal" in="SourceGraphic" in2="BackgroundImageFix" result="shape" />
            <feGaussianBlur stdDeviation="0.304471" result="effect1_foregroundBlur_464_41920" />
        </filter>
        <radialGradient id="paint0_radial_464_41920" cx="0" cy="0" r="1"
            gradientUnits="userSpaceOnUse"
            gradientTransform="translate(34.1101 33.8486) rotate(45) scale(24.3218 24.3573)">
            <stop offset="0.229167" stop-color="#FB6B64" />
            <stop offset="1" stop-color="#D32437" />
        </radialGradient>
        <clipPath id="clip0_464_41920">
            <rect width="49.3243" height="48.7153" fill="white"
                transform="translate(34.0957 -0.611328) rotate(45)" />
        </clipPath>
    </defs>
</svg>
    