<svg width="26" height="24" viewBox="0 0 26 24" fill="none" xmlns="http://www.w3.org/2000/svg">
    <path
        d="M3.80336 17.1446C3.96862 17.5039 4.15394 17.8535 4.35844 18.1919L3.02953 18.3215L3.80336 17.1446ZM6.71055 2.22371L6.9807 4.38769C7.47984 4.00413 8.01224 3.66591 8.57156 3.37707L6.71055 2.22371ZM25.1315 16.7268L23.5909 15.4291C23.4364 16.0179 23.2307 16.5921 22.9762 17.1452L25.1315 16.7268ZM4.10578 8.25629L0.867188 8.90652L3.0443 10.7189C3.20749 9.88797 3.47101 9.07996 3.82906 8.31262L4.10578 8.25629ZM12.8219 4.43473C13.5492 4.38004 14.1984 4.16621 14.5566 3.87691L12.5156 0.313477L11.0238 4.1416C11.4208 4.37293 12.094 4.48887 12.8219 4.43473ZM19.683 6.11254C19.7546 6.56754 20.092 7.16199 20.5952 7.68973C21.0983 8.21746 21.6758 8.58387 22.1264 8.67684L23.5866 4.83887L19.683 6.11254ZM17.1613 20.0294C16.5155 20.369 16.0058 20.824 15.7941 21.2325L19.0869 23.6864L18.9294 19.5848C18.4705 19.5274 17.8072 19.6898 17.1613 20.0294ZM9.55977 18.9253C8.88437 18.6518 8.20789 18.5529 7.75836 18.6518L7.99898 22.7534L11.0385 19.9917C10.7864 19.6039 10.2352 19.2003 9.55922 18.9247L9.55977 18.9253ZM8.12367 12.7046C8.56604 12.9149 9.07384 12.9408 9.53536 12.7767C9.99687 12.6127 10.3743 12.2719 10.5846 11.8296C10.7949 11.3872 10.8209 10.8794 10.6568 10.4179C10.4927 9.95637 10.152 9.57894 9.70961 9.36863C9.70961 9.36863 7.64844 9.49605 6.57273 9.93684C6.91672 11.0393 8.12367 12.7046 8.12367 12.7046ZM22.9035 12.7543C22.9042 14.0406 22.6433 15.3137 22.1368 16.496C21.6303 17.6784 20.8886 18.7455 19.957 19.6324L19.9274 18.8569L19.6403 18.7251C18.902 18.3855 17.7957 18.5332 16.6806 19.12C15.5655 19.7068 14.8174 20.5353 14.6791 21.3359L14.6244 21.6471L15.2216 22.0922C13.6625 22.3978 12.0519 22.3089 10.5359 21.8336L12.2356 20.2892L12.152 19.9846C11.9365 19.2009 11.1129 18.4489 9.94477 17.9732C8.77664 17.4974 7.66266 17.4575 6.96047 17.8671L6.68703 18.0262L6.77945 19.5952C5.85979 18.7091 5.12846 17.6465 4.62929 16.471C4.13011 15.2956 3.87338 14.0314 3.87445 12.7543C3.87445 8.68887 6.43766 5.21129 10.0328 3.85121L9.81406 4.40738L10.0246 4.64254C10.502 5.17629 11.3918 5.47707 12.4571 5.47707C12.6004 5.47707 12.7475 5.4716 12.8946 5.46066C14.1524 5.36715 15.1674 4.90613 15.6137 4.22691L15.787 3.96277L15.5092 3.4777C16.837 3.78237 18.0835 4.36955 19.164 5.19926L18.7063 5.34855L18.6576 5.66027C18.5329 6.46309 18.9775 7.48738 19.8465 8.39957C20.6504 9.2434 21.5675 9.72848 22.3402 9.72848H22.4075C22.7365 10.7034 22.9046 11.7254 22.9052 12.7543H22.9035ZM10.1531 8.44058C8.79633 7.79582 6.04555 9.03668 5.7393 9.17996L5.35047 9.36098L5.45984 9.77605C5.54516 10.1042 6.33047 12.9889 7.68508 13.6332C8.0268 13.8015 8.39858 13.9003 8.77881 13.9238C9.15905 13.9472 9.54014 13.8948 9.89997 13.7697C10.2598 13.6446 10.5912 13.4492 10.8748 13.1949C11.1585 12.9406 11.3887 12.6325 11.5523 12.2884C11.7158 11.9444 11.8093 11.5712 11.8274 11.1907C11.8455 10.8102 11.7878 10.4299 11.6576 10.0718C11.5274 9.71382 11.3274 9.38524 11.0691 9.10521C10.8108 8.82517 10.4995 8.59925 10.1531 8.44058ZM20.8248 15.1573L20.6974 14.7477C20.5968 14.425 19.6764 11.5791 18.2912 10.9994C17.5882 10.7073 16.7981 10.7059 16.0941 10.9954C15.39 11.285 14.8295 11.8418 14.5354 12.544C14.2413 13.2461 14.2376 14.0362 14.5252 14.741C14.8127 15.4459 15.3679 16.008 16.0692 16.3041C17.4545 16.8849 20.1413 15.5161 20.4442 15.358L20.8248 15.1573ZM17.8958 11.9482C17.672 11.8539 17.4319 11.8046 17.1891 11.8032C16.9462 11.8018 16.7055 11.8483 16.4807 11.94C16.2559 12.0318 16.0513 12.167 15.8788 12.3379C15.7063 12.5088 15.5692 12.712 15.4754 12.936C15.3815 13.1599 15.3328 13.4002 15.3319 13.643C15.331 13.8858 15.378 14.1264 15.4703 14.3511C15.5625 14.5757 15.6982 14.7799 15.8694 14.952C16.0407 15.1242 16.2443 15.2608 16.4684 15.3542C16.4684 15.3542 18.5209 15.13 19.5752 14.6389C19.1815 13.555 17.8958 11.9482 17.8958 11.9482Z"
        fill="white" />
</svg>
    