<svg width="24" height="17" viewBox="0 0 24 17" fill="none" xmlns="http://www.w3.org/2000/svg">
    <path
        d="M17.5 14.5C20 18 23.949 15.415 23 12C21.575 6.871 20.8 4.016 20.397 2.508C20.2821 2.07602 20.0278 1.69407 19.6736 1.4214C19.3194 1.14873 18.8851 1.0006 18.438 1H5.56205C4.64405 1 3.84405 1.625 3.62105 2.515C2.78005 5.863 2.03305 8.802 1.14405 12C0.196047 15.415 4.14405 18 6.64405 14.5M18 5.5L18.011 5.51M16.49 4L16.501 4.01M16.49 7L16.501 7.01M15 5.5L15.011 5.51M7.00005 4V7M5.50005 5.5H8.50005"
        stroke="white" stroke-width="1.5" stroke-linecap="round" stroke-linejoin="round" />
    <path
        d="M8 13C8.53043 13 9.03914 12.7893 9.41421 12.4142C9.78929 12.0391 10 11.5304 10 11C10 10.4696 9.78929 9.96086 9.41421 9.58579C9.03914 9.21071 8.53043 9 8 9C7.46957 9 6.96086 9.21071 6.58579 9.58579C6.21071 9.96086 6 10.4696 6 11C6 11.5304 6.21071 12.0391 6.58579 12.4142C6.96086 12.7893 7.46957 13 8 13ZM16 13C16.5304 13 17.0391 12.7893 17.4142 12.4142C17.7893 12.0391 18 11.5304 18 11C18 10.4696 17.7893 9.96086 17.4142 9.58579C17.0391 9.21071 16.5304 9 16 9C15.4696 9 14.9609 9.21071 14.5858 9.58579C14.2107 9.96086 14 10.4696 14 11C14 11.5304 14.2107 12.0391 14.5858 12.4142C14.9609 12.7893 15.4696 13 16 13Z"
        stroke="white" stroke-width="1.5" stroke-linecap="round" stroke-linejoin="round" />
</svg>
    