<svg width="36" height="36" viewBox="0 0 36 36" fill="none" xmlns="http://www.w3.org/2000/svg">
    <path
        d="M33 12.2428V12.3523C33 13.6423 33 14.2888 32.6895 14.8168C32.379 15.3448 31.8135 15.6583 30.6855 16.2868L29.496 16.9468C30.315 14.1748 30.5895 11.1958 30.69 8.64876L30.705 8.31726L30.708 8.23926C31.6845 8.57826 32.2335 8.83176 32.5755 9.30576C33 9.89526 33 10.6783 33 12.2428ZM3 12.2428V12.3523C3 13.6423 3 14.2888 3.3105 14.8168C3.621 15.3448 4.1865 15.6583 5.3145 16.2868L6.5055 16.9468C5.685 14.1748 5.4105 11.1958 5.31 8.64876L5.295 8.31726L5.2935 8.23926C4.3155 8.57826 3.7665 8.83176 3.4245 9.30576C3 9.89526 3 10.6798 3 12.2428Z"
        fill="white" />
    <path fill-rule="evenodd" clip-rule="evenodd"
        d="M24.5651 3.52085C22.3949 3.16516 20.1987 2.99106 17.9996 3.00035C15.3251 3.00035 13.1201 3.23585 11.4341 3.52085C9.72558 3.80885 8.87208 3.95285 8.15808 4.83185C7.44558 5.71085 7.48308 6.66035 7.55808 8.55935C7.81758 15.0814 9.22458 23.2294 16.8746 23.9494V29.2504H14.7296C14.3829 29.2506 14.0471 29.3708 13.7791 29.5907C13.5111 29.8105 13.3275 30.1164 13.2596 30.4564L12.9746 31.8754H8.99958C8.70121 31.8754 8.41506 31.9939 8.20409 32.2049C7.99311 32.4158 7.87458 32.702 7.87458 33.0004C7.87458 33.2987 7.99311 33.5849 8.20409 33.7959C8.41506 34.0068 8.70121 34.1254 8.99958 34.1254H26.9996C27.2979 34.1254 27.5841 34.0068 27.7951 33.7959C28.0061 33.5849 28.1246 33.2987 28.1246 33.0004C28.1246 32.702 28.0061 32.4158 27.7951 32.2049C27.5841 31.9939 27.2979 31.8754 26.9996 31.8754H23.0246L22.7396 30.4564C22.6716 30.1164 22.4881 29.8105 22.2201 29.5907C21.9521 29.3708 21.6162 29.2506 21.2696 29.2504H19.1246V23.9494C26.7746 23.2294 28.1831 15.0829 28.4411 8.55935C28.5161 6.66035 28.5551 5.70935 27.8411 4.83185C27.1271 3.95285 26.2736 3.80885 24.5651 3.52085Z"
        fill="white" />
</svg>
    