<svg width="26" height="25" viewBox="0 0 26 25" fill="none" xmlns="http://www.w3.org/2000/svg">
    <path
        d="M13 0.734375C11.8188 0.734375 10.8672 1.6832 10.8672 2.86719C10.8672 4.04844 11.8188 5 13 5C14.1812 5 15.1328 4.04844 15.1328 2.86719C15.1328 1.6832 14.1812 0.734375 13 0.734375ZM10.375 5.60156C9.19375 5.60156 8.24219 6.55312 8.24219 7.73438C8.24219 8.91562 9.19375 9.86719 10.375 9.86719C11.5562 9.86719 12.5078 8.91562 12.5078 7.73438C12.5078 6.55312 11.5562 5.60156 10.375 5.60156ZM15.625 5.60156C14.4438 5.60156 13.4922 6.55312 13.4922 7.73438C13.4922 8.91562 14.4438 9.86719 15.625 9.86719C16.8062 9.86719 17.7578 8.91562 17.7578 7.73438C17.7578 6.55312 16.8062 5.60156 15.625 5.60156ZM7.75 10.5234C6.56875 10.5234 5.61719 11.475 5.61719 12.6562C5.61719 13.8375 6.56875 14.7891 7.75 14.7891C8.93125 14.7891 9.88281 13.8375 9.88281 12.6562C9.88281 11.475 8.93125 10.5234 7.75 10.5234ZM13 10.5234C11.8188 10.5234 10.8672 11.475 10.8672 12.6562C10.8672 13.8375 11.8188 14.7891 13 14.7891C14.1812 14.7891 15.1328 13.8375 15.1328 12.6562C15.1328 11.475 14.1812 10.5234 13 10.5234ZM18.25 10.5234C17.0688 10.5234 16.1172 11.475 16.1172 12.6562C16.1172 13.8375 17.0688 14.7891 18.25 14.7891C19.4312 14.7891 20.3828 13.8375 20.3828 12.6562C20.3828 11.475 19.4312 10.5234 18.25 10.5234ZM5.125 15.4125C3.94102 15.4125 2.99219 16.3641 2.99219 17.5453C2.99219 18.7266 3.94102 19.6781 5.125 19.6781C6.30625 19.6781 7.25781 18.7266 7.25781 17.5453C7.25781 16.3641 6.30625 15.4125 5.125 15.4125ZM10.375 15.4125C9.19375 15.4125 8.24219 16.3641 8.24219 17.5453C8.24219 18.7266 9.19375 19.6781 10.375 19.6781C11.5562 19.6781 12.5078 18.7266 12.5078 17.5453C12.5078 16.3641 11.5562 15.4125 10.375 15.4125ZM15.625 15.4125C14.4438 15.4125 13.4922 16.3641 13.4922 17.5453C13.4922 18.7266 14.4438 19.6781 15.625 19.6781C16.8062 19.6781 17.7578 18.7266 17.7578 17.5453C17.7578 16.3641 16.8062 15.4125 15.625 15.4125ZM20.875 15.4125C19.6938 15.4125 18.7422 16.3641 18.7422 17.5453C18.7422 18.7266 19.6938 19.6781 20.875 19.6781C22.0562 19.6781 23.0078 18.7266 23.0078 17.5453C23.0078 16.3641 22.0562 15.4125 20.875 15.4125ZM2.5 20.3672C1.31602 20.3672 0.367188 21.3188 0.367188 22.5C0.367188 23.6812 1.31602 24.6328 2.5 24.6328C3.68398 24.6328 4.63281 23.6812 4.63281 22.5C4.63281 21.3188 3.68398 20.3672 2.5 20.3672ZM7.75 20.3672C6.56875 20.3672 5.61719 21.3188 5.61719 22.5C5.61719 23.6812 6.56875 24.6328 7.75 24.6328C8.93125 24.6328 9.88281 23.6812 9.88281 22.5C9.88281 21.3188 8.93125 20.3672 7.75 20.3672ZM13 20.3672C11.8188 20.3672 10.8672 21.3188 10.8672 22.5C10.8672 23.6812 11.8188 24.6328 13 24.6328C14.1812 24.6328 15.1328 23.6812 15.1328 22.5C15.1328 21.3188 14.1812 20.3672 13 20.3672ZM18.25 20.3672C17.0688 20.3672 16.1172 21.3188 16.1172 22.5C16.1172 23.6812 17.0688 24.6328 18.25 24.6328C19.4312 24.6328 20.3828 23.6812 20.3828 22.5C20.3828 21.3188 19.4312 20.3672 18.25 20.3672ZM23.5 20.3672C22.3188 20.3672 21.3672 21.3188 21.3672 22.5C21.3672 23.6812 22.3188 24.6328 23.5 24.6328C24.6812 24.6328 25.6328 23.6812 25.6328 22.5C25.6328 21.3188 24.6812 20.3672 23.5 20.3672Z"
        fill="white" />
</svg>
    