<svg width="20" height="20" viewBox="0 0 20 20" fill="none" xmlns="http://www.w3.org/2000/svg">
    <path
        d="M18.8948 12.334C18.7986 12.2376 18.6779 12.1692 18.5458 12.1362C18.4136 12.1032 18.275 12.1067 18.1448 12.1465C16.7147 12.5789 15.1941 12.6151 13.745 12.2514C12.2959 11.8877 10.9727 11.1377 9.91627 10.0813C8.85985 9.02485 8.10983 7.7016 7.74612 6.25254C7.38242 4.80347 7.41867 3.28288 7.85101 1.85279C7.89113 1.72248 7.89498 1.5837 7.86212 1.45137C7.82927 1.31903 7.76096 1.19816 7.66455 1.10175C7.56814 1.00534 7.44727 0.937031 7.31494 0.904177C7.1826 0.871324 7.04382 0.875166 6.91351 0.915291C4.93635 1.52096 3.20058 2.73478 1.9532 4.38404C0.862334 5.83234 0.196936 7.55614 0.0317579 9.36176C-0.13342 11.1674 0.208167 12.9833 1.01814 14.6055C1.82812 16.2277 3.07439 17.5919 4.61695 18.5448C6.1595 19.4978 7.93722 20.0017 9.75039 20C11.8657 20.0065 13.9248 19.3188 15.6116 18.0425C17.2609 16.7951 18.4747 15.0593 19.0804 13.0822C19.12 12.9523 19.1237 12.8142 19.091 12.6824C19.0583 12.5507 18.9905 12.4303 18.8948 12.334ZM14.7098 16.8444C13.1212 18.0408 11.1539 18.6232 9.17002 18.4843C7.18614 18.3454 5.3192 17.4945 3.91289 16.0884C2.50658 14.6822 1.65556 12.8153 1.51648 10.8314C1.37741 8.84753 1.95964 6.88019 3.15601 5.29154C3.93545 4.26222 4.94313 3.42784 6.09976 2.85404C6.03387 3.31644 6.00066 3.78291 6.00038 4.24998C6.00311 6.835 7.03122 9.31337 8.85911 11.1413C10.687 12.9691 13.1654 13.9972 15.7504 14C16.2184 13.9998 16.6858 13.9666 17.1491 13.9006C16.5748 15.0574 15.7398 16.0651 14.7098 16.8444Z"
        fill="white" />
</svg>
    